<?xml version="1.0" encoding="UTF-8"?>
<svg width="632px" height="200px" viewBox="0 0 632 200" version="1.1" xmlns="http://www.w3.org/2000/svg" xmlns:xlink="http://www.w3.org/1999/xlink">
    <title>A3490E5A-6A3C-4AAA-9AB7-702F70093D78</title>
    <g id="LHRC-Staking" stroke="none" stroke-width="1" fill="none" fill-rule="evenodd">
        <g id="Landing" transform="translate(0.000000, -880.000000)" fill-rule="nonzero">
            <g id="Front-Fence-L" transform="translate(0.000000, 880.000000)">
                <polygon id="Path" fill="#B5A8A0" points="631.000649 76.6519824 8.39247597 76.6519824 0.998420221 72.1806401 625.086149 35.2422907 631.00158 40.8297813"></polygon>
                <path d="M632,75.7709251 L8.52788837,75.7709251 L0,70.7117101 L1.23064677,70.6404769 L625.829997,34.3612335 L632,40.0764568 L632,75.7709251 Z M8.78128423,75.0254612 L631.165284,75.0254612 L631.165284,40.3796121 L625.497415,35.1265764 L2.51253167,71.3097378 L8.78128423,75.0254612 Z" id="Shape" fill="#575157"></path>
                <rect id="Rectangle" fill="#CEC7C2" x="0.998420221" y="35.2422907" width="624.012638" height="36.123348"></rect>
                <path d="M626.009479,72.246696 L0.998420221,72.246696 L0.998420221,35.2422907 L626.009479,35.2422907 L626.009479,72.246696 Z M1.83282869,71.5013241 L625.17507,71.5013241 L625.17507,35.9843499 L1.83282869,35.9843499 L1.83282869,71.5013241 Z" id="Shape" fill="#575157"></path>
                <polygon id="Path" fill="#B5A8A0" points="631.000649 170.044053 8.39247597 170.044053 0.998420221 165.704273 625.086149 137.444934 631.00158 142.868022"></polygon>
                <path d="M632,170.044053 L8.54994436,170.044053 L0,165.0085 L1.25761875,164.950942 L625.832079,136.563877 L632,142.237507 L632,170.044053 Z M8.80333125,169.304014 L631.165314,169.304014 L631.165314,142.530234 L625.494851,137.31296 L2.55436342,165.626021 L8.80333125,169.304014 Z" id="Shape" fill="#575157"></path>
                <rect id="Rectangle" fill="#CEC7C2" x="0.998420221" y="136.563877" width="624.012638" height="29.0748899"></rect>
                <path d="M626.009479,166.519824 L0.998420221,166.519824 L0.998420221,137.444934 L626.009479,137.444934 L626.009479,166.519824 Z M1.83282869,165.780799 L625.17507,165.780799 L625.17507,138.176569 L1.83282869,138.176569 L1.83282869,165.780799 Z" id="Shape" fill="#575157"></path>
                <polygon id="Path" fill="#B5A8A0" points="54.1563359 0.881057269 61.5939109 0.881057269 89.8578199 25.0835799 89.8578199 200 52.9162717 200"></polygon>
                <path d="M89.8578199,200 L52.9162717,200 L52.9162717,199.626013 L54.1305626,0 L61.9794969,0 L62.0994607,0.104716393 L89.8578199,24.432994 L89.8578199,200 Z M53.7413668,199.252026 L89.0391351,199.252026 L89.0391351,24.7512986 L61.6470779,0.742156659 L54.9483316,0.742156659 L53.7413668,199.252026 Z" id="Shape" fill="#575157"></path>
                <polygon id="Path" fill="#CEC7C2" points="23.9620853 25.0835799 54.6534202 0.881057269 82.8688784 25.0835799 82.8688784 200 32.8726237 200"></polygon>
                <path d="M81.8704581,200 L31.7764561,200 L31.7580212,199.64454 L22.9636651,24.5491352 L23.1120658,24.4320329 L53.6531198,0 L81.8695364,24.5516268 L81.8704581,200 Z M32.5645469,199.252538 L81.0482628,199.252538 L81.0482628,24.8713743 L53.6300763,1.01405643 L23.8079823,24.8713743 L32.5645469,199.252538 Z" id="Shape" fill="#575157"></path>
                <path d="M61.9020537,51.9819705 C61.9020537,56.8489186 57.6555704,60.7929515 52.4165961,60.7929515 C47.1776218,60.7929515 42.9320695,56.8489186 42.9320695,51.9819705 C42.9320695,47.1150224 47.1785528,43.1718062 52.4165961,43.1718062 C57.6546393,43.1718062 61.9020537,47.1158391 61.9020537,51.9819705 Z" id="Path" fill="#CEC7C2" style="mix-blend-mode: multiply;"></path>
                <path d="M59.9019934,50.660793 C60.0277644,54.6806975 56.4533696,58.0315674 51.9134424,58.1497797 C47.4318939,57.9201945 43.9304897,54.6354488 43.9304897,50.660793 C43.9304897,46.6861371 47.4318939,43.4013914 51.9134424,43.1718062 C56.4533696,43.2900185 60.0277644,46.6408884 59.9019934,50.660793 L59.9019934,50.660793 Z" id="Path" fill="#CEC7C2"></path>
                <path d="M52.4170616,59.030837 C47.6583712,58.8050909 43.9304897,55.3219067 43.9304897,51.1013216 C43.9304897,46.8807365 47.6583712,43.3975522 52.4170616,43.1718062 C57.175752,43.3975522 60.9036335,46.8807365 60.9036335,51.1013216 C60.9036335,55.3219067 57.175752,58.8050909 52.4170616,59.030837 L52.4170616,59.030837 Z M52.4170616,43.9262363 C48.1322537,44.1552253 44.7897125,47.2995705 44.7897125,51.1013216 C44.7897125,54.9030727 48.1322537,58.0474178 52.4170616,58.2764069 C56.7018695,58.0474178 60.0444107,54.9030727 60.0444107,51.1013216 C60.0444107,47.2995705 56.7018695,44.1552253 52.4170616,43.9262363 L52.4170616,43.9262363 Z" id="Shape" fill="#575157"></path>
                <path d="M58.1140221,45.814978 C58.3741251,46.6075293 58.5064714,47.4292538 58.5070557,48.2552831 C58.5070557,52.4340841 55.2449708,55.8208194 51.2203817,55.8208194 C47.5888263,55.8208194 44.5859363,53.0599764 44.0336156,49.4488647 C43.9701809,49.8247159 43.9367935,50.2041389 43.9337078,50.5842435 C43.8080062,54.6452379 47.380429,58.0303591 51.9178515,58.1497797 C56.455274,58.0303591 60.0276968,54.6452379 59.9019952,50.5842435 C59.9094114,48.8616094 59.2808651,47.1850159 58.1140221,45.814978 L58.1140221,45.814978 Z" id="Path" fill="#CEC7C2" style="mix-blend-mode: multiply;"></path>
                <g id="Group" style="mix-blend-mode: multiply;" transform="translate(45.927330, 44.052863)">
                    <polygon id="Path" fill="#CEC7C2" points="2.5786632 13.5516177 12.3840922 1.91060734 10.2017047 0.519724793 0.574312517 12.019667"></polygon>
                    <path d="M2.64853789,14.0969163 L0,12.0741144 L10.1079003,0 L12.9794629,1.83141118 L2.64853789,14.0969163 Z M1.14862503,11.9619198 L2.51357445,13.0013694 L11.790636,1.98732861 L10.2983806,1.03614975 L1.14862503,11.9619198 Z" id="Shape" fill="#575157"></path>
                </g>
                <path d="M53.9146919,45.1323401 C51.5665625,44.515324 49.0606991,45.3686925 47.6783552,47.2561166 C45.0241105,50.5410392 49.9374224,50.0190796 53.9146919,45.1323401 Z" id="Path" fill="#CEC7C2" style="mix-blend-mode: screen;"></path>
                <ellipse id="Oval" fill="#CEC7C2" opacity="0.53" style="mix-blend-mode: screen;" cx="45.4281201" cy="51.1013216" rx="1" ry="1"></ellipse>
                <path d="M61.8985949,149.778896 C62.0329253,154.035422 58.2379064,157.583946 53.4173648,157.709251 C48.6539362,157.472068 44.92891,153.992324 44.92891,149.779736 C44.92891,145.567148 48.6539362,142.087403 53.4173648,141.85022 C58.2373749,141.975075 62.0323851,145.522839 61.8985949,149.778896 L61.8985949,149.778896 Z" id="Path" fill="#CEC7C2" style="mix-blend-mode: multiply;"></path>
                <path d="M59.9023545,149.340049 C60.0120999,152.886781 56.8884793,155.843086 52.9213316,155.947137 C48.9976945,155.753113 45.9273302,152.852234 45.9273302,149.339207 C45.9273302,145.82618 48.9976945,142.925301 52.9213316,142.731278 C56.8892351,142.835322 60.013159,145.792668 59.9023545,149.340049 L59.9023545,149.340049 Z" id="Path" fill="#CEC7C2"></path>
                <path d="M53.4154818,156.828194 C49.2150853,156.622672 45.9273302,153.527969 45.9273302,149.779736 C45.9273302,146.031503 49.2150853,142.9368 53.4154818,142.731278 C57.6158784,142.9368 60.9036335,146.031503 60.9036335,149.779736 C60.9036335,153.527969 57.6158784,156.622672 53.4154818,156.828194 Z M53.4154818,143.489944 C49.6869559,143.694394 46.7805241,146.448324 46.7805241,149.776762 C46.7805241,153.1052 49.6869559,155.85913 53.4154818,156.063581 C57.1440078,155.85913 60.0504395,153.1052 60.0504395,149.776762 C60.0504395,146.448324 57.1440078,143.694394 53.4154818,143.489944 L53.4154818,143.489944 Z" id="Shape" fill="#575157"></path>
                <path d="M58.337997,145.374449 C58.5659613,146.054314 58.6821061,146.759213 58.6829208,147.467838 C58.6829208,151.049069 55.8283469,153.952056 52.3046585,153.952056 C49.1277787,153.952056 46.5003267,151.584395 46.016868,148.491401 C45.9616239,148.813018 45.9326495,149.137683 45.9301659,149.462919 C45.81979,152.943242 48.9452778,155.844578 52.9153432,155.947137 C56.8859229,155.845021 60.0122457,152.943693 59.9024054,149.462919 C59.9085534,147.986295 59.3586501,146.549162 58.337997,145.374449 L58.337997,145.374449 Z" id="Path" fill="#CEC7C2" style="mix-blend-mode: multiply;"></path>
                <g id="Group" style="mix-blend-mode: multiply;" transform="translate(47.924171, 142.731278)">
                    <polygon id="Path" fill="#CEC7C2" points="2.2259357 11.7971581 10.4144928 1.72225455 8.58770926 0.518879153 0.545294876 10.4722214"></polygon>
                    <path d="M2.2926133,12.3348018 L0,10.5244357 L8.50093704,0 L10.9826224,1.63903808 L2.2926133,12.3348018 Z M1.0960701,10.4151121 L2.1592581,11.2546194 L9.84362292,1.79894423 L8.67996182,1.02959983 L1.0960701,10.4151121 Z" id="Shape" fill="#575157"></path>
                </g>
                <path d="M54.9131122,143.810224 C52.5643058,143.194 50.0582853,144.048313 48.6766762,145.936251 C46.0224974,149.218641 50.9365259,148.697642 54.9131122,143.810224 Z" id="Path" fill="#CEC7C2" style="mix-blend-mode: screen;"></path>
                <path d="M48.9225908,148.899691 C48.9225908,149.384779 48.6979079,149.779736 48.4241476,149.779736 C48.1503872,149.779736 47.9241706,149.384779 47.9241706,148.899691 C47.9241706,148.414603 48.1473198,148.017621 48.4241476,148.017621 C48.7009753,148.017621 48.9225908,148.412578 48.9225908,148.899691 Z" id="Path" fill="#CEC7C2" opacity="0.53" style="mix-blend-mode: screen;"></path>
                <polygon id="Path" fill="#CEC7C2" style="mix-blend-mode: screen;" points="30.8752422 140.969163 24.9605055 25.0527996 54.5473159 1.76211454 75.8799368 20.0271993 53.9903479 6.43687884 28.7786424 26.0238337"></polygon>
                <polygon id="Path" fill="#B5A8A0" points="177.960443 0.881057269 185.398018 0.881057269 213.661927 25.0835799 213.661927 200 176.720379 200"></polygon>
                <path d="M213.661927,200 L176.720379,200 L176.720379,199.626013 L177.93464,0 L185.780632,0 L185.899678,0.104716393 L213.65918,24.432994 L213.661927,200 Z M177.546369,199.252026 L212.841431,199.252026 L212.841431,24.7512986 L185.448222,0.742156659 L178.748726,0.742156659 L177.546369,199.252026 Z" id="Shape" fill="#575157"></path>
                <polygon id="Path" fill="#CEC7C2" points="146.767773 25.0835799 177.459107 0.881057269 205.674566 25.0835799 205.674566 200 155.678311 200"></polygon>
                <path d="M205.674566,200 L155.578858,200 L155.561345,199.64454 L146.767773,24.5491352 L146.915254,24.4320329 L177.457707,0 L205.674566,24.5516268 L205.674566,200 Z M156.366961,199.252538 L204.851436,199.252538 L204.851436,24.8713743 L177.436507,1.01737849 L147.611181,24.8713743 L156.366961,199.252538 Z" id="Shape" fill="#575157"></path>
                <path d="M185.706161,51.9819705 C185.706161,56.8489186 181.458955,60.7929515 176.221169,60.7929515 C170.983383,60.7929515 166.736177,56.8489186 166.736177,51.9819705 C166.736177,47.1150224 170.983383,43.1718062 176.221169,43.1718062 C181.458955,43.1718062 185.706161,47.1158391 185.706161,51.9819705 Z" id="Path" fill="#CEC7C2" style="mix-blend-mode: multiply;"></path>
                <path d="M183.706105,50.6222723 C183.457701,54.4565062 179.774397,57.4096439 175.422794,57.2635264 C171.07119,57.1174089 167.65317,53.9258239 167.736074,50.0860329 C167.818978,46.2462419 171.372289,43.1718062 175.727045,43.1718062 C180.261578,43.2894104 183.831726,46.6230447 183.706105,50.6222723 L183.706105,50.6222723 Z" id="Path" fill="#CEC7C2"></path>
                <path d="M175.209966,59.0190766 C171.537136,59.1953184 168.113571,57.3778332 166.568744,54.431667 C165.023917,51.4855007 165.669908,48.0058297 168.199254,45.6488299 C170.7286,43.2918301 174.630329,42.533656 178.047384,43.7351664 C181.464438,44.9366768 183.706514,47.8551459 183.706478,51.101506 C183.828146,55.3554787 180.029385,58.8953976 175.209966,59.0190766 L175.209966,59.0190766 Z M175.209966,43.9364283 C171.882088,43.759267 168.768762,45.3926701 167.355057,48.0574981 C165.941352,50.7223262 166.513644,53.8787632 168.798946,56.0211769 C171.084249,58.1635905 174.619627,58.8579907 177.718692,57.7731459 C180.817758,56.6883011 182.85273,54.043969 182.852921,51.101506 C182.97531,47.2631741 179.55842,44.0599249 175.209966,43.9364283 L175.209966,43.9364283 Z" id="Shape" fill="#575157"></path>
                <path d="M181.910833,45.814978 C182.171702,46.6076583 182.304526,47.4297556 182.305256,48.2562099 C182.305256,52.4365981 179.045378,55.8246196 175.024893,55.8246196 C171.39789,55.8246196 168.398764,53.0627281 167.848077,49.4502449 C167.784404,49.8262182 167.750744,50.2057857 167.747353,50.5860548 C167.580379,53.2363069 169.062758,55.7518735 171.598932,57.1221057 C174.135106,58.4923378 177.308812,58.4923378 179.844986,57.1221057 C182.38116,55.7518735 183.863539,53.2363069 183.696564,50.5860548 C183.703971,48.8627665 183.076213,47.1855362 181.910833,45.814978 L181.910833,45.814978 Z" id="Path" fill="#CEC7C2" style="mix-blend-mode: multiply;"></path>
                <g id="Group" style="mix-blend-mode: multiply;" transform="translate(168.733017, 44.052863)">
                    <polygon id="Path" fill="#CEC7C2" points="2.58326329 13.5516177 12.3853123 1.91060734 10.2029332 0.519724793 0.575972037 12.019667"></polygon>
                    <path d="M2.65406384,14.0969163 L0,12.0741144 L10.1091703,0 L12.9794629,1.83141118 L2.65406384,14.0969163 Z M1.15098731,11.9652197 L2.5134195,13.0046693 L11.7882915,1.99062845 L10.2957393,1.03944959 L1.15098731,11.9652197 Z" id="Shape" fill="#575157"></path>
                </g>
                <path d="M176.720379,45.1322774 C174.372265,44.5153957 171.866529,45.3687091 170.483862,47.2560855 C167.829928,50.5410571 172.743575,50.0190897 176.720379,45.1322774 Z" id="Path" fill="#CEC7C2" style="mix-blend-mode: screen;"></path>
                <path d="M169.731438,51.1013216 C169.731438,51.5879417 169.508151,51.9823789 169.232563,51.9823789 C168.956975,51.9823789 168.733017,51.5879417 168.733017,51.1013216 C168.733017,50.6147014 168.956975,50.2202643 169.232563,50.2202643 C169.508151,50.2202643 169.731438,50.6155878 169.731438,51.1013216 Z" id="Path" fill="#CEC7C2" opacity="0.53" style="mix-blend-mode: screen;"></path>
                <path d="M185.702758,149.765971 C185.43906,153.839827 181.52578,156.977696 176.902226,156.82269 C172.278673,156.667684 168.646812,153.276861 168.734575,149.197107 C168.822338,145.117353 172.59742,141.850456 177.224313,141.85022 C182.042344,141.974874 185.835955,145.516713 185.702758,149.765971 L185.702758,149.765971 Z" id="Path" fill="#CEC7C2" style="mix-blend-mode: multiply;"></path>
                <path d="M183.706514,149.250821 C183.488935,152.605576 180.266186,155.18933 176.458734,155.061536 C172.651282,154.933743 169.660537,152.14144 169.732717,148.781804 C169.804897,145.422169 172.913435,142.731783 176.723643,142.731278 C180.691841,142.833949 183.816289,145.751084 183.706514,149.250821 L183.706514,149.250821 Z" id="Path" fill="#CEC7C2"></path>
                <path d="M177.149803,156.817883 C173.885543,156.973444 170.843463,155.357465 169.471057,152.738867 C168.098651,150.120269 168.673071,147.027868 170.920994,144.933099 C173.168917,142.838331 176.636384,142.164226 179.673493,143.231539 C182.710602,144.298853 184.704022,146.892044 184.705236,149.777213 C184.812921,153.559847 181.435209,156.70743 177.149803,156.817883 Z M177.149803,143.49999 C174.23367,143.343836 171.504966,144.774483 170.265519,147.109389 C169.026071,149.444296 169.527011,152.210375 171.529346,154.087969 C173.531681,155.965562 176.629709,156.574243 179.345403,155.623616 C182.061097,154.67299 183.844219,152.355668 183.844065,149.777213 C183.950294,146.415824 180.957895,143.610982 177.149803,143.502535 L177.149803,143.49999 Z" id="Shape" fill="#575157"></path>
                <path d="M182.135482,145.374449 C182.362849,146.054463 182.478536,146.759473 182.479044,147.468171 C182.479044,151.049971 179.628891,153.953419 176.110439,153.953419 C172.93649,153.953419 170.312241,151.585382 169.829372,148.491896 C169.774198,148.813565 169.745259,149.138281 169.742775,149.463568 C169.595483,151.734986 170.892255,153.891438 173.111846,155.066123 C175.331436,156.240808 178.109322,156.240808 180.328913,155.066123 C182.548503,153.891438 183.845276,151.734986 183.697983,149.463568 C183.704123,147.98671 183.15489,146.549349 182.135482,145.374449 Z" id="Path" fill="#CEC7C2" style="mix-blend-mode: multiply;"></path>
                <g id="Group" style="mix-blend-mode: multiply;" transform="translate(170.729858, 142.731278)">
                    <polygon id="Path" fill="#CEC7C2" points="2.22556551 11.7971581 10.4127608 1.72225455 8.58628107 0.518879153 0.54977039 10.4722214"></polygon>
                    <path d="M2.29131878,12.3348018 L0,10.5244357 L8.49952328,0 L10.9826224,1.63903808 L2.29131878,12.3348018 Z M1.09588782,10.4151121 L2.158899,11.2546194 L9.8428991,1.79894423 L8.67943153,1.02959983 L1.09588782,10.4151121 Z" id="Shape" fill="#575157"></path>
                </g>
                <path d="M178.71722,143.811248 C176.367632,143.193028 173.859754,144.047319 172.47752,145.936758 C169.829808,149.218349 174.745651,148.697477 178.71722,143.811248 Z" id="Path" fill="#CEC7C2" style="mix-blend-mode: screen;"></path>
                <path d="M171.728278,148.899691 C171.728278,149.384779 171.505129,149.779736 171.229835,149.779736 C170.954541,149.779736 170.729858,149.384779 170.729858,148.899691 C170.729858,148.414603 170.953007,148.017621 171.229835,148.017621 C171.506662,148.017621 171.728278,148.412578 171.728278,148.899691 Z" id="Path" fill="#CEC7C2" opacity="0.53" style="mix-blend-mode: screen;"></path>
                <polygon id="Path" fill="#CEC7C2" style="mix-blend-mode: screen;" points="154.67996 140.969163 148.764613 25.0527996 178.354477 1.76211454 199.684044 20.0271993 177.791914 6.43687884 152.580664 26.0230023"></polygon>
                <polygon id="Path" fill="#B5A8A0" points="300.766973 0.881057269 308.204919 0.881057269 336.467615 25.0835799 336.467615 200 299.526066 200"></polygon>
                <path d="M336.467615,200 L299.526066,200 L299.526066,199.626013 L300.741273,0 L308.586544,0 L308.705592,0.104716393 L336.464867,24.432994 L336.467615,200 Z M300.352993,199.252026 L335.64893,199.252026 L335.64893,24.7512986 L308.256873,0.745480989 L301.559042,0.745480989 L300.352993,199.252026 Z" id="Shape" fill="#575157"></path>
                <polygon id="Path" fill="#CEC7C2" points="270.57188 25.0835799 301.263176 0.881057269 329.478673 25.0835799 329.478673 200 279.478396 200"></polygon>
                <path d="M329.478673,200 L279.382827,200 L279.365314,199.64454 L270.57188,24.5491352 L270.719359,24.4320329 L301.261335,0 L329.478673,24.5516268 L329.478673,200 Z M280.17184,199.252538 L328.655556,199.252538 L328.655556,24.8713743 L301.240135,1.01737849 L271.416197,24.8713743 L280.17184,199.252538 Z" id="Shape" fill="#575157"></path>
                <path d="M309.510269,51.9819705 C309.510269,56.8489186 305.263271,60.7929515 300.024811,60.7929515 C294.786351,60.7929515 290.540284,56.8489186 290.540284,51.9819705 C290.540284,47.1150224 294.787282,43.1718062 300.024811,43.1718062 C305.26234,43.1718062 309.510269,47.1158391 309.510269,51.9819705 Z" id="Path" fill="#CEC7C2" style="mix-blend-mode: multiply;"></path>
                <path d="M307.510212,50.6222723 C307.261809,54.4565062 303.578505,57.4096439 299.226901,57.2635264 C294.875297,57.1174089 291.457277,53.9258239 291.540181,50.0860329 C291.623086,46.2462419 295.176396,43.1718062 299.531153,43.1718062 C304.065686,43.2894104 307.635834,46.6230447 307.510212,50.6222723 L307.510212,50.6222723 Z" id="Path" fill="#CEC7C2"></path>
                <path d="M299.014074,59.0190766 C295.341244,59.1953184 291.917679,57.3778332 290.372851,54.431667 C288.828024,51.4855007 289.474016,48.0058297 292.003362,45.6488299 C294.532708,43.2918301 298.434437,42.533656 301.851491,43.7351664 C305.268545,44.9366768 307.510621,47.8551459 307.510585,51.101506 C307.632253,55.3554787 303.833492,58.8953976 299.014074,59.0190766 L299.014074,59.0190766 Z M299.014074,43.9364283 C295.686253,43.759616 292.573206,45.3932578 291.159807,48.0581324 C289.746408,50.723007 290.318955,53.879317 292.604353,56.0215526 C294.88975,58.1637882 298.425067,58.8580178 301.524014,57.7731049 C304.622961,56.688192 306.657814,54.0438968 306.657981,51.101506 C306.780364,47.2628564 303.362903,44.0594725 299.014074,43.9364283 L299.014074,43.9364283 Z" id="Shape" fill="#575157"></path>
                <path d="M305.714468,45.814978 C305.975337,46.6071829 306.108161,47.4287871 306.108892,48.2547457 C306.108892,52.4326266 302.849014,55.8186161 298.829471,55.8186161 C295.202469,55.8186161 292.203344,53.0583811 291.651716,49.4480645 C291.588351,49.823832 291.555005,50.2031721 291.551933,50.5831933 C291.381783,53.2334706 292.863337,55.7503358 295.400679,57.1214466 C297.938021,58.4925574 301.114112,58.4925574 303.651454,57.1214466 C306.188795,55.7503358 307.670349,53.2334706 307.5002,50.5831933 C307.507607,48.8609386 306.879848,47.1847142 305.714468,45.814978 L305.714468,45.814978 Z" id="Path" fill="#CEC7C2" style="mix-blend-mode: multiply;"></path>
                <g id="Group" style="mix-blend-mode: multiply;" transform="translate(292.537125, 44.052863)">
                    <polygon id="Path" fill="#CEC7C2" points="2.58345372 13.5516177 12.3852685 1.91060734 10.2027285 0.519724793 0.575057662 12.019667"></polygon>
                    <path d="M2.65330266,14.0969163 L0,12.0741144 L10.1089587,0 L12.9794629,1.83141118 L2.65330266,14.0969163 Z M1.15011532,11.9652197 L2.51264796,13.0046693 L11.7882037,1.99062845 L10.2955415,1.03944959 L1.15011532,11.9652197 Z" id="Shape" fill="#575157"></path>
                </g>
                <path d="M300.524487,45.1322774 C298.176228,44.5153957 295.670336,45.3687091 294.287584,47.2560855 C291.634396,50.5410571 296.548347,50.0190897 300.524487,45.1322774 Z" id="Path" fill="#CEC7C2" style="mix-blend-mode: screen;"></path>
                <path d="M293.535545,51.1013216 C293.535545,51.5879417 293.312258,51.9823789 293.03667,51.9823789 C292.761082,51.9823789 292.537125,51.5879417 292.537125,51.1013216 C292.537125,50.6147014 292.761082,50.2202643 293.03667,50.2202643 C293.312258,50.2202643 293.535545,50.6155878 293.535545,51.1013216 Z" id="Path" fill="#CEC7C2" opacity="0.53" style="mix-blend-mode: screen;"></path>
                <path d="M308.508446,149.765971 C308.244755,153.839719 304.331667,156.977551 299.70823,156.822701 C295.084793,156.667851 291.452834,153.277317 291.54025,149.197666 C291.627666,145.118015 295.40228,141.850913 300.02905,141.85022 C304.847456,141.974422 308.641637,145.516395 308.508446,149.765971 Z" id="Path" fill="#CEC7C2" style="mix-blend-mode: multiply;"></path>
                <path d="M307.510595,149.250821 C307.293009,152.605684 304.070075,155.189474 300.262515,155.061526 C296.454955,154.933578 293.464312,152.140988 293.536837,148.781251 C293.609361,145.421513 296.718356,142.731278 300.528679,142.731278 C304.496727,142.833946 307.620899,145.751222 307.510595,149.250821 L307.510595,149.250821 Z" id="Path" fill="#CEC7C2"></path>
                <path d="M300.953911,156.817883 C297.68965,156.973444 294.647571,155.357465 293.275165,152.738867 C291.902759,150.120269 292.477178,147.027868 294.725101,144.933099 C296.973024,142.838331 300.440491,142.164226 303.4776,143.231539 C306.51471,144.298853 308.508129,146.892044 308.509343,149.777213 C308.617028,153.559847 305.239316,156.70743 300.953911,156.817883 Z M300.953911,143.49999 C298.037777,143.343836 295.309073,144.774483 294.069626,147.109389 C292.830179,149.444296 293.331118,152.210375 295.333453,154.087969 C297.335788,155.965562 300.433816,156.574243 303.149511,155.623616 C305.865205,154.67299 307.648326,152.355668 307.648172,149.777213 C307.754402,146.415824 304.762002,143.610982 300.953911,143.502535 L300.953911,143.49999 Z" id="Shape" fill="#575157"></path>
                <path d="M305.938648,145.374449 C306.167107,146.054295 306.283437,146.759364 306.284092,147.468171 C306.284092,151.049971 303.432998,153.953419 299.914546,153.953419 C296.740598,153.953419 294.116349,151.585382 293.634421,148.491896 C293.578459,148.813497 293.549202,149.138244 293.546883,149.463568 C293.39959,151.734986 294.696363,153.891438 296.915953,155.066123 C299.135543,156.240808 301.91343,156.240808 304.13302,155.066123 C306.35261,153.891438 307.649383,151.734986 307.50209,149.463568 C307.508313,147.986564 306.958708,146.549097 305.938648,145.374449 L305.938648,145.374449 Z" id="Path" fill="#CEC7C2" style="mix-blend-mode: multiply;"></path>
                <g id="Group" style="mix-blend-mode: multiply;" transform="translate(294.533965, 142.731278)">
                    <polygon id="Path" fill="#CEC7C2" points="2.2259357 11.7971581 10.4144928 1.72225455 8.58770926 0.518879153 0.549861835 10.4722214"></polygon>
                    <path d="M2.29169991,12.3348018 L0,10.5244357 L8.50002365,0 L10.9826224,1.63903808 L2.29169991,12.3348018 Z M1.09515671,10.4151121 L2.15834471,11.2546194 L9.84362292,1.79894423 L8.67996182,1.02959983 L1.09515671,10.4151121 Z" id="Shape" fill="#575157"></path>
                </g>
                <path d="M301.522907,143.810224 C299.174234,143.194 296.668355,144.048313 295.286825,145.936251 C292.631756,149.218641 297.546546,148.697642 301.522907,143.810224 Z" id="Path" fill="#CEC7C2" style="mix-blend-mode: screen;"></path>
                <path d="M294.533965,148.899691 C294.533965,149.384779 294.310049,149.779736 294.034755,149.779736 C293.759461,149.779736 293.535545,149.384779 293.535545,148.899691 C293.535545,148.414603 293.757927,148.017621 294.034755,148.017621 C294.311583,148.017621 294.533965,148.412578 294.533965,148.899691 Z" id="Path" fill="#CEC7C2" opacity="0.53" style="mix-blend-mode: screen;"></path>
                <polygon id="Path" fill="#CEC7C2" style="mix-blend-mode: screen;" points="277.482768 140.969163 271.5703 25.0521073 301.16171 1.76211454 322.489731 20.0273084 300.598127 6.43690676 275.3841 26.0231472"></polygon>
                <polygon id="Path" fill="#B5A8A0" points="547.37683 0.881057269 554.814217 0.881057269 583.077409 25.0835799 583.077409 200 546.135861 200"></polygon>
                <path d="M583.077409,200 L546.135861,200 L546.135861,199.626013 L547.351007,0 L555.196805,0 L555.315848,0.104716393 L583.074662,24.432994 L583.077409,200 Z M546.961831,199.252026 L582.256934,199.252026 L582.256934,24.7512986 L554.868066,0.745480989 L548.169652,0.745480989 L546.961831,199.252026 Z" id="Shape" fill="#575157"></path>
                <polygon id="Path" fill="#CEC7C2" points="516.183254 25.0835799 546.874589 0.881057269 575.090047 25.0835799 575.090047 200 525.092858 200"></polygon>
                <path d="M576.088468,200 L525.994328,200 L525.975893,199.64454 L517.181675,24.5491352 L517.330073,24.4320329 L547.872493,0 L576.088468,24.5516268 L576.088468,200 Z M526.783328,199.252538 L575.266285,199.252538 L575.266285,24.8713743 L547.849449,1.01405643 L518.025979,24.8713743 L526.783328,199.252538 Z" id="Shape" fill="#575157"></path>
                <path d="M555.121643,51.9819705 C555.121643,56.8489186 550.87516,60.7929515 545.636185,60.7929515 C540.397211,60.7929515 536.151659,56.8489186 536.151659,51.9819705 C536.151659,47.1150224 540.397211,43.1718062 545.636185,43.1718062 C550.87516,43.1718062 555.121643,47.1158391 555.121643,51.9819705 Z" id="Path" fill="#CEC7C2" style="mix-blend-mode: multiply;"></path>
                <path d="M553.121559,50.6222723 C552.873142,54.4567212 549.189462,57.4099323 544.837635,57.2635049 C540.485808,57.1170776 537.067987,53.92492 537.15158,50.0849252 C537.235173,46.2449305 540.789404,43.1708175 545.144397,43.1718062 C549.678408,43.2898562 553.247715,46.6234981 553.121559,50.6222723 Z" id="Path" fill="#CEC7C2"></path>
                <path d="M545.626674,59.0189409 C541.953578,59.1962124 538.529122,57.3793347 536.983447,54.4331947 C535.437773,51.4870547 536.083191,48.006935 538.612464,45.6494746 C541.141737,43.2920141 545.043813,42.5335497 548.461188,43.7351326 C551.878564,44.9367155 554.120741,47.8555599 554.120379,51.1022102 C554.242046,55.3550944 550.444829,58.8943683 545.626674,59.0189409 Z M545.626674,43.9378926 C542.299032,43.7600521 539.185478,45.3928045 537.771311,48.0572565 C536.357145,50.7217085 536.928864,53.8780649 539.213735,56.0206073 C541.498605,58.1631498 545.033731,58.8578175 548.132705,57.7732241 C551.231678,56.6886307 553.266675,54.0445054 553.266912,51.1022102 C553.388775,47.265098 549.973681,44.062735 545.626674,43.9378926 L545.626674,43.9378926 Z" id="Shape" fill="#575157"></path>
                <path d="M551.326784,45.814978 C551.58764,46.6071854 551.720464,47.4287879 551.721207,48.2547457 C551.721207,52.4326266 548.46133,55.8186161 544.440845,55.8186161 C540.813843,55.8186161 537.813777,53.0583811 537.26309,49.4480645 C537.200195,49.8238802 537.166852,50.2031904 537.163308,50.5831933 C536.993158,53.2334706 538.474712,55.7503358 541.012054,57.1214466 C543.549395,58.4925574 546.725486,58.4925574 549.262828,57.1214466 C551.80017,55.7503358 553.281724,53.2334706 553.111574,50.5831933 C553.119251,48.8610365 552.491828,47.1848219 551.326784,45.814978 Z" id="Path" fill="#CEC7C2" style="mix-blend-mode: multiply;"></path>
                <g id="Group" style="mix-blend-mode: multiply;" transform="translate(539.146919, 44.052863)">
                    <polygon id="Path" fill="#CEC7C2" points="2.5813444 13.5516177 12.3870075 1.91060734 10.2038237 0.519724793 0.574270166 12.019667"></polygon>
                    <path d="M2.65121393,14.0969163 L0,12.0741144 L10.108112,0 L12.9794629,1.83141118 L2.65121393,14.0969163 Z M1.14758322,11.9652197 L2.51147486,13.0046693 L11.7888094,1.99062845 L10.295707,1.03944959 L1.14758322,11.9652197 Z" id="Shape" fill="#575157"></path>
                </g>
                <path d="M546.135861,45.1322774 C543.787747,44.5153957 541.282011,45.3687091 539.899344,47.2560855 C537.24541,50.5410571 542.159057,50.0190897 546.135861,45.1322774 Z" id="Path" fill="#CEC7C2" style="mix-blend-mode: screen;"></path>
                <path d="M540.14534,51.1013216 C540.14534,51.5879417 539.920193,51.9823789 539.64613,51.9823789 C539.372067,51.9823789 539.146919,51.5879417 539.146919,51.1013216 C539.146919,50.6147014 539.369386,50.2202643 539.64613,50.2202643 C539.922873,50.2202643 540.14534,50.6155878 540.14534,51.1013216 Z" id="Path" fill="#CEC7C2" opacity="0.53" style="mix-blend-mode: screen;"></path>
                <path d="M556.11666,149.765971 C555.852954,153.839935 551.939481,156.977842 547.315811,156.822679 C542.692141,156.667517 539.060378,153.276405 539.148489,149.196548 C539.2366,145.116691 543.012149,141.849999 547.639166,141.85022 C552.456821,141.975327 556.249862,145.517031 556.11666,149.765971 L556.11666,149.765971 Z" id="Path" fill="#CEC7C2" style="mix-blend-mode: multiply;"></path>
                <path d="M554.120417,149.250821 C553.902837,152.605576 550.680088,155.18933 546.872636,155.061536 C543.065184,154.933743 540.074439,152.14144 540.146619,148.781804 C540.218799,145.422169 543.327337,142.731783 547.137545,142.731278 C551.105743,142.833949 554.230191,145.751084 554.120417,149.250821 L554.120417,149.250821 Z" id="Path" fill="#CEC7C2"></path>
                <path d="M546.56522,156.817883 C543.300985,156.973444 540.258929,155.357465 538.886533,152.738867 C537.514138,150.120269 538.088553,147.027868 540.336459,144.933099 C542.584364,142.838331 546.051805,142.164226 549.088891,143.231539 C552.125977,144.298853 554.119381,146.892044 554.120595,149.777213 C554.230944,153.56075 550.851759,156.70973 546.56522,156.817883 Z M546.56522,143.49999 C543.649168,143.344188 540.920766,144.775076 539.681637,147.11003 C538.442508,149.444983 538.943702,152.210934 540.946117,154.088348 C542.948532,155.965762 546.046475,156.57427 548.762029,155.623575 C551.477583,154.67288 553.26057,152.355596 553.260392,149.777213 C553.366614,146.415504 550.373663,143.610526 546.56522,143.502535 L546.56522,143.49999 Z" id="Shape" fill="#575157"></path>
                <path d="M552.549853,145.374449 C552.77677,146.054087 552.892447,146.758562 552.893415,147.466749 C552.893415,151.046118 550.042321,153.947594 546.52387,153.947594 C543.349923,153.947594 540.725674,151.581165 540.242805,148.48978 C540.188403,148.811295 540.159781,149.135762 540.15715,149.460792 C540.006708,151.732233 541.302662,153.889945 543.523409,155.065483 C545.744156,156.241021 548.524407,156.241021 550.745154,155.065483 C552.9659,153.889945 554.261854,151.732233 554.111413,149.460792 C554.117894,147.985022 553.568988,146.548627 552.549853,145.374449 L552.549853,145.374449 Z" id="Path" fill="#CEC7C2" style="mix-blend-mode: multiply;"></path>
                <g id="Group" style="mix-blend-mode: multiply;" transform="translate(541.143760, 142.731278)">
                    <polygon id="Path" fill="#CEC7C2" points="2.22556551 11.7971581 10.4127608 1.72225455 8.58628107 0.518879153 0.54520419 10.4722214"></polygon>
                    <path d="M2.29223202,12.3348018 L0,10.5244357 L8.49952328,0 L10.9826224,1.63903808 L2.29223202,12.3348018 Z M1.09588782,10.4151121 L2.158899,11.2546194 L9.8428991,1.79894423 L8.67943153,1.02959983 L1.09588782,10.4151121 Z" id="Shape" fill="#575157"></path>
                </g>
                <path d="M548.132701,143.810152 C545.783813,143.194082 543.27783,144.048332 541.895792,145.936215 C539.242895,149.218662 544.155437,148.697654 548.132701,143.810152 Z" id="Path" fill="#CEC7C2" style="mix-blend-mode: screen;"></path>
                <path d="M542.14218,148.899691 C542.14218,149.384779 541.918264,149.779736 541.643737,149.779736 C541.36921,149.779736 541.14376,149.384779 541.14376,148.899691 C541.14376,148.414603 541.367676,148.017621 541.643737,148.017621 C541.919798,148.017621 542.14218,148.412578 542.14218,148.899691 Z" id="Path" fill="#CEC7C2" opacity="0.53" style="mix-blend-mode: screen;"></path>
                <polygon id="Path" fill="#CEC7C2" style="mix-blend-mode: screen;" points="524.096598 140.969163 518.180095 25.0521073 547.769173 1.76211454 569.099526 20.0273084 547.212216 6.43607539 522.000037 26.0223158"></polygon>
                <polygon id="Path" fill="#B5A8A0" points="424.57108 0.881057269 432.009963 0.881057269 460.271722 25.0835799 460.271722 200 423.330174 200"></polygon>
                <path d="M460.271722,200 L423.330174,200 L423.330174,199.626013 L424.54532,0 L432.391118,0 L432.51016,0.104716393 L460.269891,24.432994 L460.271722,200 Z M424.155228,199.252026 L459.451246,199.252026 L459.451246,24.7512986 L432.062379,0.745480989 L425.362133,0.745480989 L424.155228,199.252026 Z" id="Shape" fill="#575157"></path>
                <polygon id="Path" fill="#CEC7C2" points="394.375987 25.0835799 425.06777 0.881057269 453.28278 25.0835799 453.28278 200 403.286384 200"></polygon>
                <path d="M452.28436,200 L402.189436,200 L402.171002,199.64454 L393.377567,24.5491352 L393.525968,24.4320329 L424.067022,0 L452.28436,24.5516268 L452.28436,200 Z M402.977527,199.252538 L451.461243,199.252538 L451.461243,24.8713743 L424.046744,1.01737849 L394.220963,24.8713743 L402.977527,199.252538 Z" id="Shape" fill="#575157"></path>
                <path d="M431.317536,51.9819705 C431.317536,56.8489186 427.07033,60.7929515 421.831612,60.7929515 C416.592895,60.7929515 412.347551,56.8489186 412.347551,51.9819705 C412.347551,47.1150224 416.593826,43.1718062 421.831612,43.1718062 C427.069399,43.1718062 431.317536,47.1158391 431.317536,51.9819705 Z" id="Path" fill="#CEC7C2" style="mix-blend-mode: multiply;"></path>
                <path d="M429.317452,50.6222722 C429.069042,54.4566136 425.385553,57.4097881 421.033841,57.2635157 C416.68213,57.1172433 413.264212,53.9253719 413.34746,50.085479 C413.430709,46.2455861 416.984477,43.17127 421.339348,43.1718062 C425.873732,43.2894073 429.443603,46.623183 429.317452,50.6222722 Z" id="Path" fill="#CEC7C2"></path>
                <path d="M421.821627,59.0189871 C418.148587,59.1959104 414.724406,57.3787961 413.179035,54.4326114 C411.633664,51.4864266 412.279337,48.006435 414.808706,45.6491522 C417.338076,43.2918693 421.240094,42.5335739 424.657356,43.7352232 C428.074617,44.9368724 430.31668,47.8556784 430.316296,51.1022562 C430.43743,55.3552803 426.639934,58.8944124 421.821627,59.0189871 L421.821627,59.0189871 Z M421.821627,43.9379384 C418.494271,43.7618428 415.382108,45.3957884 413.969469,48.0604734 C412.556829,50.7251585 413.129828,53.8808795 415.415175,56.0225319 C417.700523,58.1641843 421.235348,58.8579992 424.333733,57.7730653 C427.432118,56.6881314 429.466519,54.0441905 429.466639,51.1022562 C429.588467,47.2635558 426.170521,44.0605195 421.821627,43.9379384 L421.821627,43.9379384 Z" id="Shape" fill="#575157"></path>
                <path d="M427.521735,45.814978 C427.782604,46.6071829 427.915428,47.4287871 427.916159,48.2547457 C427.916159,52.4326266 424.657222,55.8186161 420.636738,55.8186161 C417.009736,55.8186161 414.009669,53.0583811 413.458983,49.4480645 C413.396088,49.8238802 413.362745,50.2031904 413.3592,50.5831933 C413.18905,53.2334706 414.670604,55.7503358 417.207946,57.1214466 C419.745288,58.4925574 422.921379,58.4925574 425.458721,57.1214466 C427.996062,55.7503358 429.477616,53.2334706 429.307467,50.5831933 C429.315792,48.860806 428.687937,47.1843238 427.521735,45.814978 L427.521735,45.814978 Z" id="Path" fill="#CEC7C2" style="mix-blend-mode: multiply;"></path>
                <g id="Group" style="mix-blend-mode: multiply;" transform="translate(415.342812, 44.052863)">
                    <polygon id="Path" fill="#CEC7C2" points="2.57962638 13.5515858 12.3814412 1.90989414 10.1989012 0.518930201 0.573143993 12.0195455"></polygon>
                    <path d="M2.64947532,14.0969163 L0,12.073996 L10.1041746,0 L12.9794629,1.83151836 L2.64947532,14.0969163 Z M1.14724482,11.9650949 L2.51073429,13.0046054 L11.7853332,1.98991995 L10.2917142,1.03868541 L1.14724482,11.9650949 Z" id="Shape" fill="#575157"></path>
                </g>
                <path d="M423.330174,45.1322774 C420.981684,44.5153957 418.475546,45.3687091 417.092657,47.2560855 C414.440119,50.5410571 419.357285,50.0190897 423.330174,45.1322774 Z" id="Path" fill="#CEC7C2" style="mix-blend-mode: screen;"></path>
                <path d="M416.341232,51.1013216 C416.341232,51.5879417 416.116085,51.9823789 415.842022,51.9823789 C415.567959,51.9823789 415.342812,51.5879417 415.342812,51.1013216 C415.342812,50.6147014 415.565279,50.2202643 415.842022,50.2202643 C416.118765,50.2202643 416.341232,50.6155878 416.341232,51.1013216 Z" id="Path" fill="#CEC7C2" opacity="0.53" style="mix-blend-mode: screen;"></path>
                <path d="M432.312552,149.765971 C432.048847,153.839935 428.135374,156.977842 423.511704,156.822679 C418.888034,156.667517 415.256271,153.276405 415.344382,149.196548 C415.432493,145.116691 419.208042,141.849999 423.835058,141.85022 C428.652713,141.975327 432.445754,145.517031 432.312552,149.765971 Z" id="Path" fill="#CEC7C2" style="mix-blend-mode: multiply;"></path>
                <path d="M430.316282,149.251699 C430.098167,152.606307 426.875207,155.189614 423.067897,155.061514 C419.260587,154.933415 416.270179,152.141056 416.342517,148.781544 C416.414856,145.422032 419.523317,142.731809 423.333397,142.731278 C427.301996,142.83396 430.426601,145.751629 430.316282,149.251699 Z" id="Path" fill="#CEC7C2"></path>
                <path d="M422.763099,156.817791 C419.498715,156.974054 416.45607,155.358552 415.083049,152.740044 C413.710027,150.121536 414.283935,147.028876 416.53167,144.93375 C418.779406,142.838623 422.246999,142.164177 425.284347,143.231357 C428.321695,144.298537 430.315352,146.891806 430.316609,149.777121 C430.424306,153.559112 427.047746,156.706423 422.763099,156.817791 Z M422.763099,143.499898 C419.846849,143.34304 417.117582,144.773205 415.877518,147.108017 C414.637454,149.442828 415.137877,152.209164 417.14002,154.087117 C419.142162,155.96507 422.240314,156.574095 424.956247,155.623606 C427.672181,154.673118 429.455544,152.355722 429.455438,149.777121 C429.561682,146.416373 426.570431,143.611803 422.763099,143.502443 L422.763099,143.499898 Z" id="Shape" fill="#575157"></path>
                <path d="M428.746006,145.374449 C428.973723,146.054477 429.089741,146.759544 429.090555,147.468339 C429.090555,151.050427 426.238136,153.954109 422.71921,153.954109 C419.545775,153.954109 416.921173,151.585881 416.438238,148.492147 C416.383845,148.813908 416.355219,149.138621 416.352572,149.463897 C416.205269,151.735196 417.502038,153.89154 419.721633,155.066167 C421.941227,156.240793 424.719121,156.240793 426.938715,155.066167 C429.158309,153.89154 430.455079,151.735196 430.307776,149.463897 C430.313766,147.987076 429.764838,146.549724 428.746006,145.374449 Z" id="Path" fill="#CEC7C2" style="mix-blend-mode: multiply;"></path>
                <g id="Group" style="mix-blend-mode: multiply;" transform="translate(417.339652, 142.731278)">
                    <polygon id="Path" fill="#CEC7C2" points="2.22538047 11.7971581 10.411895 1.72225455 8.59013297 0.518879153 0.549724678 10.4722214"></polygon>
                    <path d="M2.2929546,12.3348018 L0,10.5244357 L8.49972974,0 L10.9826224,1.63903808 L2.2929546,12.3348018 Z M1.09762303,10.4151121 L2.15963266,11.2546194 L9.84299386,1.79894423 L8.67962303,1.02959983 L1.09762303,10.4151121 Z" id="Shape" fill="#575157"></path>
                </g>
                <path d="M425.327014,143.810078 C422.978087,143.194147 420.472116,144.048424 419.090224,145.936179 C416.436935,149.218683 421.350202,148.697666 425.327014,143.810078 Z" id="Path" fill="#CEC7C2" style="mix-blend-mode: screen;"></path>
                <path d="M418.338073,148.899691 C418.338073,149.384779 418.114157,149.779736 417.839629,149.779736 C417.565102,149.779736 417.339652,149.384779 417.339652,148.899691 C417.339652,148.414603 417.563569,148.017621 417.839629,148.017621 C418.11569,148.017621 418.338073,148.412578 418.338073,148.899691 Z" id="Path" fill="#CEC7C2" opacity="0.53" style="mix-blend-mode: screen;"></path>
                <polygon id="Path" fill="#CEC7C2" style="mix-blend-mode: screen;" points="401.290911 140.969163 395.374408 25.0521073 424.962548 1.76211454 446.293839 20.0273084 424.406528 6.43690676 399.194349 26.0231472"></polygon>
                <path d="M139.778831,35.2422907 L89.8578199,35.2422907 L89.8578199,76.6519824 L114.818325,76.6519824 C114.818325,76.6519824 100.135077,75.217749 97.5650693,72.180549 C94.9950617,69.1433489 93.8949506,37.1051068 139.778831,35.2422907 Z" id="Path" fill="#CEC7C2" opacity="0.56" style="mix-blend-mode: multiply;"></path>
                <path d="M263.582938,35.2422907 L213.661927,35.2422907 L213.661927,76.6519824 L238.622433,76.6519824 C238.622433,76.6519824 223.939184,75.217749 221.370101,72.180549 C218.801018,69.1433489 217.699058,37.1051068 263.582938,35.2422907 Z" id="Path" fill="#CEC7C2" opacity="0.56" style="mix-blend-mode: multiply;"></path>
                <path d="M386.388626,35.2422907 L336.467615,35.2422907 L336.467615,76.6519824 L361.42812,76.6519824 C361.42812,76.6519824 346.744872,75.217749 344.175788,72.180549 C341.606705,69.1433489 340.503821,37.1051068 386.388626,35.2422907 Z" id="Path" fill="#CEC7C2" opacity="0.56" style="mix-blend-mode: multiply;"></path>
                <path d="M510.192733,35.2422907 L460.271722,35.2422907 L460.271722,76.6519824 L485.232227,76.6519824 C485.232227,76.6519824 470.549903,75.217749 467.979896,72.180549 C465.409888,69.1433489 464.307928,37.1051068 510.192733,35.2422907 Z" id="Path" fill="#CEC7C2" opacity="0.56" style="mix-blend-mode: multiply;"></path>
                <path d="M622.015798,35.2422907 L582.078989,35.2422907 L582.078989,76.6519824 L607.224008,76.6519824 C607.224008,76.6519824 592.432218,75.217749 589.844143,72.180549 C587.256069,69.1433489 575.792734,37.1051068 622.015798,35.2422907 Z" id="Path" fill="#CEC7C2" opacity="0.56" style="mix-blend-mode: multiply;"></path>
                <g id="Group" opacity="0.56" style="mix-blend-mode: multiply;" transform="translate(89.857820, 137.444934)" fill="#CEC7C2">
                    <path d="M11.5585168,19.9422005 C20.1311929,5.06293116 55.9115324,0 55.9115324,0 L0,0 L0,32.5991189 L24.0134428,32.5991189 C16.2442497,32.0979846 5.94164456,29.6905743 11.5585168,19.9422005 Z" id="Path"></path>
                </g>
                <g id="Group" opacity="0.56" style="mix-blend-mode: multiply;" transform="translate(213.661927, 137.444934)" fill="#CEC7C2">
                    <path d="M11.5540487,19.9422005 C20.1285272,5.06293116 55.9115324,0 55.9115324,0 L0,0 L0,32.5991189 L24.0149231,32.5991189 C16.2411924,32.0979846 5.93661066,29.6905743 11.5540487,19.9422005 Z" id="Path"></path>
                </g>
                <g id="Group" opacity="0.56" style="mix-blend-mode: multiply;" transform="translate(336.467615, 137.444934)" fill="#CEC7C2">
                    <path d="M11.5549874,19.9422005 C20.1275884,5.06293116 55.9115324,0 55.9115324,0 L0,0 L0,32.5991189 L24.0168006,32.5991189 C16.2402537,32.0979846 5.9375494,29.6905743 11.5549874,19.9422005 Z" id="Path"></path>
                </g>
                <g id="Group" opacity="0.56" style="mix-blend-mode: multiply;" transform="translate(460.271722, 137.444934)" fill="#CEC7C2">
                    <path d="M11.5549874,19.9422005 C20.1275884,5.06293116 55.9115324,0 55.9115324,0 L0,0 L0,32.5991189 L24.0139844,32.5991189 C16.239315,32.0979846 5.9375494,29.6905743 11.5549874,19.9422005 Z" id="Path"></path>
                </g>
                <g id="Group" opacity="0.56" style="mix-blend-mode: multiply;" transform="translate(582.078989, 137.444934)" fill="#CEC7C2">
                    <path d="M9.92218669,16.2950558 C18.9624637,1.56809205 40.9352291,0 40.9352291,0 L0,0 L0,32.5991189 L9.09088607,32.5991189 C1.32801913,32.0938903 7.80222954,19.7505903 9.92218669,16.2950558 Z" id="Path"></path>
                </g>
            </g>
        </g>
    </g>
</svg>