<?xml version="1.0" encoding="UTF-8"?>
<svg width="640px" height="200px" viewBox="0 0 640 200" version="1.1" xmlns="http://www.w3.org/2000/svg" xmlns:xlink="http://www.w3.org/1999/xlink">
    <title>1C72B035-E47F-4A7A-9F8E-ED6EC2F5FDB2</title>
    <g id="LHRC-Staking" stroke="none" stroke-width="1" fill="none" fill-rule="evenodd">
        <g id="Landing" transform="translate(-1289.000000, -880.000000)" fill-rule="nonzero">
            <g id="Front-Fence-R" transform="translate(1289.000000, 880.000000)">
                <polygon id="Path" fill="#B5A8A0" points="640 75.7709251 8.50060301 75.7709251 1 71.3941827 634.000084 35.2422907 640 40.7115671"></polygon>
                <path d="M640,76.6519824 L8.6358236,76.6519824 L0,71.5927673 L1.24527935,71.5215341 L633.750962,35.2422907 L640,40.957514 L640,76.6519824 Z M8.89337001,75.9065185 L639.154719,75.9065185 L639.154719,41.2623259 L633.416057,36.0092903 L2.54527552,72.1907951 L8.89337001,75.9065185 Z" id="Shape" fill="#575157"></path>
                <rect id="Rectangle" fill="#CEC7C2" x="1" y="35.2422907" width="633" height="36.123348"></rect>
                <path d="M634,72.246696 L0,72.246696 L0,35.2422907 L634,35.2422907 L634,72.246696 Z M0.846407717,71.5013241 L633.154537,71.5013241 L633.154537,35.9843499 L0.846407717,35.9843499 L0.846407717,71.5013241 Z" id="Shape" fill="#575157"></path>
                <polygon id="Path" fill="#B5A8A0" points="640 170.92511 8.50060301 170.92511 1 166.468039 634.000084 137.444934 640 143.014591"></polygon>
                <path d="M640,170.92511 L8.65908933,170.92511 L0,165.889557 L1.27353422,165.831999 L633.753079,137.444934 L640,143.118564 L640,170.92511 Z M8.91662625,170.185071 L639.154751,170.185071 L639.154751,143.411291 L633.41347,138.194018 L2.58951958,166.507079 L8.91662625,170.185071 Z" id="Shape" fill="#575157"></path>
                <rect id="Rectangle" fill="#CEC7C2" x="1" y="137.444934" width="633" height="29.0748899"></rect>
                <path d="M634,166.519824 L0,166.519824 L0,137.444934 L634,137.444934 L634,166.519824 Z M0.846407717,165.780799 L633.154537,165.780799 L633.154537,138.176569 L0.846407717,138.176569 L0.846407717,165.780799 Z" id="Shape" fill="#575157"></path>
                <polygon id="Path" fill="#B5A8A0" points="55.2419948 0.881057269 62.6920873 0.881057269 91 25.0835799 91 200 54 200"></polygon>
                <path d="M91,200 L53,200 L53,199.625183 L54.2499938,0 L62.3198483,0 L62.4432463,0.104715958 L90.9981161,24.4328924 L91,200 Z M53.8487147,199.252029 L90.1559951,199.252029 L90.1559951,24.7487025 L61.9816812,0.742984654 L55.0911728,0.742984654 L53.8487147,199.252029 Z" id="Shape" fill="#575157"></path>
                <polygon id="Path" fill="#CEC7C2" points="24 25.0835799 54.7398971 0.881057269 83 25.0835799 83 200 32.9246373 200"></polygon>
                <path d="M84,200 L32.9755426,200 L32.9567653,199.64454 L24,24.5491352 L24.1502183,24.4320329 L55.2594864,0 L84,24.5516268 L84,200 Z M33.7792104,199.252538 L83.1550221,199.252538 L83.1550221,24.8680522 L55.2313205,1.01405643 L24.8553054,24.8705438 L33.7792104,199.252538 Z" id="Shape" fill="#575157"></path>
                <path d="M62,51.1009132 C62,55.9678613 57.7453501,59.9118943 52.4986014,59.9118943 C47.2518526,59.9118943 43,55.9678613 43,51.1009132 C43,46.2339651 47.252785,42.2907489 52.4986014,42.2907489 C57.7444177,42.2907489 62,46.2347819 62,51.1009132 Z" id="Path" fill="#CEC7C2" style="mix-blend-mode: multiply;"></path>
                <path d="M60.9968315,50.6214418 C60.7485419,54.4558155 57.0596032,57.4093757 52.7009723,57.2635472 C48.3423415,57.1177188 44.9185878,53.9261864 45.0014736,50.0862787 C45.0843595,46.2463711 48.6433716,43.1718062 53.0051478,43.1718062 C57.5462468,43.2898648 61.1215964,46.6227109 60.9968315,50.6214418 L60.9968315,50.6214418 Z" id="Path" fill="#CEC7C2"></path>
                <path d="M52.4881381,59.0190307 C48.8095274,59.1956164 45.3803348,57.3784568 43.8327075,54.4324411 C42.2850801,51.4864253 42.9316644,48.0066976 45.4647143,45.6494575 C47.9977642,43.2922174 51.9055614,42.5336667 55.3281639,43.7348426 C58.7507663,44.9360185 60.9967513,47.8542635 60.9971274,51.1006195 C61.1195288,55.3545978 57.3151805,58.8949001 52.4881381,59.0190307 L52.4881381,59.0190307 Z M52.4881381,43.9363827 C49.1548532,43.7588678 46.0362599,45.3921211 44.6200656,48.0570084 C43.2038713,50.7218957 43.7769858,53.8785318 46.0660081,56.0210612 C48.3550304,58.1635905 51.8962225,58.8579536 55.0002787,57.7729084 C58.1043349,56.6878632 60.1423979,54.0432313 60.1422211,51.1006195 C60.2642752,47.2629293 56.8427061,44.0603338 52.4881381,43.9363827 L52.4881381,43.9363827 Z" id="Shape" fill="#575157"></path>
                <path d="M59.1977235,45.814978 C59.4589925,46.6077151 59.5920266,47.4298669 59.5927712,48.2563769 C59.5927712,52.4370511 56.3286777,55.8253044 52.301831,55.8253044 C48.6690891,55.8253044 45.665218,53.0632239 45.1127169,49.4504936 C45.0493093,49.8262349 45.0159112,50.2055444 45.0127764,50.5855374 C44.8455377,53.2359707 46.330262,55.7517095 48.8704493,57.1220353 C51.4106366,58.4923612 54.5893634,58.4923612 57.1295507,57.1220353 C59.669738,55.7517095 61.1544623,53.2359707 60.9872236,50.5855374 C60.9941635,48.8623218 60.3650877,47.1852928 59.1977235,45.814978 Z" id="Path" fill="#CEC7C2" style="mix-blend-mode: multiply;"></path>
                <g id="Group" style="mix-blend-mode: multiply;" transform="translate(46.000000, 44.052863)">
                    <polygon id="Path" fill="#CEC7C2" points="2.58754147 13.5515858 12.4048655 1.90989414 10.2188721 0.518930201 0.575967564 12.0187205"></polygon>
                    <path d="M2.65750092,14.0969163 L0,12.073996 L10.1249539,0 L13,1.83151836 L2.65750092,14.0969163 Z M1.15193513,11.9642699 L2.51662366,13.0046054 L11.8068559,1.98991995 L10.3118319,1.03868541 L1.15193513,11.9642699 Z" id="Shape" fill="#575157"></path>
                </g>
                <path d="M54,45.1319358 C51.6479838,44.515723 49.1384011,45.3690361 47.7536149,47.2558436 C45.0954817,50.5396463 50.0169037,50.0212862 54,45.1319358 Z" id="Path" fill="#CEC7C2" style="mix-blend-mode: screen;"></path>
                <path d="M47,51.1013216 C47,51.5879417 46.77636,51.9823789 46.5003358,51.9823789 C46.2243116,51.9823789 46,51.5879417 46,51.1013216 C46,50.6147014 46.2243116,50.2202643 46.5003358,50.2202643 C46.77636,50.2202643 47,50.6173606 47,51.1013216 Z" id="Path" fill="#CEC7C2" opacity="0.53" style="mix-blend-mode: screen;"></path>
                <path d="M62.9966194,149.765085 C62.7330449,153.83909 58.8137857,156.97741 54.1827732,156.822712 C49.5517606,156.668015 45.9138123,153.277248 46.0015543,149.19737 C46.0892963,145.117492 49.8704281,141.850429 54.5047721,141.85022 C59.3300212,141.974864 63.1294759,145.516163 62.9966194,149.765085 L62.9966194,149.765085 Z" id="Path" fill="#CEC7C2" style="mix-blend-mode: multiply;"></path>
                <path d="M60.9971615,149.250821 C60.7792241,152.605791 57.5509993,155.189618 53.7372994,155.061515 C49.9235995,154.933412 46.928322,152.140536 47.0013058,148.780697 C47.0742896,145.420858 50.188668,142.730877 54.0051419,142.731278 C57.9790962,142.834395 61.1076455,145.751537 60.9971615,149.250821 L60.9971615,149.250821 Z" id="Path" fill="#CEC7C2"></path>
                <path d="M53.4310657,155.936779 C50.1615785,156.092691 47.1144023,154.476951 45.7395166,151.858398 C44.3646308,149.239845 44.9397031,146.147315 47.1910889,144.052367 C49.4424747,141.95742 52.9154912,141.283144 55.9575257,142.350391 C58.9995603,143.417637 60.996253,146.010868 60.9974905,148.89611 C61.1053518,152.678423 57.722872,155.82587 53.4310657,155.936779 Z M53.4310657,142.618887 C50.5102599,142.462381 47.7769563,143.892787 46.5352389,146.227646 C45.2935216,148.562505 45.7949952,151.328712 47.8004021,153.206486 C49.8058091,155.084259 52.908801,155.693111 55.6289121,154.742554 C58.3490231,153.791997 60.1350871,151.474638 60.1349566,148.89611 C60.2413614,145.535041 57.2448027,142.730336 53.4310657,142.621432 L53.4310657,142.618887 Z" id="Shape" fill="#575157"></path>
                <path d="M59.4236706,145.374449 C59.6521852,146.054333 59.7683818,146.759403 59.768719,147.468171 C59.768719,151.049971 56.9131135,153.953419 53.3890946,153.953419 C50.2110669,153.953419 47.5817227,151.585382 47.099032,148.491896 C47.0429683,148.813496 47.0136656,149.138243 47.0113558,149.463568 C46.86383,151.734986 48.1626544,153.891438 50.3857567,155.066123 C52.6088591,156.240808 55.3911409,156.240808 57.6142433,155.066123 C59.8373456,153.891438 61.13617,151.734986 60.9886442,149.463568 C60.9953591,147.98663 60.4451978,146.549114 59.4236706,145.374449 Z" id="Path" fill="#CEC7C2" style="mix-blend-mode: multiply;"></path>
                <g id="Group" style="mix-blend-mode: multiply;" transform="translate(48.000000, 142.731278)">
                    <polygon id="Path" fill="#CEC7C2" points="2.22835759 11.7947106 10.430104 1.71980701 8.60058212 0.51643161 0.546112266 10.4697739"></polygon>
                    <path d="M2.29513514,12.3348018 L0,10.5244357 L8.51276507,0 L11,1.63903808 L2.29513514,12.3348018 Z M1.09679834,10.4151121 L2.16158004,11.2546194 L9.85837838,1.79894423 L8.69297297,1.02959983 L1.09679834,10.4151121 Z" id="Shape" fill="#575157"></path>
                </g>
                <path d="M55,143.770646 C52.9840097,143.277667 50.8330817,143.961117 49.6472409,145.471468 C47.365576,148.09738 51.5868793,147.680581 55,143.770646 Z" id="Path" fill="#CEC7C2" style="mix-blend-mode: screen;"></path>
                <path d="M49,148.899691 C49,149.384779 48.7751343,149.779736 48.4996163,149.779736 C48.2240982,149.779736 48,149.384779 48,148.899691 C48,148.414603 48.2240982,148.017621 48.4996163,148.017621 C48.7751343,148.017621 49,148.412578 49,148.899691 Z" id="Path" fill="#CEC7C2" opacity="0.53" style="mix-blend-mode: screen;"></path>
                <polygon id="Path" fill="#CEC7C2" style="mix-blend-mode: screen;" points="30.9243136 140.969163 25 25.0521073 54.6347163 1.76211454 76 20.0273084 54.0759074 6.43690676 28.8233799 26.0231472"></polygon>
                <polygon id="Path" fill="#B5A8A0" points="180.240182 0.881057269 187.689714 0.881057269 216 25.0835799 216 200 179 200"></polygon>
                <path d="M216,200 L178,200 L178,199.625183 L179.249994,0 L187.32079,0 L187.443246,0.104715958 L215.998116,24.4328924 L216,200 Z M178.848715,199.252029 L215.152227,199.252029 L215.152227,24.7487025 L186.977913,0.742984654 L180.087405,0.742984654 L178.848715,199.252029 Z" id="Shape" fill="#575157"></path>
                <polygon id="Path" fill="#CEC7C2" points="149 25.0835799 179.739 0.881057269 208 25.0835799 208 200 157.923048 200"></polygon>
                <path d="M208,200 L156.974604,200 L156.956765,199.64454 L148,24.5491352 L148.151157,24.4320329 L179.260425,0 L208,24.5516268 L208,200 Z M157.778272,199.252538 L207.162533,199.252538 L207.162533,24.8680522 L179.237893,1.01405643 L148.862816,24.8705438 L157.778272,199.252538 Z" id="Shape" fill="#575157"></path>
                <path d="M187,51.1009132 C187,55.9678613 182.74535,59.9118943 177.499534,59.9118943 C172.253717,59.9118943 168,55.9678613 168,51.1009132 C168,46.2339651 172.252785,42.2907489 177.499534,42.2907489 C182.746283,42.2907489 187,46.2347819 187,51.1009132 Z" id="Path" fill="#CEC7C2" style="mix-blend-mode: multiply;"></path>
                <path d="M184.996805,50.6214417 C184.748508,54.4559229 181.059384,57.4095198 176.700645,57.2635365 C172.341906,57.1175532 168.918255,53.9257345 169.001486,50.0857249 C169.084717,46.2457153 172.644187,43.1712441 177.006078,43.1718062 C181.547027,43.2898618 185.1221,46.6228492 184.996805,50.6214417 Z" id="Path" fill="#CEC7C2"></path>
                <path d="M177.486243,59.0191225 C173.80775,59.195012 170.379114,57.3773796 168.832096,54.4312744 C167.285078,51.4851692 167.932171,48.0056977 170.465411,45.6488128 C172.99865,43.291928 176.906328,42.5337151 180.328698,43.7350236 C183.751068,44.936332 185.996819,47.8545001 185.997153,51.100711 C186.119013,55.355148 182.313814,58.8954433 177.486243,59.0191225 L177.486243,59.0191225 Z M177.486243,43.936474 C174.15307,43.7596571 171.035032,45.3933879 169.619448,48.0583685 C168.203864,50.7233492 168.777492,53.8797312 171.066707,56.0219045 C173.355923,58.1640779 176.896997,58.8580998 180.00082,57.7729183 C183.104643,56.6877368 185.142469,54.0431785 185.142245,51.100711 C185.264286,47.2623854 181.841571,44.0595204 177.486243,43.936474 Z" id="Shape" fill="#575157"></path>
                <path d="M183.198194,45.814978 C183.459007,46.6073287 183.592032,47.4289284 183.593241,48.2549125 C183.593241,52.4330791 180.328206,55.8193001 176.302303,55.8193001 C172.669561,55.8193001 169.665691,53.0588763 169.11319,49.448313 C169.049782,49.8238289 169.016384,50.2029108 169.013249,50.5826759 C168.842831,53.2331344 170.326729,55.7501718 172.868085,57.1213763 C175.409442,58.4925809 178.590558,58.4925809 181.131915,57.1213763 C183.673271,55.7501718 185.157169,53.2331344 184.986751,50.5826759 C184.993961,48.8605919 184.365221,47.1845786 183.198194,45.814978 L183.198194,45.814978 Z" id="Path" fill="#CEC7C2" style="mix-blend-mode: multiply;"></path>
                <g id="Group" style="mix-blend-mode: multiply;" transform="translate(171.000000, 44.052863)">
                    <polygon id="Path" fill="#CEC7C2" points="2.58792303 13.5515858 12.4066947 1.90989414 10.2213375 0.518930201 0.577010986 12.0187205"></polygon>
                    <path d="M2.6578928,14.0969163 L0,12.073996 L10.12453,0 L13,1.83151836 L2.6578928,14.0969163 Z M1.15210499,11.9642699 L2.51891175,13.0046054 L11.8085969,1.98991995 L10.3152695,1.03868541 L1.15210499,11.9642699 Z" id="Shape" fill="#575157"></path>
                </g>
                <path d="M179,45.1318713 C176.64795,44.5157794 174.138378,45.3691165 172.753719,47.2558116 C170.095243,50.5396647 175.017301,50.0212966 179,45.1318713 Z" id="Path" fill="#CEC7C2" style="mix-blend-mode: screen;"></path>
                <ellipse id="Oval" fill="#CEC7C2" opacity="0.53" style="mix-blend-mode: screen;" cx="171.5" cy="51.1013216" rx="1" ry="1"></ellipse>
                <path d="M187.996619,149.765085 C187.733045,153.83909 183.813786,156.97741 179.182773,156.822712 C174.551761,156.668015 170.913812,153.277248 171.001554,149.19737 C171.089296,145.117492 174.870428,141.850429 179.504772,141.85022 C184.330021,141.974864 188.129476,145.516163 187.996619,149.765085 L187.996619,149.765085 Z" id="Path" fill="#CEC7C2" style="mix-blend-mode: multiply;"></path>
                <path d="M185.997163,149.250821 C185.77924,152.605576 182.551397,155.18933 178.737928,155.061536 C174.924459,154.933743 171.928987,152.14144 172.001281,148.781804 C172.073575,145.422169 175.187026,142.731783 179.003256,142.731278 C182.977956,142.833498 186.107636,145.750907 185.997163,149.250821 L185.997163,149.250821 Z" id="Path" fill="#CEC7C2"></path>
                <path d="M178.429141,155.936872 C175.159777,156.092081 172.113168,154.475864 170.738899,151.857221 C169.36463,149.238578 169.940214,146.146306 172.191788,144.051717 C174.443362,141.957128 177.916252,141.283193 180.958047,142.350573 C183.999842,143.417953 185.996297,146.011106 185.997492,148.896202 C186.105341,152.679157 182.721708,155.826877 178.429141,155.936872 Z M178.429141,142.618978 C175.508452,142.463177 172.775713,143.894065 171.534613,146.229018 C170.293514,148.563971 170.795504,151.329923 172.801104,153.207337 C174.806703,155.084751 177.909571,155.693259 180.629443,154.742564 C183.349314,153.791869 185.135136,151.474584 185.134958,148.896202 C185.241349,145.534492 182.243639,142.729514 178.429141,142.621523 L178.429141,142.618978 Z" id="Shape" fill="#575157"></path>
                <path d="M184.423671,145.374449 C184.652134,146.054343 184.76833,146.759406 184.768719,147.468171 C184.768719,151.049971 181.913114,153.953419 178.389095,153.953419 C175.210124,153.953419 172.581723,151.585382 172.098089,148.491896 C172.043314,148.813613 172.014332,149.138299 172.011356,149.463568 C171.86383,151.734986 173.162654,153.891438 175.385757,155.066123 C177.608859,156.240808 180.391141,156.240808 182.614243,155.066123 C184.837346,153.891438 186.13617,151.734986 185.988644,149.463568 C185.996137,147.98652 185.445894,146.548791 184.423671,145.374449 Z" id="Path" fill="#CEC7C2" style="mix-blend-mode: multiply;"></path>
                <g id="Group" style="mix-blend-mode: multiply;" transform="translate(173.000000, 142.731278)">
                    <polygon id="Path" fill="#CEC7C2" points="2.23110187 11.7947106 10.4319335 1.71980701 8.60241164 0.51643161 0.547941788 10.4697739"></polygon>
                    <path d="M2.29513514,12.3348018 L0,10.5244357 L8.51367983,0 L11,1.63903808 L2.29513514,12.3348018 Z M1.09862786,10.4151121 L2.16158004,11.2546194 L9.85837838,1.79894423 L8.69297297,1.02959983 L1.09862786,10.4151121 Z" id="Shape" fill="#575157"></path>
                </g>
                <path d="M180,143.770646 C177.982839,143.277667 175.830662,143.961117 174.644133,145.471468 C172.369185,148.09738 176.589365,147.680581 180,143.770646 Z" id="Path" fill="#CEC7C2" style="mix-blend-mode: screen;"></path>
                <path d="M174,148.899691 C174,149.384779 173.776498,149.779736 173.500768,149.779736 C173.225038,149.779736 173,149.384779 173,148.899691 C173,148.414603 173.22427,148.017621 173.500768,148.017621 C173.777266,148.017621 174,148.412578 174,148.899691 Z" id="Path" fill="#CEC7C2" opacity="0.53" style="mix-blend-mode: screen;"></path>
                <polygon id="Path" fill="#CEC7C2" style="mix-blend-mode: screen;" points="155.925865 140.969163 150 25.0521073 179.634957 1.76211454 201 20.0273084 179.07524 6.43690676 153.824108 26.0248099"></polygon>
                <polygon id="Path" fill="#B5A8A0" points="305.240182 0.881057269 312.690652 0.881057269 341 25.0835799 341 200 304 200"></polygon>
                <path d="M341,200 L303,200 L303,199.625183 L304.24811,0 L312.317964,0 L312.441362,0.104715958 L340.996232,24.4328924 L341,200 Z M303.848715,199.252029 L340.156937,199.252029 L340.156937,24.7487025 L311.981681,0.742984654 L305.091173,0.742984654 L303.848715,199.252029 Z" id="Shape" fill="#575157"></path>
                <polygon id="Path" fill="#CEC7C2" points="274 25.0835799 304.738512 0.881057269 333 25.0835799 333 200 282.923842 200"></polygon>
                <path d="M333,200 L281.977657,200 L281.958881,199.64454 L273,24.5491352 L273.151145,24.4320329 L304.25798,0 L332.997184,24.5516268 L333,200 Z M282.779384,199.252538 L332.159782,199.252538 L332.159782,24.8680522 L304.236388,1.01405643 L273.863688,24.8705438 L282.779384,199.252538 Z" id="Shape" fill="#575157"></path>
                <path d="M312,51.1009132 C312,55.9678613 307.746283,59.9118943 302.499534,59.9118943 C297.252785,59.9118943 293,55.9678613 293,51.1009132 C293,46.2339651 297.252785,42.2907489 302.499534,42.2907489 C307.746283,42.2907489 312,46.2347819 312,51.1009132 Z" id="Path" fill="#CEC7C2" style="mix-blend-mode: multiply;"></path>
                <path d="M309.996804,50.6223197 C309.747979,54.4565458 306.058829,57.4096595 301.70034,57.2635252 C297.341851,57.1173909 293.918435,53.9258025 294.001479,50.0860179 C294.084524,46.2462334 297.64346,43.1718062 302.005107,43.1718062 C306.546608,43.2898758 310.122115,46.623256 309.996804,50.6223197 L309.996804,50.6223197 Z" id="Path" fill="#CEC7C2"></path>
                <path d="M302.487197,59.0190766 C298.808642,59.1953143 295.379726,57.3779182 293.832402,54.4318577 C292.285078,51.4857972 292.931918,48.0061976 295.465064,45.6491351 C297.998211,43.2920727 301.905951,42.5336909 305.328439,43.7349331 C308.750928,44.9361753 310.996797,47.8543819 310.997152,51.1006653 C311.119019,55.3547836 307.314391,58.894944 302.487197,59.0190766 L302.487197,59.0190766 Z M302.487197,43.9364284 C299.153966,43.7592625 296.035648,45.3927546 294.619758,48.0576886 C293.203868,50.7226226 293.777239,53.8791316 296.06636,56.021483 C298.35548,58.1638343 301.896616,58.8580268 305.000558,57.7729134 C308.104499,56.6878 310.142445,54.0432049 310.142245,51.1006653 C310.264292,47.2626574 306.842148,44.0599272 302.487197,43.9364284 Z" id="Shape" fill="#575157"></path>
                <path d="M308.198454,45.814978 C308.459754,46.6077708 308.592804,47.4299805 308.593548,48.2565487 C308.593548,52.437517 305.328127,55.8260086 301.301749,55.8260086 C297.668579,55.8260086 294.664353,53.0637339 294.11273,49.4507494 C294.049315,49.8265171 294.015913,50.2058533 294.012778,50.585873 C293.845529,53.2361856 295.330251,55.7518139 297.870442,57.1220801 C300.410633,58.4923463 303.589367,58.4923463 306.129558,57.1220801 C308.669749,55.7518139 310.154471,53.2361856 309.987222,50.585873 C309.994504,48.862624 309.365682,47.185467 308.198454,45.814978 Z" id="Path" fill="#CEC7C2" style="mix-blend-mode: multiply;"></path>
                <g id="Group" style="mix-blend-mode: multiply;" transform="translate(296.000000, 44.052863)">
                    <polygon id="Path" fill="#CEC7C2" points="2.58600605 13.5515858 12.4047777 1.90989414 10.2194205 0.518930201 0.574135516 12.0187205"></polygon>
                    <path d="M2.65597582,14.0969163 L0,12.073996 L10.12453,0 L13,1.83151836 L2.65597582,14.0969163 Z M1.15018801,11.9642699 L2.51699477,13.0046054 L11.8066799,1.98991995 L10.3133525,1.03868541 L1.15018801,11.9642699 Z" id="Shape" fill="#575157"></path>
                </g>
                <path d="M304,45.1319358 C301.647867,44.515723 299.13816,45.3690361 297.753305,47.2558436 C295.095951,50.5396463 300.016706,50.0212862 304,45.1319358 Z" id="Path" fill="#CEC7C2" style="mix-blend-mode: screen;"></path>
                <path d="M297,51.1013216 C297,51.5879417 296.77651,51.9823789 296.499329,51.9823789 C296.222148,51.9823789 296,51.5879417 296,51.1013216 C296,50.6147014 296.22349,50.2202643 296.499329,50.2202643 C296.775168,50.2202643 297,50.6173606 297,51.1013216 Z" id="Path" fill="#CEC7C2" opacity="0.53" style="mix-blend-mode: screen;"></path>
                <path d="M312.996619,149.765971 C312.73251,153.839719 308.813225,156.977551 304.182465,156.822701 C299.551705,156.667851 295.913994,153.277317 296.001548,149.197666 C296.089102,145.118015 299.869694,141.850913 304.503792,141.85022 C309.329598,141.974878 313.129491,145.516573 312.996619,149.765971 Z" id="Path" fill="#CEC7C2" style="mix-blend-mode: multiply;"></path>
                <path d="M310.997162,149.250821 C310.779232,152.605684 307.551198,155.189474 303.737614,155.061526 C299.924029,154.933578 296.928655,152.140988 297.001294,148.781251 C297.073932,145.421513 300.187847,142.731278 304.004199,142.731278 C307.978526,142.833946 311.107641,145.751222 310.997162,149.250821 L310.997162,149.250821 Z" id="Path" fill="#CEC7C2"></path>
                <path d="M303.431066,155.936779 C300.161578,156.092691 297.114402,154.476951 295.739517,151.858398 C294.364631,149.239845 294.939703,146.147315 297.191089,144.052367 C299.442475,141.95742 302.915491,141.283144 305.957526,142.350391 C308.99956,143.417637 310.996253,146.010868 310.99749,148.89611 C311.105352,152.678423 307.722872,155.82587 303.431066,155.936779 Z M303.431066,142.618887 C300.51026,142.462381 297.776956,143.892787 296.535239,146.227646 C295.293522,148.562505 295.794995,151.328712 297.800402,153.206486 C299.805809,155.084259 302.908801,155.693111 305.628912,154.742554 C308.349023,153.791997 310.135087,151.474638 310.134957,148.89611 C310.241361,145.535041 307.244803,142.730336 303.431066,142.621432 L303.431066,142.618887 Z" id="Shape" fill="#575157"></path>
                <path d="M309.423671,145.374449 C309.651423,146.054458 309.767293,146.759471 309.767776,147.468171 C309.767776,151.049971 306.912171,153.953419 303.388152,153.953419 C300.209181,153.953419 297.58078,151.585382 297.097147,148.491896 C297.042631,148.813627 297.013964,149.138317 297.011356,149.463568 C296.86383,151.734986 298.162654,153.891438 300.385757,155.066123 C302.608859,156.240808 305.391141,156.240808 307.614243,155.066123 C309.837346,153.891438 311.13617,151.734986 310.988644,149.463568 C310.995359,147.98663 310.445198,146.549114 309.423671,145.374449 L309.423671,145.374449 Z" id="Path" fill="#CEC7C2" style="mix-blend-mode: multiply;"></path>
                <g id="Group" style="mix-blend-mode: multiply;" transform="translate(298.000000, 142.731278)">
                    <polygon id="Path" fill="#CEC7C2" points="2.22762808 11.7947106 10.4291417 1.71980701 8.59946773 0.51643161 0.543413174 10.4697739"></polygon>
                    <path d="M2.29441118,12.3348018 L0,10.5244357 L8.51347305,0 L11,1.63903808 L2.29441118,12.3348018 Z M1.09780439,10.4151121 L2.16175981,11.2546194 L9.85828343,1.79894423 L8.6927811,1.02959983 L1.09780439,10.4151121 Z" id="Shape" fill="#575157"></path>
                </g>
                <path d="M305,143.770646 C302.983552,143.277667 300.832135,143.961117 299.646025,145.471468 C297.367415,148.09738 301.586104,147.680581 305,143.770646 Z" id="Path" fill="#CEC7C2" style="mix-blend-mode: screen;"></path>
                <path d="M299,148.899691 C299,149.384779 298.775307,149.779736 298.5,149.779736 C298.224693,149.779736 298,149.384779 298,148.899691 C298,148.414603 298.223926,148.017621 298.5,148.017621 C298.776074,148.017621 299,148.412578 299,148.899691 Z" id="Path" fill="#CEC7C2" opacity="0.53" style="mix-blend-mode: screen;"></path>
                <polygon id="Path" fill="#CEC7C2" style="mix-blend-mode: screen;" points="280.925974 140.969163 275 25.0521073 304.635503 1.76211454 326 20.0273084 304.077654 6.43690676 278.825117 26.0231472"></polygon>
                <polygon id="Path" fill="#B5A8A0" points="554.242933 0.881057269 561.692087 0.881057269 590 25.0835799 590 200 553 200"></polygon>
                <path d="M591,200 L553,200 L553,199.625183 L554.249963,0 L562.319617,0 L562.443012,0.104715958 L590.996232,24.4328924 L591,200 Z M553.849636,199.252029 L590.156958,199.252029 L590.156958,24.7487025 L561.983342,0.742984654 L555.093005,0.742984654 L553.849636,199.252029 Z" id="Shape" fill="#575157"></path>
                <polygon id="Path" fill="#CEC7C2" points="524 25.0835799 554.739897 0.881057269 583 25.0835799 583 200 532.921828 200"></polygon>
                <path d="M583,200 L531.974604,200 L531.955826,199.64454 L523,24.5491352 L523.149279,24.4320329 L554.259486,0 L583,24.5516268 L583,200 Z M532.778272,199.252538 L582.162533,199.252538 L582.162533,24.8680522 L554.238831,1.01405643 L523.861877,24.8705438 L532.778272,199.252538 Z" id="Shape" fill="#575157"></path>
                <path d="M562,51.1009132 C562,55.9678613 557.745141,59.9118943 552.499068,59.9118943 C547.252994,59.9118943 543,55.9678613 543,51.1009132 C543,46.2339651 547.252061,42.2907489 552.499068,42.2907489 C557.746074,42.2907489 562,46.2347819 562,51.1009132 Z" id="Path" fill="#CEC7C2" style="mix-blend-mode: multiply;"></path>
                <path d="M559.996805,50.6214418 C559.748516,54.4558155 556.059584,57.4093757 551.70096,57.2635472 C547.342336,57.1177188 543.918588,53.9261864 544.001474,50.0862787 C544.084359,46.2463711 547.643366,43.1718062 552.005135,43.1718062 C556.546456,43.2894133 560.122095,46.6225344 559.996805,50.6214418 L559.996805,50.6214418 Z" id="Path" fill="#CEC7C2"></path>
                <path d="M552.489994,59.0189409 C548.811178,59.1962083 545.381374,57.3794197 543.833204,54.4333855 C542.285034,51.4873512 542.931298,48.007303 545.464368,45.6497799 C547.997438,43.2922568 551.905519,42.5335847 555.328325,43.7348994 C558.751131,44.9362141 560.997099,47.8547959 560.997127,51.1013696 C561.119522,55.3545781 557.316148,58.8943701 552.489994,59.0189409 L552.489994,59.0189409 Z M552.489994,43.9378926 C549.157004,43.7600475 546.038462,45.3928889 544.622112,48.0574469 C543.205762,50.7220049 543.778559,53.8784332 546.067244,56.0209134 C548.355928,58.1633936 551.896806,58.8578536 555.000652,57.7729917 C558.104498,56.6881297 560.142464,54.0437414 560.142311,51.1013696 C560.264359,47.264404 556.843723,44.0622828 552.489994,43.9378926 L552.489994,43.9378926 Z" id="Shape" fill="#575157"></path>
                <path d="M558.198666,45.814978 C558.45948,46.6078042 558.592504,47.4298971 558.593714,48.2563769 C558.593714,52.4370511 555.328678,55.8253044 551.301831,55.8253044 C547.669089,55.8253044 544.666161,53.0632239 544.112717,49.4504936 C544.049767,49.8262818 544.016371,50.2055622 544.012776,50.5855374 C543.845538,53.2359707 545.330262,55.7517095 547.870449,57.1220353 C550.410637,58.4923612 553.589363,58.4923612 556.129551,57.1220353 C558.669738,55.7517095 560.154462,53.2359707 559.987224,50.5855374 C559.994929,48.8623484 559.366136,47.1851904 558.198666,45.814978 Z" id="Path" fill="#CEC7C2" style="mix-blend-mode: multiply;"></path>
                <g id="Group" style="mix-blend-mode: multiply;" transform="translate(546.000000, 44.052863)">
                    <polygon id="Path" fill="#CEC7C2" points="2.58159428 13.5515858 12.4027727 1.90989414 10.2151759 0.518930201 0.572302928 12.0187205"></polygon>
                    <path d="M2.65540889,14.0969163 L0,12.073996 L10.1241059,0 L13,1.83151836 L2.65540889,14.0969163 Z M1.14939901,11.9642699 L2.51544871,13.0046054 L11.8074626,1.98991995 L10.3129563,1.03868541 L1.14939901,11.9642699 Z" id="Shape" fill="#575157"></path>
                </g>
                <path d="M554,45.1318713 C551.647514,44.5157794 549.137475,45.3691165 547.75256,47.2558116 C545.096326,50.5396647 550.019298,50.0212966 554,45.1318713 Z" id="Path" fill="#CEC7C2" style="mix-blend-mode: screen;"></path>
                <ellipse id="Oval" fill="#CEC7C2" opacity="0.53" style="mix-blend-mode: screen;" cx="546.5" cy="51.1013216" rx="1" ry="1"></ellipse>
                <path d="M562.996619,149.765971 C562.73251,153.839719 558.813225,156.977551 554.182465,156.822701 C549.551705,156.667851 545.913994,153.277317 546.001548,149.197666 C546.089102,145.118015 549.869694,141.850913 554.503792,141.85022 C559.329598,141.974878 563.129491,145.516573 562.996619,149.765971 Z" id="Path" fill="#CEC7C2" style="mix-blend-mode: multiply;"></path>
                <path d="M560.99716,149.251699 C560.778687,152.606521 557.550244,155.189902 553.736679,155.061493 C549.923114,154.933084 546.928169,152.140152 547.001312,148.780436 C547.074454,145.42072 550.188762,142.730904 554.005114,142.731278 C557.979247,142.834857 561.107665,145.752258 560.99716,149.251699 L560.99716,149.251699 Z" id="Path" fill="#CEC7C2"></path>
                <path d="M553.431066,155.936779 C550.161578,156.092691 547.114402,154.476951 545.739517,151.858398 C544.364631,149.239845 544.939703,146.147315 547.191089,144.052367 C549.442475,141.95742 552.915491,141.283144 555.957526,142.350391 C558.99956,143.417637 560.996253,146.010868 560.99749,148.89611 C561.105352,152.678423 557.722872,155.82587 553.431066,155.936779 L553.431066,155.936779 Z M553.431066,142.618887 C550.51026,142.462381 547.776956,143.892787 546.535239,146.227646 C545.293522,148.562505 545.794995,151.328712 547.800402,153.206486 C549.805809,155.084259 552.908801,155.693111 555.628912,154.742554 C558.349023,153.791997 560.135087,151.474638 560.134957,148.89611 C560.241361,145.535041 557.244803,142.730336 553.431066,142.621432 L553.431066,142.618887 Z" id="Shape" fill="#575157"></path>
                <path d="M559.424401,145.374449 C559.652504,146.054472 559.768707,146.759543 559.769496,147.468339 C559.769496,151.050427 556.914449,153.954109 553.389955,153.954109 C550.210557,153.954109 547.581801,151.585881 547.098102,148.492147 C547.04332,148.81389 547.014333,149.138602 547.011357,149.463897 C546.863821,151.735196 548.162643,153.89154 550.385749,155.066167 C552.608855,156.240793 555.391145,156.240793 557.614251,155.066167 C559.837357,153.89154 561.136179,151.735196 560.988643,149.463897 C560.995771,147.986916 560.445856,146.549255 559.424401,145.374449 Z" id="Path" fill="#CEC7C2" style="mix-blend-mode: multiply;"></path>
                <g id="Group" style="mix-blend-mode: multiply;" transform="translate(548.000000, 142.731278)">
                    <polygon id="Path" fill="#CEC7C2" points="2.23091635 11.7947106 10.431066 1.71980701 8.60169632 0.51643161 0.547896225 10.4697739"></polygon>
                    <path d="M2.2940296,12.3348018 L0,10.5244357 L8.51388658,0 L11,1.63903808 L2.2940296,12.3348018 Z M1.09762182,10.4151121 L2.1614003,11.2546194 L9.85847331,1.79894423 L8.69316481,1.02959983 L1.09762182,10.4151121 Z" id="Shape" fill="#575157"></path>
                </g>
                <path d="M555,143.770589 C552.983367,143.277733 550.831861,143.961132 549.645315,145.471439 C547.36857,148.097396 551.585328,147.68059 555,143.770589 Z" id="Path" fill="#CEC7C2" style="mix-blend-mode: screen;"></path>
                <path d="M549,148.899691 C549,149.384779 548.775134,149.779736 548.499616,149.779736 C548.224098,149.779736 548,149.384779 548,148.899691 C548,148.414603 548.224098,148.017621 548.499616,148.017621 C548.775134,148.017621 549,148.412578 549,148.899691 Z" id="Path" fill="#CEC7C2" opacity="0.53" style="mix-blend-mode: screen;"></path>
                <polygon id="Path" fill="#CEC7C2" style="mix-blend-mode: screen;" points="530.925974 140.969163 525 25.0521073 554.635503 1.76211454 576 20.0273084 554.076715 6.43690676 528.825117 26.0231472"></polygon>
                <polygon id="Path" fill="#B5A8A0" points="430.242901 0.881057269 437.691867 0.881057269 466 25.0835799 466 200 429 200"></polygon>
                <path d="M466,200 L428,200 L428,199.625183 L429.249021,0 L437.319617,0 L437.44207,0.104715958 L465.996232,24.4328924 L466,200 Z M428.849636,199.252029 L465.156016,199.252029 L465.156016,24.7487025 L436.9824,0.742984654 L430.092063,0.742984654 L428.849636,199.252029 Z" id="Shape" fill="#575157"></path>
                <polygon id="Path" fill="#CEC7C2" points="399 25.0835799 429.740346 0.881057269 458 25.0835799 458 200 407.924496 200"></polygon>
                <path d="M458,200 L406.974744,200 L406.955967,199.64454 L398,24.5491352 L398.150221,24.4320329 L429.259976,0 L458,24.5516268 L458,200 Z M407.778425,199.252538 L457.163459,199.252538 L457.163459,24.8680522 L429.23932,1.01405643 L398.86283,24.8705438 L407.778425,199.252538 Z" id="Shape" fill="#575157"></path>
                <path d="M437,51.1009132 C437,55.9678613 432.746283,59.9118943 427.498601,59.9118943 C422.25092,59.9118943 418,55.9678613 418,51.1009132 C418,46.2339651 422.251853,42.2907489 427.498601,42.2907489 C432.74535,42.2907489 437,46.2347819 437,51.1009132 Z" id="Path" fill="#CEC7C2" style="mix-blend-mode: multiply;"></path>
                <path d="M434.996805,50.6214418 C434.748516,54.4558155 431.059584,57.4093757 426.70096,57.2635472 C422.342336,57.1177188 418.918588,53.9261864 419.001474,50.0862787 C419.084359,46.2463711 422.643366,43.1718062 427.005135,43.1718062 C431.546456,43.2894133 435.122095,46.6225344 434.996805,50.6214418 Z" id="Path" fill="#CEC7C2"></path>
                <path d="M427.488138,59.0190307 C423.809527,59.1956164 420.380335,57.3784568 418.832707,54.4324411 C417.28508,51.4864253 417.931664,48.0066976 420.464714,45.6494575 C422.997764,43.2922174 426.905561,42.5336667 430.328164,43.7348426 C433.750766,44.9360185 435.996751,47.8542635 435.997127,51.1006195 C436.119529,55.3545978 432.315181,58.8949001 427.488138,59.0190307 L427.488138,59.0190307 Z M427.488138,43.9363827 C424.154853,43.7588678 421.03626,45.3921211 419.620066,48.0570084 C418.203871,50.7218957 418.776986,53.8785318 421.066008,56.0210612 C423.35503,58.1635905 426.896223,58.8579536 430.000279,57.7729084 C433.104335,56.6878632 435.142398,54.0432313 435.142221,51.1006195 C435.264275,47.2629293 431.842706,44.0603338 427.488138,43.9363827 L427.488138,43.9363827 Z" id="Shape" fill="#575157"></path>
                <path d="M433.192537,45.814978 C433.453806,46.6072396 433.58684,47.4288983 433.587584,48.2549125 C433.587584,52.4330791 430.324434,55.8193001 426.296646,55.8193001 C422.663904,55.8193001 419.659091,53.0588763 419.107533,49.448313 C419.046531,49.8240006 419.015026,50.2030494 419.013249,50.5826759 C418.842831,53.2331344 420.326729,55.7501718 422.868085,57.1213763 C425.409442,58.4925809 428.590558,58.4925809 431.131915,57.1213763 C433.673271,55.7501718 435.157169,53.2331344 434.986751,50.5826759 C434.993186,48.8598808 434.362345,47.1835707 433.192537,45.814978 L433.192537,45.814978 Z" id="Path" fill="#CEC7C2" style="mix-blend-mode: multiply;"></path>
                <g id="Group" style="mix-blend-mode: multiply;" transform="translate(421.000000, 44.052863)">
                    <polygon id="Path" fill="#CEC7C2" points="2.58351762 13.5515858 12.4010762 1.90989414 10.2142857 0.518930201 0.574966829 12.0187205"></polygon>
                    <path d="M2.65443019,14.0969163 L0,12.073996 L10.1203745,0 L13,1.83151836 L2.65443019,14.0969163 Z M1.14993366,11.9642699 L2.5145216,13.0046054 L11.8031107,1.98991995 L10.3091552,1.03868541 L1.14993366,11.9642699 Z" id="Shape" fill="#575157"></path>
                </g>
                <path d="M429,45.1319358 C426.647984,44.515723 424.138401,45.3690361 422.753615,47.2558436 C420.095482,50.5396463 425.016904,50.0212862 429,45.1319358 Z" id="Path" fill="#CEC7C2" style="mix-blend-mode: screen;"></path>
                <path d="M422,51.1013216 C422,51.5879417 421.775168,51.9823789 421.500671,51.9823789 C421.226174,51.9823789 421,51.5879417 421,51.1013216 C421,50.6147014 421.222819,50.2202643 421.500671,50.2202643 C421.778523,50.2202643 422,50.6173606 422,51.1013216 Z" id="Path" fill="#CEC7C2" opacity="0.53" style="mix-blend-mode: screen;"></path>
                <path d="M437.996619,149.765971 C437.73251,153.839719 433.813225,156.977551 429.182465,156.822701 C424.551705,156.667851 420.913994,153.277317 421.001548,149.197666 C421.089102,145.118015 424.869694,141.850913 429.503792,141.85022 C434.329598,141.974878 438.129491,145.516573 437.996619,149.765971 Z" id="Path" fill="#CEC7C2" style="mix-blend-mode: multiply;"></path>
                <path d="M435.99716,149.251699 C435.778687,152.606521 432.550244,155.189902 428.736679,155.061493 C424.923114,154.933084 421.928169,152.140152 422.001312,148.780436 C422.074454,145.42072 425.188762,142.730904 429.005114,142.731278 C432.979247,142.834857 436.107665,145.752258 435.99716,149.251699 L435.99716,149.251699 Z" id="Path" fill="#CEC7C2"></path>
                <path d="M428.431066,155.936779 C425.161578,156.092691 422.114402,154.476951 420.739517,151.858398 C419.364631,149.239845 419.939703,146.147315 422.191089,144.052367 C424.442475,141.95742 427.915491,141.283144 430.957526,142.350391 C433.99956,143.417637 435.996253,146.010868 435.99749,148.89611 C436.105352,152.678423 432.722872,155.82587 428.431066,155.936779 Z M428.431066,142.618887 C425.51026,142.462381 422.776956,143.892787 421.535239,146.227646 C420.293522,148.562505 420.794995,151.328712 422.800402,153.206486 C424.805809,155.084259 427.908801,155.693111 430.628912,154.742554 C433.349023,153.791997 435.135087,151.474638 435.134957,148.89611 C435.241361,145.535041 432.244803,142.730336 428.431066,142.621432 L428.431066,142.618887 Z" id="Shape" fill="#575157"></path>
                <path d="M434.424401,145.374449 C434.652504,146.054472 434.768707,146.759543 434.769496,147.468339 C434.769496,151.050427 431.913506,153.954109 428.389012,153.954109 C425.210557,153.954109 422.580858,151.585881 422.098102,148.492147 C422.042863,148.813844 422.013874,149.138585 422.011357,149.463897 C421.863821,151.735196 423.162643,153.89154 425.385749,155.066167 C427.608855,156.240793 430.391145,156.240793 432.614251,155.066167 C434.837357,153.89154 436.136179,151.735196 435.988643,149.463897 C435.995276,147.986986 435.445413,146.549461 434.424401,145.374449 Z" id="Path" fill="#CEC7C2" style="mix-blend-mode: multiply;"></path>
                <g id="Group" style="mix-blend-mode: multiply;" transform="translate(423.000000, 142.731278)">
                    <polygon id="Path" fill="#CEC7C2" points="2.22890164 11.7947106 10.4283695 1.71980701 8.59915191 0.51643161 0.546021452 10.4697739"></polygon>
                    <path d="M2.29566808,12.3348018 L0,10.5244357 L8.51409329,0 L11,1.63903808 L2.29566808,12.3348018 Z M1.09935977,10.4151121 L2.1621352,11.2546194 L9.85856822,1.79894423 L8.69335661,1.02959983 L1.09935977,10.4151121 Z" id="Shape" fill="#575157"></path>
                </g>
                <path d="M430,143.770589 C427.983481,143.277733 425.832097,143.961132 424.645619,145.471439 C422.36811,148.097396 426.585522,147.68059 430,143.770589 Z" id="Path" fill="#CEC7C2" style="mix-blend-mode: screen;"></path>
                <path d="M424,148.899691 C424,149.384779 423.774367,149.779736 423.499616,149.779736 C423.224866,149.779736 423,149.384779 423,148.899691 C423,148.414603 423.224098,148.017621 423.499616,148.017621 C423.775134,148.017621 424,148.412578 424,148.899691 Z" id="Path" fill="#CEC7C2" opacity="0.53" style="mix-blend-mode: screen;"></path>
                <polygon id="Path" fill="#CEC7C2" style="mix-blend-mode: screen;" points="405.924095 140.969163 400 25.0521073 429.635503 1.76211454 451 20.0273084 429.074837 6.43773813 403.8223 26.0239785"></polygon>
                <path d="M142,35.2422907 L91,35.2422907 L91,75.7709251 L116.5,75.7709251 C116.5,75.7709251 101.500333,74.3672074 98.8747778,71.3946286 C96.2492222,68.4220498 95.1234444,37.0588667 142,35.2422907 Z" id="Path" fill="#CEC7C2" opacity="0.56" style="mix-blend-mode: multiply;"></path>
                <path d="M267,35.2422907 L216,35.2422907 L216,75.7709251 L241.5,75.7709251 C241.5,75.7709251 226.500333,74.3672074 223.874778,71.3946286 C221.249222,68.4220498 220.124389,37.0588667 267,35.2422907 Z" id="Path" fill="#CEC7C2" opacity="0.56" style="mix-blend-mode: multiply;"></path>
                <path d="M392,35.2422907 L341,35.2422907 L341,75.7709251 L366.5,75.7709251 C366.5,75.7709251 351.499389,74.3672074 348.874778,71.3946286 C346.250167,68.4220498 345.128167,37.0588667 392,35.2422907 Z" id="Path" fill="#CEC7C2" opacity="0.56" style="mix-blend-mode: multiply;"></path>
                <path d="M517,35.2422907 L466,35.2422907 L466,75.7709251 L491.5,75.7709251 C491.5,75.7709251 476.499389,74.3672074 473.874778,71.3946286 C471.250167,68.4220498 470.124389,37.0588667 517,35.2422907 Z" id="Path" fill="#CEC7C2" opacity="0.56" style="mix-blend-mode: multiply;"></path>
                <path d="M631,35.2422907 L591,35.2422907 L591,75.7709251 L616.184218,75.7709251 C616.184218,75.7709251 601.369369,74.3672074 598.77726,71.3946286 C596.185151,68.4220498 584.703946,37.0588667 631,35.2422907 Z" id="Path" fill="#CEC7C2" opacity="0.56" style="mix-blend-mode: multiply;"></path>
                <g id="Group" opacity="0.56" style="mix-blend-mode: multiply;" transform="translate(91.000000, 137.444934)" fill="#CEC7C2">
                    <path d="M11.573465,20.4811789 C20.1597743,5.19976714 56,0 56,0 L0,0 L0,33.4801762 L24.052385,33.4801762 C16.2681039,32.9654977 5.94798435,30.4930223 11.573465,20.4811789 Z" id="Path"></path>
                </g>
                <g id="Group" opacity="0.56" style="mix-blend-mode: multiply;" transform="translate(216.000000, 137.444934)" fill="#CEC7C2">
                    <path d="M11.5732707,20.4811789 C20.1594359,5.19976714 56,0 56,0 L0,0 L0,33.4801762 L24.0519812,33.4801762 C16.2659503,32.9654977 5.94600403,30.4930223 11.5732707,20.4811789 Z" id="Path"></path>
                </g>
                <g id="Group" opacity="0.56" style="mix-blend-mode: multiply;" transform="translate(341.000000, 137.444934)" fill="#CEC7C2">
                    <path d="M11.5757026,20.4811789 C20.1625197,5.19976714 56,0 56,0 L0,0 L0,33.4801762 L24.0511736,33.4801762 C16.2654041,32.9654977 5.94956516,30.4930223 11.5757026,20.4811789 Z" id="Path"></path>
                </g>
                <g id="Group" opacity="0.56" style="mix-blend-mode: multiply;" transform="translate(466.000000, 137.444934)" fill="#CEC7C2">
                    <path d="M11.573465,20.4811789 C20.1597743,5.19976714 56,0 56,0 L0,0 L0,33.4801762 L24.0514448,33.4801762 C16.2652832,32.9654977 5.94704411,30.4930223 11.573465,20.4811789 Z" id="Path"></path>
                </g>
                <g id="Group" opacity="0.56" style="mix-blend-mode: multiply;" transform="translate(591.000000, 137.444934)" fill="#CEC7C2">
                    <path d="M9.93882504,16.7354627 C18.9934063,1.61047292 41,0 41,0 L0,0 L0,33.4801762 L9.10527039,33.4801762 C1.33481387,32.9612928 7.81832959,20.28439 9.93882504,16.7354627 Z" id="Path"></path>
                </g>
            </g>
        </g>
    </g>
</svg>