<?xml version="1.0" encoding="UTF-8"?>
<svg width="1950px" height="1055px" viewBox="0 0 1950 1055" version="1.1" xmlns="http://www.w3.org/2000/svg" xmlns:xlink="http://www.w3.org/1999/xlink">
    <title>77A66BD4-70E8-4F7C-948F-24DD19D69772</title>
    <defs>
        <linearGradient x1="50%" y1="0.3%" x2="50%" y2="69.2%" id="linearGradient-1">
            <stop stop-color="#75E0EC" offset="0%"></stop>
            <stop stop-color="#E6FDEE" offset="100%"></stop>
        </linearGradient>
        <linearGradient x1="103.3%" y1="49.0998323%" x2="3.2%" y2="75.3047138%" id="linearGradient-2">
            <stop stop-color="#FFFFFF" offset="0%"></stop>
            <stop stop-color="#E6FDEE" offset="100%"></stop>
        </linearGradient>
        <linearGradient x1="-24.7%" y1="33.3969071%" x2="99.6%" y2="116.112316%" id="linearGradient-3">
            <stop stop-color="#FFFFFF" offset="0%"></stop>
            <stop stop-color="#E6FDEE" offset="100%"></stop>
        </linearGradient>
        <linearGradient x1="2.6088298%" y1="22.5%" x2="97.9910584%" y2="77.9%" id="linearGradient-4">
            <stop stop-color="#FFFFFF" offset="0%"></stop>
            <stop stop-color="#E6FDEE" offset="100%"></stop>
        </linearGradient>
        <linearGradient x1="22.9%" y1="26.7956774%" x2="106.3%" y2="98.2089805%" id="linearGradient-5">
            <stop stop-color="#FFFFFF" offset="0%"></stop>
            <stop stop-color="#E6FDEE" offset="100%"></stop>
        </linearGradient>
        <linearGradient x1="-23.9%" y1="32.0966649%" x2="100.1%" y2="114.812073%" id="linearGradient-6">
            <stop stop-color="#FFFFFF" offset="0%"></stop>
            <stop stop-color="#E6FDEE" offset="100%"></stop>
        </linearGradient>
        <linearGradient x1="2.6088298%" y1="22.5%" x2="97.9910584%" y2="77.9%" id="linearGradient-7">
            <stop stop-color="#FFFFFF" offset="0%"></stop>
            <stop stop-color="#E6FDEE" offset="100%"></stop>
        </linearGradient>
    </defs>
    <g id="LHRC-Staking" stroke="none" stroke-width="1" fill="none" fill-rule="evenodd">
        <g id="Stake-1.a" transform="translate(15.000000, 0.000000)" fill-rule="nonzero">
            <g id="Clouds" transform="translate(-15.000000, 0.000000)">
                <rect id="Rectangle" fill="url(#linearGradient-1)" x="15" y="0" width="1935" height="1055"></rect>
                <g id="Group" transform="translate(0.000000, 382.903534)">
                    <path d="M1935,10.4213775 L1935,665.04298 L1507.82235,665.04298 C1507.70896,663.375293 1507.62892,661.702602 1507.58223,660.024909 C1497.68674,657.497333 1488.05458,654.032565 1478.8163,649.677577 C1480.82391,654.682323 1482.49516,659.81554 1483.8189,665.04298 L1070.29434,665.04298 C1087.9474,646.140893 1113.58433,636.837154 1139.25011,640.018666 C1136.62308,631.768537 1135.28893,623.161411 1135.29506,614.503052 C1135.29506,568.775068 1171.83102,531.704382 1216.8974,531.704382 C1238.62329,531.703336 1259.43331,540.45662 1274.62736,555.987242 C1274.61935,555.634026 1274.61135,555.279809 1274.61135,554.926593 C1274.61135,508.269041 1311.88769,470.446895 1357.87055,470.446895 C1367.37394,470.438953 1376.80642,472.082732 1385.74701,475.304868 C1397.11691,394.912671 1465.26727,333.117855 1547.64001,333.117855 C1553.68753,333.118422 1559.73033,333.455482 1565.7404,334.127473 C1568.97909,297.309942 1596.01111,267.443665 1631.12833,260.482405 C1630.85286,256.489295 1630.71212,252.459162 1630.70611,248.392006 C1630.70611,154.656644 1705.59397,78.6711436 1797.9759,78.6711436 C1812.11313,78.6620883 1826.19317,80.46589 1839.87164,84.0384282 C1853.83889,43.2604737 1890.79306,13.3941967 1935,10.4213775 Z" id="Path" fill="url(#linearGradient-2)" opacity="0.43"></path>
                    <path d="M751.166785,643.108557 C751.166785,650.500769 750.280266,657.866305 748.508373,665.04298 L202.393014,665.04298 C202.234265,663.063769 202.111535,661.076886 202.024823,659.082332 C200.245233,661.108239 198.421287,663.095121 196.552984,665.04298 L0,665.04298 L0,0 C23.1111622,7.41688267 38.749742,28.9586289 38.6450515,53.2325762 C38.6459092,56.1631559 38.419446,59.0893865 37.9677,61.9849323 C130.461692,66.7948758 204.00285,144.415376 204.00285,239.461541 C204.022021,257.88121 201.211808,276.194522 195.670526,293.76077 C197.354066,293.634693 199.052948,293.570654 200.767171,293.568652 C224.095784,293.611857 245.796251,305.534121 258.345046,325.202011 C278.478447,313.285881 301.448659,307.011205 324.843549,307.036894 C392.99391,307.036894 449.102022,359.301879 456.388803,426.479989 C462.41647,424.238639 468.79676,423.094899 475.227578,423.102922 C505.456263,423.102922 529.961978,447.967138 529.961978,478.636907 C529.961978,478.892063 529.953974,479.147219 529.949971,479.406378 C534.002448,478.8168 538.09219,478.520516 542.187321,478.519835 C587.853015,478.519835 625.159372,514.810043 627.636657,560.517014 C638.663629,555.705471 650.566981,553.22837 662.597798,553.241562 C711.515179,553.245564 751.166785,593.478185 751.166785,643.108557 Z" id="Path" fill="url(#linearGradient-3)" opacity="0.43"></path>
                    <ellipse id="Oval" fill="url(#linearGradient-4)" cx="1686.60111" cy="401.783876" rx="17.912294" ry="18.1751225"></ellipse>
                    <path d="M1935,291.877618 L1935,665.04298 L1392.4685,665.04298 C1392.36845,663.802221 1392.31742,662.541449 1392.31742,661.273673 C1392.31742,635.899145 1412.58894,615.330558 1437.59692,615.330558 C1447.75745,615.322294 1457.61725,618.778377 1465.54942,625.128554 C1473.43351,588.637223 1505.47013,561.322507 1543.79802,561.322507 C1559.23881,561.306258 1574.34525,565.819893 1587.24656,574.304452 C1586.47856,569.680185 1586.09273,565.000509 1586.09297,560.312889 C1586.09297,514.024563 1623.07015,476.504602 1668.68982,476.504602 C1684.22236,476.488488 1699.43488,480.919651 1712.52957,489.274417 C1712.49422,488.555977 1712.47621,487.833535 1712.47554,487.10709 C1712.37121,466.32369 1726.56957,448.196083 1746.77134,443.320294 C1739.90099,429.831066 1736.33194,414.902968 1736.35793,399.76464 C1736.35793,347.34256 1778.23966,304.847555 1829.90647,304.847555 C1848.62133,304.82833 1866.89849,310.508166 1882.30666,321.13152 C1891.82077,303.090081 1910.51907,291.777754 1930.91388,291.724524 C1932.28926,291.724524 1933.6513,291.775555 1935,291.877618 Z" id="Path" fill="url(#linearGradient-5)"></path>
                    <path d="M476.504977,652.870531 C476.510803,657.086429 475.559368,661.248702 473.721797,665.04298 L0,665.04298 L0,244.792803 C2.86178339,244.442129 5.74229083,244.266481 8.62547544,244.266481 C47.8288166,244.266481 79.6093063,276.512215 79.6093063,316.29456 C79.6239814,326.641057 77.429978,336.871482 73.1739673,346.301923 C84.4148152,354.331508 91.8828534,366.609602 93.843692,380.284719 C110.486869,367.162001 131.067402,360.033388 152.261003,360.050337 C205.020377,360.050337 247.79157,403.447894 247.79157,456.981655 C247.793735,463.631621 247.12331,470.264754 245.790532,476.77977 C249.238914,476.146104 252.737847,475.827929 256.243956,475.829189 C288.488686,475.829189 314.626248,502.345415 314.626248,535.065439 C314.628906,540.315192 313.944748,545.54273 312.591192,550.614955 C325.396873,543.525439 339.797065,539.814602 354.433903,539.832356 C402.007587,539.832356 440.718673,578.325913 441.973324,626.291265 C444.357279,625.611533 446.824177,625.266688 449.303127,625.266638 C464.436106,625.377862 476.614051,637.736132 476.504977,652.870531 Z" id="Path" fill="url(#linearGradient-6)"></path>
                    <ellipse id="Oval" fill="url(#linearGradient-7)" cx="343.807389" cy="465.04659" rx="10.6285147" ry="10.7845997"></ellipse>
                </g>
            </g>
        </g>
    </g>
</svg>