<?xml version="1.0" encoding="UTF-8"?>
<svg width="1920px" height="172px" viewBox="0 0 1920 172" version="1.1" xmlns="http://www.w3.org/2000/svg" xmlns:xlink="http://www.w3.org/1999/xlink">
    <title>20744600-9568-4A72-B690-53D56C7152B7</title>
    <defs>
        <linearGradient x1="42.3208398%" y1="49.6163281%" x2="-3.28438228e-15%" y2="50.3836719%" id="linearGradient-1">
            <stop stop-color="#C7FF54" offset="0%"></stop>
            <stop stop-color="#CDFD52" offset="7.9%"></stop>
            <stop stop-color="#E0F74F" offset="19%"></stop>
            <stop stop-color="#ECF44D" offset="24.6%"></stop>
            <stop stop-color="#E2EF4A" offset="28.5%"></stop>
            <stop stop-color="#C7E442" offset="35.2%"></stop>
            <stop stop-color="#9DD136" offset="43.8%"></stop>
            <stop stop-color="#71BE2A" offset="51.5%"></stop>
            <stop stop-color="#65B62A" offset="56.6%"></stop>
            <stop stop-color="#46A22C" offset="65.7%"></stop>
            <stop stop-color="#14832E" offset="77.7%"></stop>
            <stop stop-color="#007630" offset="100%"></stop>
        </linearGradient>
        <linearGradient x1="59.4795135%" y1="51.2043918%" x2="54.2519491%" y2="49.046509%" id="linearGradient-2">
            <stop stop-color="#C7FF54" offset="0%"></stop>
            <stop stop-color="#CDFD52" offset="7.9%"></stop>
            <stop stop-color="#E0F74F" offset="19%"></stop>
            <stop stop-color="#ECF44D" offset="24.6%"></stop>
            <stop stop-color="#E2EF4A" offset="28.5%"></stop>
            <stop stop-color="#C7E442" offset="35.2%"></stop>
            <stop stop-color="#9DD136" offset="43.8%"></stop>
            <stop stop-color="#71BE2A" offset="51.5%"></stop>
            <stop stop-color="#65B62A" offset="56.6%"></stop>
            <stop stop-color="#46A22C" offset="65.7%"></stop>
            <stop stop-color="#14832E" offset="77.7%"></stop>
            <stop stop-color="#007630" offset="100%"></stop>
        </linearGradient>
    </defs>
    <g id="LHRC-Staking" stroke="none" stroke-width="1" fill="none" fill-rule="evenodd">
        <g id="Stake-1.a" transform="translate(0.000000, -908.000000)" fill-rule="nonzero">
            <g id="Hills" transform="translate(0.000000, 908.000000)">
                <path d="M1513.68279,38.5078756 C1483.66359,72.1161645 1455.37334,121.239117 1432.19696,168.186007 L1345.02627,168.186007 C1377.14751,120.208119 1414.90624,76.2330807 1457.49829,37.1974515 C1476.66978,37.5591312 1495.39795,37.9959392 1513.68279,38.5078756 Z" id="Path" fill="#FFFFFF" opacity="0.17"></path>
                <path d="M1920,119.825973 L1920,168.184012 L0.0509986453,168.184012 L0.0509986453,16.3682906 C0.0509986453,16.3682906 151.231342,-9.16802523 405.097821,3.55126605 C456.476444,6.12025573 512.061503,10.2639483 571.445375,16.4999314 L571.445375,16.4999314 C593.43636,18.8102935 615.940797,21.4161825 638.958687,24.3175984 C668.625418,28.0706902 699.109065,32.3639746 730.40963,37.1974515 C782.635548,45.3013374 836.991727,55.1079103 893.478165,66.6171702 C1430.62814,177.054805 1920,119.825973 1920,119.825973 Z" id="Path" fill="url(#linearGradient-1)"></path>
                <path d="M570.555845,16.4979369 C570.555845,16.4979369 367.194246,13.7913227 177.415287,168.184012 L43.5928421,168.184012 C43.5928421,168.184012 159.817755,30.6313692 404.467256,3.54927149 C455.764894,6.12025573 511.26042,10.2639483 570.555845,16.4979369 Z" id="Path" fill="#FFFFFF" opacity="0.17"></path>
                <path d="M729.276629,37.1974515 C645.678849,52.6183705 565.767972,115.445925 511.303419,168.186007 L323.069418,168.186007 C429.245598,85.1216747 565.724973,42.4341614 637.968054,24.3175984 C667.588601,28.0706902 698.024792,32.3639746 729.276629,37.1974515 Z" id="Path" fill="#FFFFFF" opacity="0.17"></path>
                <g id="Group" transform="translate(72.207731, 149.103081)" fill="#2BAF98" opacity="0.47">
                    <path d="M5.31520952,7.52147521 C5.46520554,7.85057715 5.14421407,8.18167365 4.58622889,8.27641511 L4.58622889,8.27641511 C4.11584437,8.40742051 3.61255871,8.2443033 3.30926281,7.86254449 L0.036349744,0.908520806 C-0.112646298,0.58440526 0.209345149,0.252311486 0.76533038,0.158567298 L0.76533038,0.158567298 C1.23170413,0.0348501748 1.72767025,0.192462262 2.03629662,0.562465131 L5.31520952,7.52147521 Z" id="Path" style="mix-blend-mode: multiply;"></path>
                    <path d="M10.9930587,7.83661525 C10.9930587,8.16870902 10.5270711,8.43498241 9.94908644,8.43498241 L9.94908644,8.43498241 C9.38510142,8.43498241 8.91211398,8.16571719 8.91211398,7.83661525 L8.91211398,0.598367161 C8.91211398,0.265276108 9.38510142,0 9.94908644,0 L9.94908644,0 C10.5270711,0 10.9930587,0.269265222 10.9930587,0.598367161 L10.9930587,7.83661525 Z" id="Path" style="mix-blend-mode: multiply;"></path>
                    <path d="M17.6428821,7.86254449 C17.343426,8.2447885 16.8429019,8.41000015 16.3739158,8.28140151 L16.3739158,8.28140151 C15.8189305,8.18167365 15.4959391,7.85057715 15.6429352,7.531448 L18.8968488,0.562465131 C19.2023707,0.19174942 19.697215,0.03374795 20.1618152,0.158567298 L20.1618152,0.158567298 C20.7148005,0.248322372 21.0527915,0.58440526 20.8997956,0.902537134 L17.6428821,7.86254449 Z" id="Path" style="mix-blend-mode: multiply;"></path>
                </g>
                <g id="Group" transform="translate(201.828629, 152.567627)" fill="#2BAF98" opacity="0.47">
                    <path d="M5.31386917,7.52346977 C5.46486516,7.84559076 5.13687387,8.18167365 4.58488853,8.27641511 L4.58488853,8.27641511 C4.11601751,8.40261663 3.61666449,8.24065667 3.31192234,7.86354177 L0.0360093593,0.908520806 C-0.11198671,0.585402539 0.209004764,0.247325093 0.763990022,0.158567298 L0.763990022,0.158567298 C1.23079149,0.0288620996 1.73028369,0.187469944 2.03595624,0.562465131 L5.31386917,7.52346977 Z" id="Path" style="mix-blend-mode: multiply;"></path>
                    <path d="M10.9907184,7.83761253 C10.9907184,8.17369542 10.5297306,8.43597969 9.95374592,8.43597969 L9.95374592,8.43597969 C9.37976117,8.43597969 8.90877368,8.17070358 8.90877368,7.83761253 L8.90877368,0.598367161 C8.90877368,0.266273387 9.37976117,0 9.95374592,0 L9.95374592,0 C10.5297306,0 10.9907184,0.268267944 10.9907184,0.598367161 L10.9907184,7.83761253 Z" id="Path" style="mix-blend-mode: multiply;"></path>
                    <path d="M17.6405417,7.86354177 C17.3379558,8.2432084 16.8381767,8.40739323 16.3685755,8.28140151 L16.3685755,8.28140151 C15.8185901,8.18167365 15.4915988,7.84559076 15.6435948,7.5264616 L18.8985083,0.562465131 C19.2043862,0.18642152 19.704094,0.0260384178 20.1724745,0.153580905 L20.1724745,0.153580905 C20.71846,0.247325093 21.0474512,0.585402539 20.8984552,0.908520806 L17.6405417,7.86354177 Z" id="Path" style="mix-blend-mode: multiply;"></path>
                </g>
                <g id="Group" transform="translate(320.449738, 161.569063)" fill="#2BAF98" opacity="0.47">
                    <path d="M5.31060913,7.52346977 C5.46460504,7.84658804 5.1386137,8.1836682 4.58762833,8.272426 L4.58762833,8.272426 C4.11849453,8.40285278 3.61652417,8.24251402 3.31066225,7.86453905 L0.037749188,0.909518084 C-0.115246748,0.590388932 0.210744593,0.248322372 0.763729904,0.159564576 L0.763729904,0.159564576 C1.2300901,0.0313278981 1.72852898,0.187401882 2.03769606,0.558476017 L5.31060913,7.52346977 Z" id="Path" style="mix-blend-mode: multiply;"></path>
                    <path d="M10.9924582,7.83362341 C10.9924582,8.1697063 10.5284705,8.43897152 9.95148585,8.43897152 L9.95148585,8.43897152 C9.37950105,8.43897152 8.91251345,8.1697063 8.91251345,7.83362341 L8.91251345,0.598367161 C8.91251345,0.266273387 9.37950105,0 9.95148585,0 L9.95148585,0 C10.5284705,0 10.9924582,0.269265222 10.9924582,0.598367161 L10.9924582,7.83362341 Z" id="Path" style="mix-blend-mode: multiply;"></path>
                    <path d="M17.6432815,7.86453905 C17.3393252,8.24160559 16.8415268,8.40526841 16.3723153,8.28239878 L16.3723153,8.28239878 C15.82033,8.18267092 15.4903387,7.84658804 15.6433347,7.52346977 L18.8962483,0.558476017 C19.2040043,0.187251193 19.7017515,0.0310259077 20.1672145,0.159564576 L20.1672145,0.159564576 C20.7221998,0.248322372 21.0491911,0.581413425 20.8961951,0.903534413 L17.6432815,7.86453905 Z" id="Path" style="mix-blend-mode: multiply;"></path>
                </g>
                <g id="Group" transform="translate(1781.022942, 144.873622)" fill="#2BAF98" opacity="0.47">
                    <path d="M5.3066086,7.53244528 C5.45060478,7.84758531 5.13461317,8.18765732 4.58662773,8.28239878 L4.58662773,8.28239878 C4.12062409,8.4188858 3.61823025,8.25897944 3.31766144,7.87850095 L0.0417484518,0.913507199 C-0.120247245,0.598367161 0.203744149,0.263281551 0.761729327,0.163553691 L0.761729327,0.163553691 C1.23043486,0.0386576506 1.72919867,0.196679867 2.03969538,0.568448803 L5.3066086,7.53244528 Z" id="Path" style="mix-blend-mode: multiply;"></path>
                    <path d="M10.9844578,7.84160164 C10.9844578,8.1746927 10.52547,8.44894431 9.94948528,8.44894431 L9.94948528,8.44894431 C9.37350058,8.44894431 8.90651298,8.1746927 8.90651298,7.84160164 L8.90651298,0.598367161 C8.90651298,0.276246173 9.37350058,0 9.94948528,0 L9.94948528,0 C10.52547,0 10.9844578,0.273254337 10.9844578,0.598367161 L10.9844578,7.84160164 Z" id="Path" style="mix-blend-mode: multiply;"></path>
                    <path d="M17.6352811,7.87850095 C17.3382403,8.25835154 16.8396147,8.42016548 16.3753146,8.28738518 L16.3753146,8.28738518 C15.8173294,8.19264371 15.5033378,7.8575581 15.646334,7.53244528 L18.8942477,0.568448803 C19.1991361,0.193524523 19.6970584,0.0332111675 20.1642139,0.159564576 L20.1642139,0.159564576 C20.7221991,0.254306043 21.0381907,0.590388932 20.8941946,0.913507199 L17.6352811,7.87850095 Z" id="Path" style="mix-blend-mode: multiply;"></path>
                </g>
                <g id="Group" transform="translate(1599.228038, 144.879606)" fill="#2BAF98" opacity="0.47">
                    <path d="M5.31234186,7.5264616 C5.46633777,7.85057715 5.13234664,8.18666004 4.58336122,8.28040423 L4.58336122,8.28040423 C4.11612739,8.40704368 3.61769288,8.25133772 3.30639514,7.88149279 L0.0384819464,0.920488149 C-0.11451399,0.596372604 0.201477617,0.256300601 0.759462795,0.161559133 L0.759462795,0.161559133 C1.22530673,0.0347613709 1.72236237,0.192968644 2.02842909,0.565456967 L5.31234186,7.5264616 Z" id="Path" style="mix-blend-mode: multiply;"></path>
                    <path d="M10.991191,7.84060436 C10.991191,8.17269814 10.5232034,8.43897152 9.95721848,8.43897152 L9.95721848,8.43897152 C9.37123405,8.43897152 8.90324648,8.1746927 8.90324648,7.84060436 L8.90324648,0.598367161 C8.90324648,0.265276108 9.37123405,0 9.95721848,0 L9.95721848,0 C10.5232034,0 10.991191,0.264278829 10.991191,0.598367161 L10.991191,7.84060436 Z" id="Path" style="mix-blend-mode: multiply;"></path>
                    <path d="M17.6410144,7.87750367 C17.3322878,8.2459909 16.8368482,8.40173697 16.3720481,8.27641511 L16.3720481,8.27641511 C15.8150629,8.18267092 15.4910715,7.84658804 15.6430674,7.531448 L18.8929811,0.557478738 C19.1994959,0.18564883 19.6961208,0.0275786564 20.1619474,0.153580905 L20.1619474,0.153580905 C20.7189326,0.248322372 21.043924,0.58440526 20.8909281,0.907523527 L17.6410144,7.87750367 Z" id="Path" style="mix-blend-mode: multiply;"></path>
                </g>
                <path d="M1919.949,67.4732352 L1919.949,172 L0,172 L0,67.4732352 C0,67.4732352 372.086354,97.0335703 913.181774,55.6504974 C1032.04598,46.5573111 1147.2696,42.0346527 1254.71329,40.5058246 C1301.96372,39.8326615 1347.71185,39.7409119 1391.60212,40.091954 C1414.84909,40.2814369 1437.5569,40.5879338 1459.72555,41.0114448 C1478.92498,41.3737894 1497.68173,41.8105974 1515.9958,42.3218689 C1758.82302,49.0614777 1919.949,67.4732352 1919.949,67.4732352 Z" id="Path" fill="url(#linearGradient-2)"></path>
                <g id="Group" transform="translate(1419.640466, 141.487861)" fill="#2BAF98" opacity="0.47">
                    <path d="M5.30668418,7.52247249 C5.45068035,7.85157443 5.13468875,8.18765732 4.57770354,8.272426 L4.57770354,8.272426 C4.11174128,8.40578407 3.61108981,8.24643229 3.30873725,7.86852816 L0.0418240247,0.908520806 C-0.120171672,0.589391653 0.202819748,0.252311486 0.7618049,0.158567298 L0.7618049,0.158567298 C1.22845766,0.0321492353 1.7259655,0.192064401 2.03077119,0.566454246 L5.30668418,7.52247249 Z" id="Path" style="mix-blend-mode: multiply;"></path>
                    <path d="M10.9835334,7.83661525 C10.9835334,8.1607308 10.5165458,8.44296064 9.94056109,8.44296064 L9.94056109,8.44296064 C9.36457639,8.44296064 8.91458834,8.1607308 8.91458834,7.83661525 L8.91458834,0.598367161 C8.91458834,0.266273387 9.36457639,0 9.94056109,0 L9.94056109,0 C10.5165458,0 10.9835334,0.264278829 10.9835334,0.598367161 L10.9835334,7.83661525 Z" id="Path" style="mix-blend-mode: multiply;"></path>
                    <path d="M17.6443565,7.86852816 C17.3369393,8.24504359 16.8376597,8.40829427 16.3663904,8.2863879 L16.3663904,8.2863879 C15.818405,8.18666004 15.4854138,7.85157443 15.62941,7.52745888 L18.8863235,0.566454246 C19.1897469,0.190055953 19.6885831,0.0297138149 20.1552898,0.158567298 L20.1552898,0.158567298 C20.7042752,0.248322372 21.0382663,0.589391653 20.8842704,0.903534413 L17.6443565,7.86852816 Z" id="Path" style="mix-blend-mode: multiply;"></path>
                </g>
                <g id="Group" transform="translate(71.964651, 96.465719)" fill="#2BAF98" opacity="0.47">
                    <path d="M5.31629591,54.620949 C5.46429198,54.9400781 5.13430075,55.2811474 4.58731528,55.3748916 L4.58731528,55.3748916 C4.11845729,55.5022696 3.61823552,55.3442994 3.30834925,54.9709938 L0.0364361588,48.0109864 C-0.112559884,47.6828818 0.20843159,47.3467989 0.761416901,47.2530547 L0.761416901,47.2530547 C1.22807627,47.1249172 1.7267468,47.2809412 2.03638304,47.6519661 L5.31629591,54.620949 Z" id="Path" style="mix-blend-mode: multiply;"></path>
                    <path d="M10.9901452,54.9311026 C10.9901452,55.25821 10.5271575,55.537448 9.95417272,55.537448 L9.95417272,55.537448 C9.3751881,55.537448 8.91420034,55.25821 8.91420034,54.9311026 L8.91420034,47.6968437 C8.91420034,47.3567717 9.3751881,47.0984765 9.95417272,47.0984765 L9.95417272,47.0984765 C10.5271575,47.0984765 10.9901452,47.3607608 10.9901452,47.6968437 L10.9901452,54.9311026 Z" id="Path" style="mix-blend-mode: multiply;"></path>
                    <path d="M17.6429685,54.9709938 C17.3385748,55.3459311 16.8399049,55.5046522 16.3740022,55.3748916 L16.3740022,55.3748916 C15.8210169,55.2851365 15.4940256,54.9440673 15.6390217,54.6259354 L18.8969352,47.6559552 C19.2016761,47.2833916 19.6971977,47.1237375 20.1629015,47.2480683 L20.1629015,47.2480683 C20.7218867,47.3477962 21.0448781,47.6828818 20.8948821,47.9980218 L17.6429685,54.9709938 Z" id="Path" style="mix-blend-mode: multiply;"></path>
                    <path d="M283.404909,58.7766089 C283.552905,59.1037163 283.228914,59.4358101 282.677928,59.5315488 L282.677928,59.5315488 C282.208513,59.6593117 281.70786,59.4966653 281.403962,59.1176782 L278.131049,52.16166 C277.977053,51.839539 278.306045,51.5074452 278.86003,51.4127037 L278.86003,51.4127037 C279.32493,51.2818046 279.823395,51.4385016 280.128996,51.8116152 L283.404909,58.7766089 Z" id="Path" style="mix-blend-mode: multiply;"></path>
                    <path d="M289.087758,59.0857653 C289.087758,59.4228455 288.624771,59.6970971 288.050786,59.6970971 L288.050786,59.6970971 C287.476801,59.6970971 287.013813,59.4228455 287.013813,59.0857653 L287.013813,51.8525036 C287.013813,51.5154234 287.476801,51.2461582 288.050786,51.2461582 L288.050786,51.2461582 C288.624771,51.2461582 289.087758,51.5154234 289.087758,51.8525036 L289.087758,59.0857653 Z" id="Path" style="mix-blend-mode: multiply;"></path>
                    <path d="M295.734582,59.1176782 C295.434534,59.4996408 294.932922,59.6631117 294.464615,59.5315488 L294.464615,59.5315488 C293.91563,59.431821 293.587639,59.1037163 293.737635,58.7855844 L296.992548,51.8166016 C297.295857,51.4425261 297.791311,51.2812049 298.257515,51.4047255 L298.257515,51.4047255 C298.8115,51.5044534 299.139491,51.839539 298.992495,52.16166 L295.734582,59.1176782 Z" id="Path" style="mix-blend-mode: multiply;"></path>
                    <path d="M98.0068338,10.2978988 C98.1588298,10.6200198 97.8378383,10.9561027 97.2808531,11.0458578 L97.2808531,11.0458578 C96.8149891,11.1816718 96.3129642,11.0242277 96.0088869,10.6469463 L92.7359738,3.68693899 C92.5849778,3.37179895 92.9039694,3.03072967 93.4629545,2.93698548 L93.4629545,2.93698548 C93.9302938,2.80643344 94.4306299,2.96700464 94.7339208,3.34487243 L98.0068338,10.2978988 Z" id="Path" style="mix-blend-mode: multiply;"></path>
                    <path d="M103.692683,10.6070552 C103.692683,10.939149 103.226695,11.2124033 102.647711,11.2124033 L102.647711,11.2124033 C102.076726,11.2124033 101.613738,10.939149 101.613738,10.6070552 L101.613738,3.37179895 C101.613738,3.03970518 102.076726,2.76744812 102.647711,2.76744812 L102.647711,2.76744812 C103.226695,2.76744812 103.692683,3.03970518 103.692683,3.37179895 L103.692683,10.6070552 Z" id="Path" style="mix-blend-mode: multiply;"></path>
                    <path d="M110.340506,10.6429572 C110.036928,11.0190365 109.536488,11.1763544 109.07154,11.0418687 L109.07154,11.0418687 C108.516555,10.9521136 108.192563,10.6160307 108.336559,10.3068743 L111.594473,3.3368942 C111.89785,2.95772731 112.397558,2.79369468 112.867439,2.91903447 L112.867439,2.91903447 C113.423424,3.01876233 113.741416,3.35484522 113.59542,3.66898797 L110.340506,10.6429572 Z" id="Path" style="mix-blend-mode: multiply;"></path>
                    <path d="M415.89339,7.52845616 C416.041386,7.85057715 415.716395,8.19264371 415.162409,8.28239878 L415.162409,8.28239878 C414.696396,8.40764393 414.200017,8.24926165 413.893443,7.87750367 L410.61253,0.913507199 C410.464534,0.590388932 410.794525,0.24931965 411.341511,0.159564576 L411.341511,0.159564576 C411.809085,0.0321204922 412.308005,0.192111339 412.613477,0.567451524 L415.89339,7.52845616 Z" id="Path" style="mix-blend-mode: multiply;"></path>
                    <path d="M421.567239,7.84160164 C421.567239,8.17369542 421.106251,8.4399688 420.535267,8.4399688 L420.535267,8.4399688 C419.959282,8.4399688 419.490294,8.17070358 419.490294,7.84160164 L419.490294,0.598367161 C419.490294,0.27125978 419.959282,0 420.535267,0 L420.535267,0 C421.106251,0 421.567239,0.269265222 421.567239,0.598367161 L421.567239,7.84160164 Z" id="Path" style="mix-blend-mode: multiply;"></path>
                    <path d="M428.221063,7.87750367 C427.917487,8.2511412 427.421723,8.41139074 426.956096,8.2863879 L426.956096,8.2863879 C426.401111,8.19264371 426.07412,7.85057715 426.223116,7.53244528 L429.476029,0.567451524 C429.780986,0.193282567 430.278349,0.0334141046 430.744995,0.159564576 L430.744995,0.159564576 C431.299981,0.24931965 431.628972,0.590388932 431.473976,0.913507199 L428.221063,7.87750367 Z" id="Path" style="mix-blend-mode: multiply;"></path>
                </g>
                <g id="Group" transform="translate(793.978910, 163.553691)" fill="#2BAF98" opacity="0.47">
                    <path d="M5.31373482,7.53244528 C5.46473081,7.85057715 5.14073942,8.18765732 4.58175426,8.28140151 L4.58175426,8.28140151 C4.11400504,8.40754666 3.61562592,8.2473385 3.30978805,7.87251728 L0.0378749606,0.908520806 C-0.115120975,0.593380768 0.208870419,0.257297879 0.766855597,0.162556412 L0.766855597,0.162556412 C1.23375759,0.0342023624 1.73248605,0.194901825 2.03582189,0.571440639 L5.31373482,7.53244528 Z" id="Path" style="mix-blend-mode: multiply;"></path>
                    <path d="M10.990584,7.84160164 C10.990584,8.17369542 10.5285963,8.4399688 9.95361157,8.4399688 L9.95361157,8.4399688 C9.38162677,8.4399688 8.91563914,8.1697063 8.91563914,7.84160164 L8.91563914,0.598367161 C8.91563914,0.27125978 9.38162677,0 9.95361157,0 L9.95361157,0 C10.5285963,0 10.990584,0.269265222 10.990584,0.598367161 L10.990584,7.84160164 Z" id="Path" style="mix-blend-mode: multiply;"></path>
                    <path d="M17.6414074,7.87251728 C17.3402745,8.24976173 16.843126,8.41241834 16.376441,8.2863879 L16.376441,8.2863879 C15.8234557,8.18666004 15.4924644,7.85057715 15.6404605,7.53543711 L18.897374,0.571440639 C19.2013309,0.193827871 19.7007517,0.0317186067 20.1693402,0.158567298 L20.1693402,0.158567298 C20.7233255,0.252311486 21.0473169,0.593380768 20.8983209,0.908520806 L17.6414074,7.87251728 Z" id="Path" style="mix-blend-mode: multiply;"></path>
                </g>
            </g>
        </g>
    </g>
</svg>