<?xml version="1.0" encoding="UTF-8"?>
<svg width="2006px" height="369px" viewBox="0 0 2006 369" version="1.1" xmlns="http://www.w3.org/2000/svg" xmlns:xlink="http://www.w3.org/1999/xlink">
    <title>09D9838C-DD17-4213-8484-8464A1947046</title>
    <defs>
        <linearGradient x1="50%" y1="49.0085295%" x2="52.1654507%" y2="52.0159669%" id="linearGradient-1">
            <stop stop-color="#C7FF54" offset="0%"></stop>
            <stop stop-color="#CDFD52" offset="7.9%"></stop>
            <stop stop-color="#E0F74F" offset="19%"></stop>
            <stop stop-color="#ECF44D" offset="24.6%"></stop>
            <stop stop-color="#E2EF4A" offset="28.5%"></stop>
            <stop stop-color="#C7E442" offset="35.2%"></stop>
            <stop stop-color="#9DD136" offset="43.8%"></stop>
            <stop stop-color="#71BE2A" offset="51.5%"></stop>
            <stop stop-color="#65B62A" offset="56.6%"></stop>
            <stop stop-color="#46A22C" offset="65.7%"></stop>
            <stop stop-color="#14832E" offset="77.7%"></stop>
            <stop stop-color="#007630" offset="100%"></stop>
        </linearGradient>
    </defs>
    <g id="LHRC-Staking" stroke="none" stroke-width="1" fill="none" fill-rule="evenodd">
        <g id="Landing" transform="translate(43.000000, -804.000000)" fill-rule="nonzero">
            <g id="Grass" transform="translate(960.057179, 988.224216) rotate(1.000000) translate(-960.057179, -988.224216) translate(-39.942821, 821.447323)">
                <path d="M20.1985467,43.9841302 C20.1985467,43.9841302 440.952546,22.9382005 622.20519,27.2554638 C803.457834,31.5727271 1576.64456,-18.6191035 1743.05696,20.4141274 L2000,2.55317561 L1980.4251,284.187058 L-8.78765197e-14,284.187058 L20.1985467,43.9841302 Z" id="Path" fill="url(#linearGradient-1)"></path>
                <path d="M199.069423,14.6089115 C199.211249,14.9189536 198.903312,15.2484341 198.361265,15.3397944 L198.361265,15.3397944 C197.907602,15.4659795 197.422337,15.3110105 197.12563,14.9451954 L193.943288,8.15828641 C193.794662,7.84824431 194.112313,7.51584808 194.649504,7.42740347 L194.649504,7.42740347 C195.187665,7.33993078 195.743312,7.51098848 195.882224,7.82103058 L199.069423,14.6089115 Z" id="Path" fill="#2BAF98" opacity="0.47" style="mix-blend-mode: multiply;"></path>
                <path d="M204.588008,14.9121501 C204.588008,15.2299676 204.132417,15.5059925 203.574827,15.5059925 L203.574827,15.5059925 C203.020151,15.5059925 202.565531,15.2299676 202.565531,14.9121501 L202.565531,7.85699158 C202.565531,7.52945494 203.020151,7.2738403 203.574827,7.2738403 L203.574827,7.2738403 C204.132417,7.2738403 204.588008,7.52848302 204.588008,7.85699158 L204.588008,14.9121501 Z" id="Path" fill="#2BAF98" opacity="0.47" style="mix-blend-mode: multiply;"></path>
                <path d="M211.041091,14.9451954 C210.747293,15.3146262 210.259873,15.4704058 209.806428,15.3397944 L209.806428,15.3397944 C209.277009,15.2562094 208.9545,14.9247851 209.098269,14.614743 L212.260212,7.82103058 C212.560122,7.45988943 213.041768,7.30493939 213.495846,7.42351579 L213.495846,7.42351579 C214.034979,7.51584808 214.351659,7.84338471 214.206919,8.15828641 L211.041091,14.9451954 Z" id="Path" fill="#2BAF98" opacity="0.47" style="mix-blend-mode: multiply;"></path>
                <path d="M101.383372,42.9626986 C101.531998,43.2639935 101.215318,43.5973616 100.682014,43.6935816 L100.682014,43.6935816 C100.227093,43.8145228 99.7434691,43.6588011 99.4444364,43.2950949 L96.2611229,36.507214 C96.1144398,36.2020315 96.4262627,35.872551 96.9673386,35.7773029 L96.9673386,35.7773029 C97.4204767,35.6528912 97.9043419,35.8071539 98.2020018,36.1709301 L101.383372,42.9626986 Z" id="Path" fill="#2BAF98" opacity="0.47" style="mix-blend-mode: multiply;"></path>
                <path d="M106.902929,43.2639935 C106.902929,43.5837547 106.450252,43.8413132 105.895576,43.8413132 L105.895576,43.8413132 C105.337986,43.8413132 104.881423,43.5837547 104.881423,43.2639935 L104.881423,36.2020315 C104.881423,35.8861578 105.337986,35.6188802 105.895576,35.6188802 L105.895576,35.6188802 C106.450252,35.6188802 106.902929,35.8890736 106.902929,36.2020315 L106.902929,43.2639935 Z" id="Path" fill="#2BAF98" opacity="0.47" style="mix-blend-mode: multiply;"></path>
                <path d="M113.365726,43.2950949 C113.066811,43.6596001 112.582412,43.8154488 112.127177,43.6935816 L112.127177,43.6935816 C111.589015,43.5963897 111.277192,43.2737126 111.418047,42.9626986 L114.582904,36.1709301 C114.876175,35.8038004 115.360009,35.6470267 115.81271,35.7724433 L115.81271,35.7724433 C116.353786,35.8696352 116.670466,36.1961999 116.525725,36.5033263 L113.365726,43.2950949 Z" id="Path" fill="#2BAF98" opacity="0.47" style="mix-blend-mode: multiply;"></path>
                <path d="M146.990142,85.6211867 C147.134883,85.9419199 146.82306,86.2645969 146.281984,86.3579011 L146.281984,86.3579011 C145.82485,86.4848144 145.336196,86.3255455 145.041492,85.9535829 L141.862064,79.1763931 C141.717324,78.8605195 142.030118,78.5368705 142.570223,78.4455102 L142.570223,78.4455102 C143.023269,78.3251906 143.504935,78.478752 143.804886,78.8391373 L146.990142,85.6211867 Z" id="Path" fill="#2BAF98" opacity="0.47" style="mix-blend-mode: multiply;"></path>
                <path d="M152.505813,85.928313 C152.505813,86.251962 152.053136,86.5114643 151.490689,86.5114643 L151.490689,86.5114643 C150.942813,86.5114643 150.484307,86.2490462 150.484307,85.928313 L150.484307,78.8760702 C150.484307,78.5514493 150.942813,78.2929189 151.490689,78.2929189 L151.490689,78.2929189 C152.053136,78.2929189 152.505813,78.555337 152.505813,78.8760702 L152.505813,85.928313 Z" id="Path" fill="#2BAF98" opacity="0.47" style="mix-blend-mode: multiply;"></path>
                <path d="M158.965696,85.9535829 C158.674636,86.3258837 158.188559,86.4868445 157.732976,86.3617888 L157.732976,86.3617888 C157.193842,86.2645969 156.880077,85.9419199 157.022874,85.6309059 L160.183845,78.8391373 C160.48064,78.4778485 160.96135,78.3238649 161.41268,78.4455102 L161.41268,78.4455102 C161.94987,78.5329829 162.277236,78.8605195 162.12861,79.1705616 L158.965696,85.9535829 Z" id="Path" fill="#2BAF98" opacity="0.47" style="mix-blend-mode: multiply;"></path>
                <path d="M272.906365,88.9995764 C273.05402,89.3135062 272.735397,89.6410428 272.198207,89.7333751 L272.198207,89.7333751 C271.743009,89.8567345 271.257997,89.6987941 270.962572,89.3310007 L267.779258,82.552839 C267.636461,82.2379373 267.948284,81.9084569 268.487417,81.8219561 L268.487417,81.8219561 C268.940596,81.6954433 269.425602,81.8500699 269.72208,82.2155832 L272.906365,88.9995764 Z" id="Path" fill="#2BAF98" opacity="0.47" style="mix-blend-mode: multiply;"></path>
                <path d="M278.422036,89.3008712 C278.422036,89.6284079 277.974216,89.8840225 277.414683,89.8840225 L277.414683,89.8840225 C276.857093,89.8840225 276.399559,89.6254921 276.399559,89.3008712 L276.399559,82.2457127 C276.399559,81.9220637 276.857093,81.6625614 277.414683,81.6625614 L277.414683,81.6625614 C277.974216,81.6625614 278.422036,81.9240076 278.422036,82.2457127 L278.422036,89.3008712 Z" id="Path" fill="#2BAF98" opacity="0.47" style="mix-blend-mode: multiply;"></path>
                <path d="M284.881919,89.3310007 C284.587509,89.7009596 284.101787,89.8609155 283.645312,89.7382347 L283.645312,89.7382347 C283.112008,89.6410428 282.794357,89.3135062 282.942011,89.0024922 L286.103953,82.2155832 C286.400928,81.8494828 286.885858,81.693218 287.34056,81.8170965 L287.34056,81.8170965 C287.871921,81.9084569 288.191515,82.2379373 288.046775,82.552839 L284.881919,89.3310007 Z" id="Path" fill="#2BAF98" opacity="0.47" style="mix-blend-mode: multiply;"></path>
                <path d="M294.27449,35.681083 C294.420202,35.9911251 294.106436,36.3196336 293.566332,36.410994 L293.566332,36.410994 C293.112475,36.5288199 292.631298,36.3757755 292.328754,36.0173669 L289.149327,29.2304579 C288.998758,28.9194439 289.319323,28.5909353 289.852628,28.5083222 L289.852628,28.5083222 C290.306582,28.3810546 290.792854,28.5334512 291.09312,28.8970898 L294.27449,35.681083 Z" id="Path" fill="#2BAF98" opacity="0.47" style="mix-blend-mode: multiply;"></path>
                <path d="M299.788219,35.9862655 C299.788219,36.3099144 299.340398,36.5694168 298.780866,36.5694168 L298.780866,36.5694168 C298.223276,36.5694168 297.77157,36.3108864 297.77157,35.9862655 L297.77157,28.9272192 C297.77157,28.6006545 298.223276,28.344068 298.780866,28.344068 L298.780866,28.344068 C299.340398,28.344068 299.788219,28.6035703 299.788219,28.9272192 L299.788219,35.9862655 Z" id="Path" fill="#2BAF98" opacity="0.47" style="mix-blend-mode: multiply;"></path>
                <path d="M306.251015,36.0144511 C305.953703,36.3788761 305.47115,36.5361392 305.016352,36.4168255 L305.016352,36.4168255 C304.479162,36.3196336 304.161511,35.9930689 304.310136,35.6820549 L307.46625,28.8912582 C307.767213,28.5285209 308.250982,28.3731184 308.706742,28.4927715 L308.706742,28.4927715 C309.240047,28.5899634 309.562555,28.9165281 309.413929,29.2275421 L306.251015,36.0144511 Z" id="Path" fill="#2BAF98" opacity="0.47" style="mix-blend-mode: multiply;"></path>
                <path d="M404.165348,20.1556521 C404.313002,20.4695818 403.999236,20.7971185 403.457189,20.8845912 L403.457189,20.8845912 C403.004646,21.0155869 402.517715,20.8623837 402.221554,20.4958237 L399.037269,13.7079428 C398.893501,13.3969287 399.210181,13.0684202 399.745428,12.9780317 L399.745428,12.9780317 C400.19882,12.851653 400.683846,13.0080591 400.978148,13.3755465 L404.165348,20.1556521 Z" id="Path" fill="#2BAF98" opacity="0.47" style="mix-blend-mode: multiply;"></path>
                <path d="M409.685876,20.4569469 C409.685876,20.7805959 409.23417,21.0400982 408.670751,21.0400982 L408.670751,21.0400982 C408.113161,21.0400982 407.661455,20.778652 407.661455,20.4569469 L407.661455,13.4066479 C407.661455,13.0781394 408.113161,12.8118336 408.670751,12.8118336 L408.670751,12.8118336 C409.23417,12.8118336 409.685876,13.0781394 409.685876,13.4066479 L409.685876,20.4569469 Z" id="Path" fill="#2BAF98" opacity="0.47" style="mix-blend-mode: multiply;"></path>
                <path d="M416.14673,20.491936 C415.8507,20.8600256 415.364009,21.0163526 414.909152,20.8894508 L414.909152,20.8894508 C414.372933,20.7971185 414.053339,20.4695818 414.200994,20.1585678 L417.361965,13.3716588 C417.654724,13.0019396 418.141242,12.8450525 418.594685,12.9741441 L418.594685,12.9741441 C419.131875,13.0645325 419.451469,13.3930411 419.312558,13.6953078 L416.14673,20.491936 Z" id="Path" fill="#2BAF98" opacity="0.47" style="mix-blend-mode: multiply;"></path>
                <path d="M388.137068,97.7721155 C388.286665,98.0870172 387.969985,98.4155258 387.434738,98.5020265 L387.434738,98.5020265 C386.978994,98.6296706 386.49107,98.4733156 386.194246,98.1045117 L383.013847,91.32635 C382.866192,91.015336 383.182872,90.6819679 383.720063,90.5954671 L383.720063,90.5954671 C384.173102,90.4704913 384.657304,90.6225965 384.95764,90.9842346 L388.137068,97.7721155 Z" id="Path" fill="#2BAF98" opacity="0.47" style="mix-blend-mode: multiply;"></path>
                <path d="M393.656625,98.0743823 C393.656625,98.4019189 393.20589,98.664337 392.644414,98.664337 L392.644414,98.664337 C392.089739,98.664337 391.635118,98.4019189 391.635118,98.0743823 L391.635118,91.0250552 C391.635118,90.7014062 392.089739,90.4419039 392.644414,90.4419039 L392.644414,90.4419039 C393.20589,90.4419039 393.656625,90.704322 393.656625,91.0250552 L393.656625,98.0743823 Z" id="Path" fill="#2BAF98" opacity="0.47" style="mix-blend-mode: multiply;"></path>
                <path d="M400.117478,98.1045117 C399.822204,98.4719898 399.338624,98.6314909 398.882815,98.5117457 L398.882815,98.5117457 C398.346596,98.4145538 398.026031,98.0870172 398.174657,97.7721155 L401.334656,90.9842346 C401.633622,90.6224497 402.117152,90.470197 402.569319,90.5954671 L402.569319,90.5954671 C403.107481,90.6819679 403.426104,91.0065887 403.277478,91.3205185 L400.117478,98.1045117 Z" id="Path" fill="#2BAF98" opacity="0.47" style="mix-blend-mode: multiply;"></path>
                <path d="M507.186387,61.9967564 C507.336956,62.3155458 507.020276,62.6450262 506.486,62.7354147 L506.486,62.7354147 C506.030144,62.8588888 505.544325,62.702828 505.245508,62.336928 L502.068023,55.5539067 C501.91454,55.2428927 502.230249,54.9114684 502.771324,54.8239957 L502.771324,54.8239957 C503.223474,54.6997568 503.706447,54.8518342 504.005988,55.2127632 L507.186387,61.9967564 Z" id="Path" fill="#2BAF98" opacity="0.47" style="mix-blend-mode: multiply;"></path>
                <path d="M512.704972,62.3067985 C512.704972,62.6304475 512.25618,62.8899498 511.702476,62.8899498 L511.702476,62.8899498 C511.141001,62.8899498 510.681523,62.6275317 510.681523,62.3067985 L510.681523,55.2526119 C510.681523,54.9289629 511.141001,54.6694606 511.702476,54.6694606 L511.702476,54.6694606 C512.25618,54.6694606 512.704972,54.927991 512.704972,55.2526119 L512.704972,62.3067985 Z" id="Path" fill="#2BAF98" opacity="0.47" style="mix-blend-mode: multiply;"></path>
                <path d="M519.16874,62.336928 C518.872246,62.7024831 518.388184,62.858714 517.934077,62.7354147 L517.934077,62.7354147 C517.39883,62.6450262 517.081178,62.3204054 517.225918,62.0103633 L520.387861,55.2127632 C520.684509,54.8513221 521.166283,54.6989029 521.616696,54.8239957 L521.616696,54.8239957 C522.155829,54.9114684 522.472509,55.2428927 522.32874,55.550019 L519.16874,62.336928 Z" id="Path" fill="#2BAF98" opacity="0.47" style="mix-blend-mode: multiply;"></path>
                <path d="M464.458879,158.516069 C464.607505,158.826111 464.28791,159.158507 463.751692,159.250839 L463.751692,159.250839 C463.299212,159.377309 462.814755,159.224885 462.516057,158.862072 L459.327886,152.073219 C459.184118,151.758317 459.500798,151.431752 460.041873,151.334561 L460.041873,151.334561 C460.496822,151.209501 460.982484,151.367777 461.276537,151.736935 L464.458879,158.516069 Z" id="Path" fill="#2BAF98" opacity="0.47" style="mix-blend-mode: multiply;"></path>
                <path d="M469.971636,158.826111 C469.971636,159.141984 469.51993,159.409262 468.964283,159.409262 L468.964283,159.409262 C468.40475,159.409262 467.95013,159.143928 467.95013,158.826111 L467.95013,151.76998 C467.95013,151.442444 468.40475,151.175166 468.964283,151.175166 L468.964283,151.175166 C469.51993,151.175166 469.971636,151.442444 469.971636,151.76998 L469.971636,158.826111 Z" id="Path" fill="#2BAF98" opacity="0.47" style="mix-blend-mode: multiply;"></path>
                <path d="M476.434432,158.864987 C476.134749,159.225704 475.651914,159.377737 475.199769,159.253755 L475.199769,159.253755 C474.666464,159.156563 474.345899,158.825139 474.487725,158.522872 L477.653553,151.735963 C477.944953,151.36485 478.431168,151.206018 478.885302,151.333589 L478.885302,151.333589 C479.422492,151.430781 479.739172,151.757345 479.597346,152.068359 L476.434432,158.864987 Z" id="Path" fill="#2BAF98" opacity="0.47" style="mix-blend-mode: multiply;"></path>
                <path d="M340.002687,166.323492 C340.145484,166.637422 339.830747,166.961071 339.2955,167.048544 L339.2955,167.048544 C338.842389,167.17824 338.355621,167.025328 338.057922,166.659776 L334.874609,159.875783 C334.723069,159.565741 335.04072,159.23626 335.579853,159.141012 L335.579853,159.141012 C336.034649,159.017014 336.519761,159.172834 336.81743,159.538527 L340.002687,166.323492 Z" id="Path" fill="#2BAF98" opacity="0.47" style="mix-blend-mode: multiply;"></path>
                <path d="M345.520301,166.619928 C345.520301,166.948436 345.06568,167.203079 344.507119,167.203079 L344.507119,167.203079 C343.947586,167.203079 343.498795,166.94552 343.498795,166.619928 L343.498795,159.569629 C343.498795,159.242092 343.947586,158.979674 344.507119,158.979674 L344.507119,158.979674 C345.06568,158.979674 345.520301,159.242092 345.520301,159.569629 L345.520301,166.619928 Z" id="Path" fill="#2BAF98" opacity="0.47" style="mix-blend-mode: multiply;"></path>
                <path d="M351.980183,166.655889 C351.683222,167.020732 351.199239,167.176175 350.74552,167.052431 L350.74552,167.052431 C350.204444,166.961071 349.892621,166.637422 350.035418,166.323492 L353.200275,159.534639 C353.493478,159.167424 353.977565,159.010951 354.430081,159.137125 L354.430081,159.137125 C354.971157,159.234317 355.283952,159.561853 355.139211,159.867036 L351.980183,166.655889 Z" id="Path" fill="#2BAF98" opacity="0.47" style="mix-blend-mode: multiply;"></path>
                <path d="M208.739819,160.921568 C208.887473,161.236469 208.56885,161.564978 208.034574,161.652451 L208.034574,161.652451 C207.58004,161.782621 207.091938,161.625211 206.79894,161.253964 L203.617569,154.470943 C203.471857,154.163816 203.786594,153.83142 204.321842,153.74006 L204.321842,153.74006 C204.776933,153.615902 205.262407,153.771716 205.560391,154.137574 L208.739819,160.921568 Z" id="Path" fill="#2BAF98" opacity="0.47" style="mix-blend-mode: multiply;"></path>
                <path d="M214.258404,161.228694 C214.258404,161.555259 213.802812,161.811845 213.248137,161.811845 L213.248137,161.811845 C212.687632,161.811845 212.238841,161.558174 212.238841,161.228694 L212.238841,154.173535 C212.238841,153.844055 212.687632,153.581637 213.248137,153.581637 L213.248137,153.581637 C213.802812,153.581637 214.258404,153.844055 214.258404,154.173535 L214.258404,161.228694 Z" id="Path" fill="#2BAF98" opacity="0.47" style="mix-blend-mode: multiply;"></path>
                <path d="M220.721201,161.253964 C220.427905,161.625448 219.940184,161.784146 219.484594,161.656338 L219.484594,161.656338 C218.950318,161.564978 218.631696,161.236469 218.777407,160.921568 L221.936436,154.137574 C222.234291,153.770903 222.720553,153.614958 223.175956,153.74006 L223.175956,153.74006 C223.711203,153.83142 224.02594,154.155069 223.879257,154.470943 L220.721201,161.253964 Z" id="Path" fill="#2BAF98" opacity="0.47" style="mix-blend-mode: multiply;"></path>
                <path d="M95.79096,170.368618 C95.9415287,170.687408 95.6258201,171.006197 95.0896013,171.103389 L95.0896013,171.103389 C94.6340221,171.227483 94.1481453,171.071281 93.850081,170.704902 L90.667739,163.918965 C90.525913,163.607951 90.8387073,163.279443 91.3758975,163.19197 L91.3758975,163.19197 C91.8286805,163.064817 92.3137844,163.217325 92.6125036,163.580737 L95.79096,170.368618 Z" id="Path" fill="#2BAF98" opacity="0.47" style="mix-blend-mode: multiply;"></path>
                <path d="M101.316345,170.669913 C101.316345,170.99745 100.863668,171.253064 100.305106,171.253064 L100.305106,171.253064 C99.7426595,171.253064 99.2919248,170.994534 99.2919248,170.669913 L99.2919248,163.619614 C99.2919248,163.299853 99.7426595,163.028688 100.305106,163.028688 L100.305106,163.028688 C100.863668,163.028688 101.316345,163.299853 101.316345,163.619614 L101.316345,170.669913 Z" id="Path" fill="#2BAF98" opacity="0.47" style="mix-blend-mode: multiply;"></path>
                <path d="M107.776228,170.704902 C107.47892,171.071765 106.992981,171.228109 106.537679,171.103389 L106.537679,171.103389 C106.004374,171.006197 105.683809,170.687408 105.832434,170.372506 L108.992434,163.584625 C109.288831,163.220108 109.770932,163.062745 110.225154,163.182251 L110.225154,163.182251 C110.762345,163.279443 111.079025,163.594344 110.935256,163.917993 L107.776228,170.704902 Z" id="Path" fill="#2BAF98" opacity="0.47" style="mix-blend-mode: multiply;"></path>
                <path d="M166.008425,247.309598 C166.153165,247.620612 165.831628,247.953008 165.300266,248.044369 L165.300266,248.044369 C164.84576,248.169633 164.360017,248.01764 164.057832,247.655601 L160.879375,240.87258 C160.734635,240.552819 161.046458,240.225282 161.58462,240.13295 L161.58462,240.13295 C162.03861,240.00961 162.522727,240.16359 162.822197,240.526577 L166.008425,247.309598 Z" id="Path" fill="#2BAF98" opacity="0.47" style="mix-blend-mode: multiply;"></path>
                <path d="M171.52021,247.613809 C171.52021,247.932598 171.070447,248.204735 170.513829,248.204735 L170.513829,248.204735 C169.951382,248.204735 169.503561,247.932598 169.503561,247.613809 L169.503561,240.56351 C169.503561,240.232086 169.951382,239.980359 170.513829,239.980359 L170.513829,239.980359 C171.070447,239.980359 171.52021,240.235973 171.52021,240.56351 L171.52021,247.613809 Z" id="Path" fill="#2BAF98" opacity="0.47" style="mix-blend-mode: multiply;"></path>
                <path d="M177.983978,247.652686 C177.686957,248.016092 177.202875,248.168759 176.751258,248.041453 L176.751258,248.041453 C176.213096,247.95398 175.896416,247.621584 176.0363,247.311542 L179.202128,240.518802 C179.497851,240.155877 179.978855,240.000277 180.430962,240.121287 L180.430962,240.121287 C180.973981,240.218479 181.287747,240.545043 181.143007,240.85217 L177.983978,247.652686 Z" id="Path" fill="#2BAF98" opacity="0.47" style="mix-blend-mode: multiply;"></path>
                <path d="M301.844696,258.110532 C301.991379,258.420574 301.67567,258.75297 301.139451,258.845302 L301.139451,258.845302 C300.605175,258.932775 300.041757,258.75783 299.903817,258.450703 L296.719532,251.662823 C296.572849,251.361528 296.888557,251.029131 297.425747,250.932911 L297.425747,250.932911 C297.878542,250.804969 298.364076,250.957613 298.662353,251.321679 L301.844696,258.110532 Z" id="Path" fill="#2BAF98" opacity="0.47" style="mix-blend-mode: multiply;"></path>
                <path d="M307.359395,258.415714 C307.359395,258.745195 306.907689,258.998866 306.349128,258.998866 L306.349128,258.998866 C305.792509,258.998866 305.339832,258.742279 305.339832,258.415714 L305.339832,251.361528 C305.339832,251.046626 305.792509,250.778376 306.349128,250.778376 L306.349128,250.778376 C306.907689,250.778376 307.359395,251.04857 307.359395,251.361528 L307.359395,258.415714 Z" id="Path" fill="#2BAF98" opacity="0.47" style="mix-blend-mode: multiply;"></path>
                <path d="M313.82122,258.450703 C313.522518,258.812327 313.040502,258.966501 312.587529,258.845302 L312.587529,258.845302 C312.05131,258.748111 311.732687,258.425434 311.876456,258.118307 L315.042284,251.326539 C315.334883,250.957209 315.820888,250.800364 316.274033,250.929024 L316.274033,250.929024 C316.810252,251.026216 317.128875,251.348893 316.985106,251.662823 L313.82122,258.450703 Z" id="Path" fill="#2BAF98" opacity="0.47" style="mix-blend-mode: multiply;"></path>
                <path d="M436.153908,251.361528 C436.298648,251.680317 435.98294,252.003966 435.447693,252.09727 L435.447693,252.09727 C434.991686,252.221784 434.505332,252.063274 434.210115,251.693924 L431.030687,244.91479 C430.88109,244.600861 431.200684,244.277212 431.738846,244.184879 L431.738846,244.184879 C432.190478,244.056511 432.675141,244.209361 432.971566,244.573647 L436.153908,251.361528 Z" id="Path" fill="#2BAF98" opacity="0.47" style="mix-blend-mode: multiply;"></path>
                <path d="M441.670551,251.662823 C441.670551,251.991331 441.219816,252.258609 440.663198,252.258609 L440.663198,252.258609 C440.105608,252.258609 439.655845,251.991331 439.655845,251.662823 L439.655845,244.613495 C439.655845,244.284987 440.105608,244.022569 440.663198,244.022569 L440.663198,244.022569 C441.219816,244.022569 441.670551,244.284987 441.670551,244.613495 L441.670551,251.662823 Z" id="Path" fill="#2BAF98" opacity="0.47" style="mix-blend-mode: multiply;"></path>
                <path d="M448.132376,251.693924 C447.840899,252.066174 447.353614,252.225488 446.898684,252.09727 L446.898684,252.09727 C446.36538,252.000078 446.045785,251.680317 446.192468,251.370275 L449.353439,244.578506 C449.648312,244.213635 450.129877,244.056074 450.583246,244.176132 L450.583246,244.176132 C451.120436,244.273324 451.44003,244.600861 451.296261,244.91479 L448.132376,251.693924 Z" id="Path" fill="#2BAF98" opacity="0.47" style="mix-blend-mode: multiply;"></path>
                <path d="M510.945747,301.312322 C511.090487,301.622365 510.772836,301.949901 510.244388,302.047093 L510.244388,302.047093 C509.786309,302.166291 509.300554,302.011222 508.996125,301.648606 L505.817669,294.860725 C505.669043,294.555543 505.98378,294.222175 506.525827,294.129843 L506.525827,294.129843 C506.978867,294.004867 507.463069,294.156972 507.763405,294.51861 L510.945747,301.312322 Z" id="Path" fill="#2BAF98" opacity="0.47" style="mix-blend-mode: multiply;"></path>
                <path d="M516.465304,301.60973 C516.465304,301.941154 516.007769,302.192881 515.452122,302.192881 L515.452122,302.192881 C514.894532,302.192881 514.440883,301.938238 514.440883,301.60973 L514.440883,294.558459 C514.440883,294.230922 514.894532,293.975307 515.452122,293.975307 L515.452122,293.975307 C516.007769,293.975307 516.465304,294.228978 516.465304,294.558459 L516.465304,301.60973 Z" id="Path" fill="#2BAF98" opacity="0.47" style="mix-blend-mode: multiply;"></path>
                <path d="M522.923243,301.648606 C522.626259,302.010947 522.145314,302.166662 521.692466,302.047093 L521.692466,302.047093 C521.149447,301.949901 520.831796,301.622365 520.97945,301.315238 L524.142364,294.519582 C524.440703,294.158127 524.923506,294.005864 525.375084,294.130814 L525.375084,294.130814 C525.911303,294.223147 526.23284,294.546796 526.083243,294.85295 L522.923243,301.648606 Z" id="Path" fill="#2BAF98" opacity="0.47" style="mix-blend-mode: multiply;"></path>
                <path d="M396.475659,314.808387 C396.619428,315.123289 396.302748,315.445966 395.763615,315.543158 L395.763615,315.543158 C395.310097,315.666139 394.82676,315.509896 394.530894,315.144671 L391.343695,308.366509 C391.199926,308.04772 391.515635,307.719211 392.056711,307.636598 L392.056711,307.636598 C392.508328,307.509292 392.99241,307.661959 393.289431,308.025366 L396.475659,314.808387 Z" id="Path" fill="#2BAF98" opacity="0.47" style="mix-blend-mode: multiply;"></path>
                <path d="M401.997158,315.109682 C401.997158,315.439162 401.544481,315.700608 400.982034,315.700608 L400.982034,315.700608 C400.427358,315.700608 399.976624,315.439162 399.976624,315.109682 L399.976624,308.060355 C399.976624,307.736706 400.427358,307.4704 400.982034,307.4704 L400.982034,307.4704 C401.544481,307.4704 401.997158,307.736706 401.997158,308.060355 L401.997158,315.109682 Z" id="Path" fill="#2BAF98" opacity="0.47" style="mix-blend-mode: multiply;"></path>
                <path d="M408.451212,315.144671 C408.156213,315.512403 407.670714,315.669097 407.216549,315.543158 L407.216549,315.543158 C406.683245,315.451797 406.36365,315.123289 406.508391,314.813247 L409.66839,308.020506 C409.967977,307.65832 410.451318,307.504467 410.904996,307.626879 L410.904996,307.626879 C411.439272,307.724071 411.756924,308.04772 411.613155,308.353874 L408.451212,315.144671 Z" id="Path" fill="#2BAF98" opacity="0.47" style="mix-blend-mode: multiply;"></path>
                <path d="M205.684731,320.210312 C205.832386,320.520354 205.51862,320.844003 204.985316,320.935363 L204.985316,320.935363 C204.529332,321.061429 204.041772,320.909461 203.738024,320.546596 L200.562482,313.758715 C200.411913,313.456448 200.731507,313.124052 201.266755,313.032691 L201.266755,313.032691 C201.720338,312.898078 202.210096,313.054097 202.502389,313.426318 L205.684731,320.210312 Z" id="Path" fill="#2BAF98" opacity="0.47" style="mix-blend-mode: multiply;"></path>
                <path d="M211.205259,320.511606 C211.205259,320.834283 210.754525,321.094758 210.199849,321.094758 L210.199849,321.094758 C209.635459,321.094758 209.178896,320.83234 209.178896,320.511606 L209.178896,313.456448 C209.178896,313.137659 209.635459,312.873297 210.199849,312.873297 L210.199849,312.873297 C210.754525,312.873297 211.205259,313.140574 211.205259,313.456448 L211.205259,320.511606 Z" id="Path" fill="#2BAF98" opacity="0.47" style="mix-blend-mode: multiply;"></path>
                <path d="M217.669999,320.542708 C217.369484,320.906719 216.884446,321.062028 216.428536,320.940223 L216.428536,320.940223 C215.900088,320.843031 215.57758,320.520354 215.720377,320.214199 L218.885234,313.422431 C219.177814,313.051141 219.664703,312.892082 220.119897,313.019084 L220.119897,313.019084 C220.651259,313.116276 220.97571,313.439925 220.829999,313.754827 L217.669999,320.542708 Z" id="Path" fill="#2BAF98" opacity="0.47" style="mix-blend-mode: multiply;"></path>
                <path d="M256.052386,204.115583 C256.200041,204.429513 255.888218,204.757049 255.34617,204.844522 L255.34617,204.844522 C254.893909,204.97645 254.406738,204.823051 254.111507,204.455754 L250.931108,197.672733 C250.785396,197.365607 251.094305,197.033211 251.637324,196.94185 L251.637324,196.94185 C252.091319,196.814348 252.577512,196.970884 252.871987,197.339365 L256.052386,204.115583 Z" id="Path" fill="#2BAF98" opacity="0.47" style="mix-blend-mode: multiply;"></path>
                <path d="M261.575828,204.416878 C261.575828,204.740527 261.12218,205.006832 260.559733,205.006832 L260.559733,205.006832 C260.006028,205.006832 259.555294,204.740527 259.555294,204.416878 L259.555294,197.365607 C259.555294,197.041958 260.006028,196.776624 260.559733,196.776624 L260.559733,196.776624 C261.12218,196.776624 261.575828,197.041958 261.575828,197.365607 L261.575828,204.416878 Z" id="Path" fill="#2BAF98" opacity="0.47" style="mix-blend-mode: multiply;"></path>
                <path d="M268.033768,204.447979 C267.738861,204.814495 267.252715,204.967813 266.801048,204.836747 L266.801048,204.836747 C266.260943,204.749274 265.946206,204.421737 266.086089,204.120442 L269.251917,197.327702 C269.546314,196.958341 270.031386,196.798474 270.487552,196.920468 L270.487552,196.920468 C271.027656,197.01766 271.336565,197.345197 271.19571,197.651351 L268.033768,204.447979 Z" id="Path" fill="#2BAF98" opacity="0.47" style="mix-blend-mode: multiply;"></path>
                <path d="M564.366546,116.381445 C564.511286,116.68274 564.193635,117.006389 563.654502,117.107468 L563.654502,117.107468 C563.201458,117.232701 562.717117,117.080552 562.416925,116.718701 L559.234582,109.931792 C559.089842,109.624665 559.409436,109.292269 559.947598,109.200909 L559.947598,109.200909 C560.39919,109.075178 560.882415,109.227575 561.180318,109.589676 L564.366546,116.381445 Z" id="Path" fill="#2BAF98" opacity="0.47" style="mix-blend-mode: multiply;"></path>
                <path d="M569.883189,116.683712 C569.883189,116.999585 569.428568,117.262003 568.873893,117.262003 L568.873893,117.262003 C568.309503,117.262003 567.861683,116.999585 567.861683,116.683712 L567.861683,109.624665 C567.861683,109.298101 568.309503,109.041514 568.873893,109.041514 L568.873893,109.041514 C569.428568,109.041514 569.883189,109.301016 569.883189,109.624665 L569.883189,116.683712 Z" id="Path" fill="#2BAF98" opacity="0.47" style="mix-blend-mode: multiply;"></path>
                <path d="M576.344042,116.713841 C576.043473,117.077787 575.558668,117.233401 575.102579,117.112328 L575.102579,117.112328 C574.569275,117.015136 574.252595,116.691487 574.396364,116.381445 L577.562192,109.589676 C577.858566,109.227201 578.341273,109.074608 578.791998,109.200909 L578.791998,109.200909 C579.334045,109.292269 579.647811,109.624665 579.503071,109.922072 L576.344042,116.713841 Z" id="Path" fill="#2BAF98" opacity="0.47" style="mix-blend-mode: multiply;"></path>
                <path d="M668.151114,67.7816171 C668.301683,68.0887434 667.981118,68.4162801 667.446842,68.5086124 L667.446842,68.5086124 C666.992908,68.6345831 666.507338,68.4824065 666.20635,68.1198448 L663.023036,61.3368235 C662.877325,61.0219218 663.187205,60.6982729 663.730223,60.6020529 L663.730223,60.6020529 C664.182732,60.4737404 664.668191,60.6264805 664.965858,60.9908204 L668.151114,67.7816171 Z" id="Path" fill="#2BAF98" opacity="0.47" style="mix-blend-mode: multiply;"></path>
                <path d="M673.6697,68.0877715 C673.6697,68.405589 673.215079,68.6777262 672.655547,68.6777262 L672.655547,68.6777262 C672.097957,68.6777262 671.647222,68.405589 671.647222,68.0877715 L671.647222,61.0287253 C671.647222,60.7050763 672.097957,60.445574 672.655547,60.445574 L672.655547,60.445574 C673.215079,60.445574 673.6697,60.7041044 673.6697,61.0287253 L673.6697,68.0877715 Z" id="Path" fill="#2BAF98" opacity="0.47" style="mix-blend-mode: multiply;"></path>
                <path d="M680.130554,68.1149852 C679.833826,68.4801844 679.349803,68.6360214 678.89589,68.5125 L678.89589,68.5125 C678.3587,68.4153082 678.039106,68.0887434 678.185789,67.7816171 L681.350646,60.9908204 C681.644579,60.6259088 682.126633,60.4698464 682.578509,60.5933057 L682.578509,60.5933057 C683.118613,60.6904975 683.437236,61.0170623 683.286668,61.3319639 L680.130554,68.1149852 Z" id="Path" fill="#2BAF98" opacity="0.47" style="mix-blend-mode: multiply;"></path>
                <path d="M778.043914,40.7894882 C778.189626,41.0917549 777.871975,41.4231792 777.337699,41.5106519 L777.337699,41.5106519 C776.883961,41.6359038 776.399087,41.4815625 776.101093,41.1170248 L772.920693,34.3340035 C772.770125,34.0229895 773.080005,33.6905933 773.623023,33.5943733 L773.623023,33.5943733 C774.078073,33.4732242 774.561772,33.6312416 774.857687,33.9977196 L778.043914,40.7894882 Z" id="Path" fill="#2BAF98" opacity="0.47" style="mix-blend-mode: multiply;"></path>
                <path d="M783.567357,41.0820357 C783.567357,41.4066566 783.111765,41.665187 782.556118,41.665187 L782.556118,41.665187 C781.993671,41.665187 781.542936,41.4076285 781.542936,41.0820357 L781.542936,34.0278491 C781.542936,33.7090597 781.993671,33.4446978 782.556118,33.4446978 L782.556118,33.4446978 C783.111765,33.4446978 783.567357,33.7119755 783.567357,34.0278491 L783.567357,41.0820357 Z" id="Path" fill="#2BAF98" opacity="0.47" style="mix-blend-mode: multiply;"></path>
                <path d="M790.026268,41.1170248 C789.726726,41.4818601 789.241601,41.6376981 788.785776,41.5155115 L788.785776,41.5155115 C788.248586,41.4231792 787.929963,41.0956426 788.075675,40.7894882 L791.243446,33.9977196 C791.378472,33.681846 791.934119,33.5069006 792.47228,33.5943733 L792.47228,33.5943733 C793.013356,33.6915652 793.326151,34.0191018 793.180439,34.3252563 L790.026268,41.1170248 Z" id="Path" fill="#2BAF98" opacity="0.47" style="mix-blend-mode: multiply;"></path>
                <path d="M901.664693,47.5297451 C901.819147,47.8436748 901.499553,48.1760711 900.962363,48.2635438 L900.962363,48.2635438 C900.50982,48.3873768 900.026821,48.2331477 899.729643,47.8699166 L896.547301,41.0820357 C896.397703,40.768106 896.717297,40.4395974 897.249631,40.3482371 L897.249631,40.3482371 C897.705056,40.2213188 898.191998,40.3821819 898.482351,40.755471 L901.664693,47.5297451 Z" id="Path" fill="#2BAF98" opacity="0.47" style="mix-blend-mode: multiply;"></path>
                <path d="M907.186193,47.8397872 C907.186193,48.1546889 906.740315,48.4229384 906.175925,48.4229384 L906.175925,48.4229384 C905.62125,48.4229384 905.170515,48.1566327 905.170515,47.8397872 L905.170515,40.7894882 C905.170515,40.4483447 905.62125,40.1898143 906.175925,40.1898143 L906.175925,40.1898143 C906.740315,40.1898143 907.186193,40.4483447 907.186193,40.7894882 L907.186193,47.8397872 Z" id="Path" fill="#2BAF98" opacity="0.47" style="mix-blend-mode: multiply;"></path>
                <path d="M913.651903,47.8718605 C913.35213,48.2351017 912.868551,48.390687 912.413355,48.2703472 L912.413355,48.2703472 C911.877136,48.1780149 911.561427,47.8456187 911.705196,47.5316889 L914.871024,40.7574149 C915.160091,40.3823047 915.648269,40.2210332 916.103745,40.3501809 L916.103745,40.3501809 C916.641906,40.4415413 916.959558,40.7651902 916.81676,41.0839796 L913.651903,47.8718605 Z" id="Path" fill="#2BAF98" opacity="0.47" style="mix-blend-mode: multiply;"></path>
                <path d="M848.249722,108.277586 C848.397377,108.587628 848.08264,108.916136 847.539621,109.007497 L847.539621,109.007497 C847.085238,109.130175 846.601235,108.974086 846.303986,108.60901 L843.12553,101.822101 C842.976904,101.514975 843.291641,101.187438 843.832717,101.095106 L843.832717,101.095106 C844.286294,100.969483 844.771068,101.12619 845.065437,101.493593 L848.249722,108.277586 Z" id="Path" fill="#2BAF98" opacity="0.47" style="mix-blend-mode: multiply;"></path>
                <path d="M853.765393,108.579853 C853.765393,108.903502 853.316602,109.163004 852.75804,109.163004 L852.75804,109.163004 C852.202393,109.163004 851.749716,108.900586 851.749716,108.579853 L851.749716,101.521778 C851.749716,101.202017 852.202393,100.938627 852.75804,100.938627 L852.75804,100.938627 C853.316602,100.938627 853.765393,101.201045 853.765393,101.521778 L853.765393,108.579853 Z" id="Path" fill="#2BAF98" opacity="0.47" style="mix-blend-mode: multiply;"></path>
                <path d="M860.226247,108.60901 C859.933868,108.97688 859.450774,109.135448 858.997412,109.012356 L858.997412,109.012356 C858.460222,108.915165 858.138685,108.587628 858.282454,108.281473 L861.446339,101.493593 C861.741464,101.125365 862.226763,100.967331 862.681974,101.091218 L862.681974,101.091218 C863.219164,101.182579 863.534873,101.514975 863.390133,101.822101 L860.226247,108.60901 Z" id="Path" fill="#2BAF98" opacity="0.47" style="mix-blend-mode: multiply;"></path>
                <path d="M743.430602,112.322712 C743.576313,112.636642 743.260605,112.966122 742.7273,113.057482 L742.7273,113.057482 C742.272227,113.185238 741.784907,113.028326 741.489723,112.658996 L738.305438,105.872087 C738.163612,105.570792 738.477377,105.233536 739.01651,105.146063 L739.01651,105.146063 C739.468135,105.018228 739.952507,105.170986 740.249231,105.534831 L743.430602,112.322712 Z" id="Path" fill="#2BAF98" opacity="0.47" style="mix-blend-mode: multiply;"></path>
                <path d="M748.947244,112.628866 C748.947244,112.947656 748.496509,113.218821 747.939891,113.218821 L747.939891,113.218821 C747.378415,113.218821 746.932538,112.947656 746.932538,112.628866 L746.932538,105.573708 C746.932538,105.250059 747.378415,104.984725 747.939891,104.984725 L747.939891,104.984725 C748.496509,104.984725 748.947244,105.250059 748.947244,105.573708 L748.947244,112.628866 Z" id="Path" fill="#2BAF98" opacity="0.47" style="mix-blend-mode: multiply;"></path>
                <path d="M755.411983,112.658996 C755.2721,112.978757 754.716453,113.153702 754.175377,113.062342 L754.175377,113.062342 C753.638187,112.974869 753.320536,112.636642 753.463333,112.327571 L756.62819,105.539691 C756.922935,105.173564 757.408568,105.020288 757.859939,105.150923 L757.859939,105.150923 C758.397129,105.238396 758.716723,105.565932 758.57004,105.876946 L755.411983,112.658996 Z" id="Path" fill="#2BAF98" opacity="0.47" style="mix-blend-mode: multiply;"></path>
                <path d="M564.859052,201.416564 C565.001849,201.730494 564.68614,202.063862 564.14895,202.151335 L564.14895,202.151335 C563.696242,202.273652 563.213902,202.119253 562.91623,201.756736 L559.729031,194.969827 C559.58429,194.654925 559.905827,194.322529 560.437189,194.235056 L560.437189,194.235056 C560.891402,194.111115 561.37593,194.266992 561.672824,194.632571 L564.859052,201.416564 Z" id="Path" fill="#2BAF98" opacity="0.47" style="mix-blend-mode: multiply;"></path>
                <path d="M570.370837,201.721747 C570.370837,202.045396 569.923017,202.304898 569.367369,202.304898 L569.367369,202.304898 C568.807837,202.304898 568.353217,202.04248 568.353217,201.721747 L568.353217,194.662701 C568.353217,194.343911 568.807837,194.079549 569.367369,194.079549 L569.367369,194.079549 C569.923017,194.079549 570.370837,194.341967 570.370837,194.662701 L570.370837,201.721747 Z" id="Path" fill="#2BAF98" opacity="0.47" style="mix-blend-mode: multiply;"></path>
                <path d="M576.833634,201.756736 C576.539191,202.120922 576.057809,202.277149 575.60577,202.155223 L575.60577,202.155223 C575.065666,202.063862 574.748986,201.730494 574.892755,201.420452 L578.052754,194.632571 C578.349148,194.268132 578.832163,194.112374 579.285475,194.235056 L579.285475,194.235056 C579.825579,194.322529 580.144202,194.654925 579.993633,194.969827 L576.833634,201.756736 Z" id="Path" fill="#2BAF98" opacity="0.47" style="mix-blend-mode: multiply;"></path>
                <path d="M654.908841,274.31339 C655.054553,274.629264 654.739816,274.952913 654.201654,275.044273 L654.201654,275.044273 C653.74557,275.174781 653.255797,275.017956 652.960191,274.646758 L649.784649,267.862765 C649.636023,267.551751 649.951731,267.224214 650.489893,267.136742 L650.489893,267.136742 C650.941796,267.009804 651.425954,267.162375 651.723585,267.525509 L654.908841,274.31339 Z" id="Path" fill="#2BAF98" opacity="0.47" style="mix-blend-mode: multiply;"></path>
                <path d="M660.422569,274.610797 C660.422569,274.938334 659.969892,275.201724 659.415216,275.201724 L659.415216,275.201724 C658.855684,275.201724 658.40592,274.938334 658.40592,274.610797 L658.40592,267.551751 C658.40592,267.241709 658.855684,266.9686 659.415216,266.9686 L659.415216,266.9686 C659.969892,266.9686 660.422569,267.239765 660.422569,267.551751 L660.422569,274.610797 Z" id="Path" fill="#2BAF98" opacity="0.47" style="mix-blend-mode: multiply;"></path>
                <path d="M666.88828,274.646758 C666.596481,275.017904 666.109795,275.17638 665.65556,275.048161 L665.65556,275.048161 C665.116427,274.950969 664.797804,274.629264 664.945459,274.323109 L668.102544,267.519678 C668.402569,267.157436 668.885248,267.002019 669.340121,267.121191 L669.340121,267.121191 C669.878283,267.218383 670.190106,267.540088 670.046337,267.859849 L666.88828,274.646758 Z" id="Path" fill="#2BAF98" opacity="0.47" style="mix-blend-mode: multiply;"></path>
                <path d="M729.696794,204.115583 C729.840563,204.429513 729.527769,204.757049 728.992521,204.844522 L728.992521,204.844522 C728.53763,204.976513 728.047949,204.823408 727.749115,204.455754 L724.570659,197.672733 C724.417176,197.365607 724.738713,197.033211 725.276875,196.94185 L725.276875,196.94185 C725.730875,196.814078 726.217217,196.970662 726.511538,197.339365 L729.696794,204.115583 Z" id="Path" fill="#2BAF98" opacity="0.47" style="mix-blend-mode: multiply;"></path>
                <path d="M735.207608,204.416878 C735.207608,204.740527 734.757845,205.006832 734.201227,205.006832 L734.201227,205.006832 C733.643637,205.006832 733.190959,204.740527 733.190959,204.416878 L733.190959,197.365607 C733.190959,197.041958 733.643637,196.776624 734.201227,196.776624 L734.201227,196.776624 C734.757845,196.776624 735.207608,197.041958 735.207608,197.365607 L735.207608,204.416878 Z" id="Path" fill="#2BAF98" opacity="0.47" style="mix-blend-mode: multiply;"></path>
                <path d="M741.671376,204.447979 C741.376469,204.814495 740.890324,204.967813 740.438656,204.836747 L740.438656,204.836747 C739.903409,204.749274 739.583814,204.421737 739.736326,204.120442 L742.895354,197.327702 C743.186792,196.9578 743.670705,196.797559 744.12516,196.920468 L744.12516,196.920468 C744.667208,197.01766 744.980973,197.345197 744.833319,197.651351 L741.671376,204.447979 Z" id="Path" fill="#2BAF98" opacity="0.47" style="mix-blend-mode: multiply;"></path>
                <path d="M765.831337,306.708416 C765.977048,307.023317 765.662311,307.342107 765.125121,307.448046 L765.125121,307.448046 C764.669394,307.565229 764.187189,307.406181 763.890458,307.040812 L760.710058,300.257791 C760.561433,299.946777 760.871313,299.623128 761.414331,299.531767 L761.414331,299.531767 C761.866499,299.406497 762.350029,299.55875 762.648995,299.920535 L765.831337,306.708416 Z" id="Path" fill="#2BAF98" opacity="0.47" style="mix-blend-mode: multiply;"></path>
                <path d="M771.351865,307.01457 C771.351865,307.342107 770.899187,307.597721 770.339655,307.597721 L770.339655,307.597721 C769.784979,307.597721 769.325502,307.338219 769.325502,307.01457 L769.325502,299.960383 C769.325502,299.635763 769.784979,299.370429 770.339655,299.370429 L770.339655,299.370429 C770.899187,299.370429 771.351865,299.635763 771.351865,299.960383 L771.351865,307.01457 Z" id="Path" fill="#2BAF98" opacity="0.47" style="mix-blend-mode: multiply;"></path>
                <path d="M777.809804,307.040812 C777.514089,307.407653 777.030926,307.567016 776.575141,307.448046 L776.575141,307.448046 C776.036008,307.342107 775.718357,307.023317 775.86504,306.708416 L779.029896,299.920535 C779.330233,299.558897 779.814435,299.406791 780.267474,299.531767 L780.267474,299.531767 C780.797864,299.628959 781.115516,299.950664 780.97369,300.261678 L777.809804,307.040812 Z" id="Path" fill="#2BAF98" opacity="0.47" style="mix-blend-mode: multiply;"></path>
                <path d="M890.985973,331.007358 C891.130713,331.318372 890.820833,331.64688 890.282672,331.734353 L890.282672,331.734353 C889.828397,331.86362 889.340761,331.710915 889.041209,331.345585 L885.858866,324.561592 C885.714126,324.247662 886.024006,323.920126 886.567025,323.832653 L886.567025,323.832653 C887.019796,323.706284 887.504474,323.858659 887.803631,324.221421 L890.985973,331.007358 Z" id="Path" fill="#2BAF98" opacity="0.47" style="mix-blend-mode: multiply;"></path>
                <path d="M896.507473,331.310596 C896.507473,331.638133 896.052852,331.900551 895.49332,331.900551 L895.49332,331.900551 C894.932816,331.900551 894.483052,331.638133 894.483052,331.310596 L894.483052,324.255438 C894.483052,323.927901 894.932816,323.664511 895.49332,323.664511 L895.49332,323.664511 C896.052852,323.664511 896.507473,323.927901 896.507473,324.255438 L896.507473,331.310596 Z" id="Path" fill="#2BAF98" opacity="0.47" style="mix-blend-mode: multiply;"></path>
                <path d="M902.963469,331.344613 C902.669264,331.711632 902.184998,331.868298 901.73172,331.7431 L901.73172,331.7431 C901.198416,331.650768 900.878822,331.323231 901.017733,331.013189 L904.177733,324.224336 C904.476214,323.859193 904.961028,323.703211 905.416282,323.82585 L905.416282,323.82585 C905.957358,323.923041 906.273066,324.24669 906.128326,324.557704 L902.963469,331.344613 Z" id="Path" fill="#2BAF98" opacity="0.47" style="mix-blend-mode: multiply;"></path>
                <path d="M962.727582,274.31339 C962.863579,274.629264 962.547871,274.952913 962.019423,275.044273 L962.019423,275.044273 C961.564468,275.177203 961.074448,275.019807 960.781846,274.646758 L957.594647,267.862765 C957.450878,267.551751 957.765615,267.224214 958.299891,267.136742 L958.299891,267.136742 C958.754151,267.00853 959.241213,267.161054 959.541354,267.525509 L962.727582,274.31339 Z" id="Path" fill="#2BAF98" opacity="0.47" style="mix-blend-mode: multiply;"></path>
                <path d="M968.239367,274.610797 C968.239367,274.938334 967.784747,275.201724 967.230071,275.201724 L967.230071,275.201724 C966.674424,275.201724 966.219804,274.938334 966.219804,274.610797 L966.219804,267.551751 C966.219804,267.241709 966.674424,266.9686 967.230071,266.9686 L967.230071,266.9686 C967.784747,266.9686 968.239367,267.239765 968.239367,267.551751 L968.239367,274.610797 Z" id="Path" fill="#2BAF98" opacity="0.47" style="mix-blend-mode: multiply;"></path>
                <path d="M974.704107,274.646758 C974.410106,275.017216 973.922876,275.175371 973.467501,275.048161 L973.467501,275.048161 C972.934196,274.950969 972.610716,274.629264 972.749628,274.323109 L975.915456,267.519678 C976.21618,267.15847 976.698195,267.003266 977.153033,267.121191 L977.153033,267.121191 C977.689252,267.218383 978.008846,267.540088 977.864106,267.859849 L974.704107,274.646758 Z" id="Path" fill="#2BAF98" opacity="0.47" style="mix-blend-mode: multiply;"></path>
                <path d="M1040.56577,324.255438 C1040.70565,324.570339 1040.40063,324.898848 1039.85761,324.990208 L1039.85761,324.990208 C1039.40078,325.117398 1038.91218,324.95942 1038.61614,324.588806 L1035.43866,317.804813 C1035.28906,317.493799 1035.60866,317.16529 1036.14682,317.077817 L1036.14682,317.077817 C1036.59934,316.950399 1037.08417,317.105719 1037.37857,317.472416 L1040.56577,324.255438 Z" id="Path" fill="#2BAF98" opacity="0.47" style="mix-blend-mode: multiply;"></path>
                <path d="M1046.07755,324.56062 C1046.07755,324.890101 1045.62779,325.143771 1045.06825,325.143771 L1045.06825,325.143771 C1044.51358,325.143771 1044.05896,324.891073 1044.05896,324.56062 L1044.05896,317.507405 C1044.05896,317.183756 1044.51358,316.911619 1045.06825,316.911619 L1045.06825,316.911619 C1045.62779,316.911619 1046.07755,317.183756 1046.07755,317.507405 L1046.07755,324.56062 Z" id="Path" fill="#2BAF98" opacity="0.47" style="mix-blend-mode: multiply;"></path>
                <path d="M1052.53938,324.588806 C1052.24555,324.960189 1051.75824,325.119778 1051.3018,324.994096 L1051.3018,324.994096 C1050.77335,324.896904 1050.44987,324.570339 1050.59364,324.259325 L1053.75364,317.472416 C1054.05108,317.106367 1054.53623,316.950153 1054.99122,317.07393 L1054.99122,317.07393 C1055.53326,317.16529 1055.848,317.493799 1055.70326,317.804813 L1052.53938,324.588806 Z" id="Path" fill="#2BAF98" opacity="0.47" style="mix-blend-mode: multiply;"></path>
                <path d="M1121.45515,262.164405 C1121.59989,262.474447 1121.28904,262.802956 1120.74699,262.894316 L1120.74699,262.894316 C1120.29239,263.022946 1119.80503,262.86628 1119.51039,262.496801 L1116.3329,255.70892 C1116.17942,255.402766 1116.49901,255.075229 1117.04009,254.981925 L1117.04009,254.981925 C1117.4916,254.861016 1117.97207,255.015304 1118.26892,255.376524 L1121.45515,262.164405 Z" id="Path" fill="#2BAF98" opacity="0.47" style="mix-blend-mode: multiply;"></path>
                <path d="M1126.97665,262.471531 C1126.97665,262.791293 1126.523,263.054683 1125.96347,263.054683 L1125.96347,263.054683 C1125.40394,263.054683 1124.94834,262.792265 1124.94834,262.471531 L1124.94834,255.412485 C1124.94834,255.088836 1125.40394,254.829334 1125.96347,254.829334 L1125.96347,254.829334 C1126.523,254.829334 1126.97665,255.091752 1126.97665,255.412485 L1126.97665,262.471531 Z" id="Path" fill="#2BAF98" opacity="0.47" style="mix-blend-mode: multiply;"></path>
                <path d="M1133.4375,262.496801 C1133.14594,262.868304 1132.65922,263.027178 1132.20478,262.899176 L1132.20478,262.899176 C1131.66274,262.801984 1131.34703,262.474447 1131.49662,262.173152 L1134.64885,255.376524 C1134.94452,255.00856 1135.43146,254.853177 1135.88546,254.981925 L1135.88546,254.981925 C1136.42265,255.079117 1136.73739,255.398878 1136.59362,255.70892 L1133.4375,262.496801 Z" id="Path" fill="#2BAF98" opacity="0.47" style="mix-blend-mode: multiply;"></path>
                <path d="M895.56229,183.860795 C895.711887,184.184444 895.396179,184.508093 894.858988,184.599453 L894.858988,184.599453 C894.404153,184.725291 893.918042,184.569151 893.621411,184.201939 L890.443926,177.418917 C890.291414,177.107903 890.611009,176.784254 891.147227,176.683175 L891.147227,176.683175 C891.601607,176.557624 892.086986,176.716058 892.379948,177.085549 L895.56229,183.860795 Z" id="Path" fill="#2BAF98" opacity="0.47" style="mix-blend-mode: multiply;"></path>
                <path d="M901.082818,184.171809 C901.082818,184.499346 900.633055,184.761764 900.070608,184.761764 L900.070608,184.761764 C899.513989,184.761764 899.06034,184.499346 899.06034,184.171809 L899.06034,177.116651 C899.06034,176.793002 899.513989,176.525724 900.070608,176.525724 L900.070608,176.525724 C900.633055,176.525724 901.082818,176.793002 901.082818,177.116651 L901.082818,184.171809 Z" id="Path" fill="#2BAF98" opacity="0.47" style="mix-blend-mode: multiply;"></path>
                <path d="M907.539786,184.201939 C907.247026,184.571658 906.760509,184.728545 906.307066,184.599453 L906.307066,184.599453 C905.773761,184.508093 905.459024,184.184444 905.598907,183.874402 L908.755993,177.085549 C909.052047,176.717427 909.537784,176.559498 909.99357,176.683175 L909.99357,176.683175 C910.53076,176.774535 910.853269,177.107903 910.705614,177.414058 L907.539786,184.201939 Z" id="Path" fill="#2BAF98" opacity="0.47" style="mix-blend-mode: multiply;"></path>
                <path d="M990.192282,112.322712 C990.344793,112.636642 990.026171,112.966122 989.487038,113.057482 L989.487038,113.057482 C989.032541,113.185464 988.545648,113.028443 988.251403,112.658996 L985.071975,105.872087 C984.919464,105.570792 985.239058,105.233536 985.777219,105.146063 L985.777219,105.146063 C986.231435,105.020704 986.716952,105.172745 987.018683,105.534831 L990.192282,112.322712 Z" id="Path" fill="#2BAF98" opacity="0.47" style="mix-blend-mode: multiply;"></path>
                <path d="M995.716696,112.628866 C995.716696,112.947656 995.262075,113.218821 994.702543,113.218821 L994.702543,113.218821 C994.143981,113.218821 993.68839,112.947656 993.68839,112.628866 L993.68839,105.573708 C993.68839,105.250059 994.143981,104.984725 994.702543,104.984725 L994.702543,104.984725 C995.262075,104.984725 995.716696,105.250059 995.716696,105.573708 L995.716696,112.628866 Z" id="Path" fill="#2BAF98" opacity="0.47" style="mix-blend-mode: multiply;"></path>
                <path d="M1002.16784,112.658996 C1001.87922,113.031007 1001.39385,113.190575 1000.94094,113.062342 L1000.94094,113.062342 C1000.3989,112.974869 1000.08416,112.636642 1000.22696,112.327571 L1003.39278,105.539691 C1003.68704,105.174731 1004.17114,105.021576 1004.62162,105.150923 L1004.62162,105.150923 C1005.16367,105.238396 1005.48326,105.565932 1005.33366,105.876946 L1002.16784,112.658996 Z" id="Path" fill="#2BAF98" opacity="0.47" style="mix-blend-mode: multiply;"></path>
                <path d="M1079.27843,44.3058904 C1079.42706,44.6169044 1079.11135,44.9434691 1078.5693,45.0309418 L1078.5693,45.0309418 C1078.11793,45.1615772 1077.6323,45.0083005 1077.33755,44.6421743 L1074.15521,37.8552653 C1074.00659,37.5393917 1074.32035,37.2157428 1074.86337,37.1243824 L1074.86337,37.1243824 C1075.31653,37.0041441 1075.79811,37.1599419 1076.09512,37.5228691 L1079.27843,44.3058904 Z" id="Path" fill="#2BAF98" opacity="0.47" style="mix-blend-mode: multiply;"></path>
                <path d="M1084.7941,44.6071852 C1084.7941,44.9269465 1084.34823,45.1903365 1083.78869,45.1903365 L1083.78869,45.1903365 C1083.22916,45.1903365 1082.77454,44.9279184 1082.77454,44.6071852 L1082.77454,37.5578582 C1082.77454,37.2293496 1083.22916,36.962072 1083.78869,36.962072 L1083.78869,36.962072 C1084.34823,36.962072 1084.7941,37.2293496 1084.7941,37.5578582 L1084.7941,44.6071852 Z" id="Path" fill="#2BAF98" opacity="0.47" style="mix-blend-mode: multiply;"></path>
                <path d="M1091.2637,44.6421743 C1090.96405,45.0075437 1090.47909,45.1647253 1090.02224,45.0445487 L1090.02224,45.0445487 C1089.48893,44.9473568 1089.17419,44.6207921 1089.31408,44.3058904 L1092.47991,37.5228691 C1092.77592,37.1578588 1093.25912,37.0016619 1093.71263,37.1243824 L1093.71263,37.1243824 C1094.24399,37.212827 1094.56747,37.5393917 1094.42078,37.8552653 L1091.2637,44.6421743 Z" id="Path" fill="#2BAF98" opacity="0.47" style="mix-blend-mode: multiply;"></path>
                <path d="M1188.09977,72.6557899 C1188.23576,72.9745792 1187.92491,73.2982282 1187.39646,73.3905605 L1187.39646,73.3905605 C1186.93735,73.5163062 1186.44726,73.3602172 1186.14529,72.9920738 L1182.9678,66.2129402 C1182.82403,65.8980385 1183.13391,65.5743895 1183.67985,65.4742819 L1183.67985,65.4742819 C1184.13188,65.3497207 1184.61452,65.5082571 1184.9048,65.8766563 L1188.09977,72.6557899 Z" id="Path" fill="#2BAF98" opacity="0.47" style="mix-blend-mode: multiply;"></path>
                <path d="M1193.61252,72.9522251 C1193.61252,73.2807337 1193.16762,73.5470394 1192.5974,73.5470394 L1192.5974,73.5470394 C1192.03884,73.5470394 1191.59296,73.2807337 1191.59296,72.9522251 L1191.59296,65.8980385 C1191.59296,65.5773053 1192.03884,65.3148872 1192.5974,65.3148872 L1192.5974,65.3148872 C1193.16762,65.3148872 1193.61252,65.5763333 1193.61252,65.8980385 L1193.61252,72.9522251 Z" id="Path" fill="#2BAF98" opacity="0.47" style="mix-blend-mode: multiply;"></path>
                <path d="M1200.07338,72.9872142 C1199.77931,73.3550579 1199.29424,73.5118597 1198.84066,73.3857009 L1198.84066,73.3857009 C1198.30735,73.2933686 1197.9829,72.9697197 1198.1325,72.6635652 L1201.28764,65.8717967 C1201.58086,65.5051551 1202.06334,65.3471715 1202.51647,65.4694223 L1202.51647,65.4694223 C1203.06338,65.5607826 1203.38297,65.8931789 1203.22852,66.1993333 L1200.07338,72.9872142 Z" id="Path" fill="#2BAF98" opacity="0.47" style="mix-blend-mode: multiply;"></path>
                <path d="M1212.50841,179.298608 C1212.66675,179.605735 1212.34327,179.937159 1211.80608,180.02366 L1211.80608,180.02366 C1211.35417,180.151125 1210.86972,179.998464 1210.57239,179.634892 L1207.39101,172.843124 C1207.24627,172.536969 1207.55615,172.203601 1208.09334,172.112241 L1208.09334,172.112241 C1208.54897,171.989855 1209.03412,172.14394 1209.33578,172.50684 L1212.50841,179.298608 Z" id="Path" fill="#2BAF98" opacity="0.47" style="mix-blend-mode: multiply;"></path>
                <path d="M1218.04739,179.600875 C1218.04739,179.924524 1217.58014,180.184026 1217.0245,180.184026 L1217.0245,180.184026 C1216.46496,180.184026 1216.01811,179.926468 1216.01811,179.600875 L1216.01811,172.546688 C1216.01811,172.21818 1216.46496,171.951874 1217.0245,171.951874 L1217.0245,171.951874 C1217.58014,171.951874 1218.04739,172.21818 1218.04739,172.546688 L1218.04739,179.600875 Z" id="Path" fill="#2BAF98" opacity="0.47" style="mix-blend-mode: multiply;"></path>
                <path d="M1224.49076,179.635864 C1224.19604,179.999569 1223.714,180.1541 1223.2629,180.029491 L1223.2629,180.029491 C1222.72085,179.932299 1222.40611,179.60865 1222.55474,179.298608 L1225.706,172.507812 C1226.00676,172.147364 1226.48879,171.993549 1226.9426,172.113213 L1226.9426,172.113213 C1227.47688,172.204573 1227.79161,172.528222 1227.65076,172.839236 L1224.49076,179.635864 Z" id="Path" fill="#2BAF98" opacity="0.47" style="mix-blend-mode: multiply;"></path>
                <path d="M1082.78328,123.95172 C1082.94162,124.257875 1082.60843,124.591243 1082.07998,124.682603 L1082.07998,124.682603 C1081.62349,124.804713 1081.13765,124.650772 1080.83463,124.288004 L1077.66103,117.505955 C1077.51241,117.194941 1077.83103,116.858657 1078.35462,116.771184 L1078.35462,116.771184 C1078.8106,116.645374 1079.29802,116.797298 1079.60191,117.159952 L1082.78328,123.95172 Z" id="Path" fill="#2BAF98" opacity="0.47" style="mix-blend-mode: multiply;"></path>
                <path d="M1088.29895,124.257875 C1088.29895,124.577636 1087.85308,124.841026 1087.2848,124.841026 L1087.2848,124.841026 C1086.73012,124.841026 1086.2755,124.578608 1086.2755,124.257875 L1086.2755,117.1998 C1086.2755,116.87518 1086.73012,116.616649 1087.2848,116.616649 L1087.2848,116.616649 C1087.85308,116.616649 1088.29895,116.879067 1088.29895,117.1998 L1088.29895,124.257875 Z" id="Path" fill="#2BAF98" opacity="0.47" style="mix-blend-mode: multiply;"></path>
                <path d="M1094.75689,124.288004 C1094.46111,124.65086 1093.98034,124.806763 1093.52806,124.686491 L1093.52806,124.686491 C1092.98601,124.589299 1092.67127,124.257875 1092.81601,123.95658 L1095.97601,117.163839 C1096.27328,116.80068 1096.75546,116.645191 1097.20873,116.766325 L1097.20873,116.766325 C1097.74107,116.858657 1098.06649,117.194941 1097.91689,117.501095 L1094.75689,124.288004 Z" id="Path" fill="#2BAF98" opacity="0.47" style="mix-blend-mode: multiply;"></path>
                <path d="M1189.61711,326.433508 C1189.77351,326.747437 1189.451,327.075946 1188.91769,327.159531 L1188.91769,327.159531 C1188.38439,327.249919 1187.82388,327.080806 1187.68109,326.762016 L1184.48515,319.982883 C1184.34915,319.667009 1184.66,319.339472 1185.20205,319.252 L1185.20205,319.252 C1185.65565,319.129158 1186.13903,319.28491 1186.43574,319.649514 L1189.61711,326.433508 Z" id="Path" fill="#2BAF98" opacity="0.47" style="mix-blend-mode: multiply;"></path>
                <path d="M1195.13764,326.734803 C1195.13764,327.058451 1194.69565,327.317954 1194.12834,327.317954 L1194.12834,327.317954 C1193.56784,327.317954 1193.11322,327.055536 1193.11322,326.734803 L1193.11322,319.679644 C1193.11322,319.356967 1193.56784,319.090661 1194.12834,319.090661 L1194.12834,319.090661 C1194.69565,319.090661 1195.13764,319.356967 1195.13764,319.679644 L1195.13764,326.734803 Z" id="Path" fill="#2BAF98" opacity="0.47" style="mix-blend-mode: multiply;"></path>
                <path d="M1201.60335,326.762016 C1201.30455,327.128777 1200.82022,327.288787 1200.36189,327.172166 L1200.36189,327.172166 C1199.82761,327.074974 1199.50802,326.747437 1199.65761,326.443227 L1202.82733,319.649514 C1203.11717,319.286742 1203.59451,319.130599 1204.04256,319.252 L1204.04256,319.252 C1204.58752,319.339472 1204.89837,319.667009 1204.75849,319.978023 L1201.60335,326.762016 Z" id="Path" fill="#2BAF98" opacity="0.47" style="mix-blend-mode: multiply;"></path>
                <path d="M1256.77657,267.045381 C1256.9252,267.350564 1256.60658,267.683932 1256.07327,267.771405 L1256.07327,267.771405 C1255.61908,267.895035 1255.13464,267.740574 1254.83569,267.376806 L1251.64461,260.589897 C1251.50473,260.274995 1251.81946,259.946486 1252.36151,259.855126 L1252.36151,259.855126 C1252.81309,259.731369 1253.2951,259.886151 1253.59035,260.249725 L1256.77657,267.045381 Z" id="Path" fill="#2BAF98" opacity="0.47" style="mix-blend-mode: multiply;"></path>
                <path d="M1262.29322,267.342789 C1262.29322,267.65769 1261.84248,267.92594 1261.28683,267.92594 L1261.28683,267.92594 C1260.7205,267.92594 1260.27365,267.654774 1260.27365,267.342789 L1260.27365,260.28277 C1260.27365,259.964953 1260.7205,259.699619 1261.28683,259.699619 L1261.28683,259.699619 C1261.84248,259.699619 1262.29322,259.962037 1262.29322,260.28277 L1262.29322,267.342789 Z" id="Path" fill="#2BAF98" opacity="0.47" style="mix-blend-mode: multiply;"></path>
                <path d="M1268.75407,267.376806 C1268.46052,267.742291 1267.97828,267.898795 1267.52621,267.775292 L1267.52621,267.775292 C1266.9793,267.683932 1266.66942,267.360283 1266.80833,267.045381 L1269.9693,260.249725 C1270.26951,259.885296 1270.75539,259.730857 1271.21077,259.855126 L1271.21077,259.855126 C1271.74407,259.946486 1272.05881,260.274995 1271.91407,260.586009 L1268.75407,267.376806 Z" id="Path" fill="#2BAF98" opacity="0.47" style="mix-blend-mode: multiply;"></path>
                <path d="M1343.78002,325.086428 C1343.92767,325.397442 1343.60516,325.728867 1343.07186,325.816339 L1343.07186,325.816339 C1342.53758,325.908672 1341.97805,325.734698 1341.83914,325.427572 L1338.6568,318.638719 C1338.51594,318.333536 1338.82194,318.004056 1339.36496,317.908808 L1339.36496,317.908808 C1339.81853,317.783185 1340.30331,317.939892 1340.59768,318.307295 L1343.78002,325.086428 Z" id="Path" fill="#2BAF98" opacity="0.47" style="mix-blend-mode: multiply;"></path>
                <path d="M1349.2918,325.387723 C1349.2918,325.712344 1348.83718,325.970874 1348.28639,325.970874 L1348.28639,325.970874 C1347.72589,325.970874 1347.28001,325.708456 1347.28001,325.387723 L1347.28001,318.338396 C1347.28001,318.014747 1347.72589,317.755245 1348.28639,317.755245 L1348.28639,317.755245 C1348.83718,317.755245 1349.2918,318.018635 1349.2918,318.338396 L1349.2918,325.387723 Z" id="Path" fill="#2BAF98" opacity="0.47" style="mix-blend-mode: multiply;"></path>
                <path d="M1355.75169,325.423684 C1355.45422,325.786436 1354.97057,325.938967 1354.51897,325.812452 L1354.51897,325.812452 C1353.98663,325.724979 1353.66218,325.393555 1353.81081,325.082541 L1356.97663,318.299519 C1357.26916,317.929444 1357.75571,317.772159 1358.20936,317.901033 L1358.20936,317.901033 C1358.74169,317.988505 1359.0574,318.316042 1358.91751,318.630944 L1355.75169,325.423684 Z" id="Path" fill="#2BAF98" opacity="0.47" style="mix-blend-mode: multiply;"></path>
                <path d="M1407.87468,276.483685 C1408.03302,276.792755 1407.70954,277.130983 1407.16652,277.226231 L1407.16652,277.226231 C1406.71185,277.341283 1406.23165,277.183404 1405.9338,276.820941 L1402.76117,270.036947 C1402.60283,269.721074 1402.91854,269.397425 1403.45962,269.302177 L1403.45962,269.302177 C1403.91422,269.179398 1404.39836,269.337304 1404.69331,269.704551 L1407.87468,276.483685 Z" id="Path" fill="#2BAF98" opacity="0.47" style="mix-blend-mode: multiply;"></path>
                <path d="M1413.40007,276.789839 C1413.40007,277.112516 1412.94642,277.372991 1412.37814,277.372991 L1412.37814,277.372991 C1411.82735,277.372991 1411.3805,277.110572 1411.3805,276.789839 L1411.3805,269.734681 C1411.3805,269.411032 1411.82735,269.151529 1412.37814,269.151529 L1412.37814,269.151529 C1412.94642,269.151529 1413.40007,269.413947 1413.40007,269.734681 L1413.40007,276.789839 Z" id="Path" fill="#2BAF98" opacity="0.47" style="mix-blend-mode: multiply;"></path>
                <path d="M1419.85218,276.820941 C1419.56049,277.186751 1419.08041,277.345715 1418.6282,277.226231 L1418.6282,277.226231 C1418.09392,277.129039 1417.77239,276.802474 1417.9113,276.487572 L1421.07615,269.704551 C1421.36881,269.334616 1421.85448,269.176086 1422.30887,269.302177 L1422.30887,269.302177 C1422.84218,269.399369 1423.16663,269.721074 1423.01703,270.036947 L1419.85218,276.820941 Z" id="Path" fill="#2BAF98" opacity="0.47" style="mix-blend-mode: multiply;"></path>
                <path d="M1311.72346,113.153702 C1311.87306,113.459857 1311.5486,113.792253 1311.0153,113.884585 L1311.0153,113.884585 C1310.56368,114.011891 1310.0796,113.859224 1309.78258,113.495818 L1306.60024,106.707937 C1306.45161,106.400811 1306.76635,106.064527 1307.3084,105.980942 L1307.3084,105.980942 C1307.76002,105.85284 1308.24454,106.005644 1308.54112,106.369709 L1311.72346,113.153702 Z" id="Path" fill="#2BAF98" opacity="0.47" style="mix-blend-mode: multiply;"></path>
                <path d="M1317.24107,113.454997 C1317.24107,113.778646 1316.78742,114.038149 1316.22789,114.038149 L1316.22789,114.038149 C1315.66836,114.038149 1315.22248,113.77573 1315.22248,113.454997 L1315.22248,106.401783 C1315.22248,106.077162 1315.66836,105.813772 1316.22789,105.813772 L1316.22789,105.813772 C1316.78742,105.813772 1317.24107,106.077162 1317.24107,106.401783 L1317.24107,113.454997 Z" id="Path" fill="#2BAF98" opacity="0.47" style="mix-blend-mode: multiply;"></path>
                <path d="M1323.70193,113.490958 C1323.40181,113.854813 1322.91539,114.007255 1322.46143,113.879726 L1322.46143,113.879726 C1321.9359,113.787393 1321.62116,113.454997 1321.76105,113.148843 L1324.91716,106.356102 C1325.21472,105.993366 1325.69662,105.837966 1326.14988,105.958588 L1326.14988,105.958588 C1326.69193,106.055779 1327.00667,106.382344 1326.85804,106.698218 L1323.70193,113.490958 Z" id="Path" fill="#2BAF98" opacity="0.47" style="mix-blend-mode: multiply;"></path>
                <path d="M1357.5012,33.5127321 C1357.65857,33.8266619 1357.34383,34.1503109 1356.80081,34.2416712 L1356.80081,34.2416712 C1356.34515,34.3653684 1355.85937,34.2097007 1355.56032,33.8441564 L1352.38672,27.0611351 C1352.24586,26.7452615 1352.55283,26.4216126 1353.09585,26.3253926 L1353.09585,26.3253926 C1353.54939,26.2013615 1354.0333,26.3577882 1354.32857,26.7238793 L1357.5012,33.5127321 Z" id="Path" fill="#2BAF98" opacity="0.47" style="mix-blend-mode: multiply;"></path>
                <path d="M1363.03435,33.814027 C1363.03435,34.136704 1362.57973,34.3971782 1362.02117,34.3971782 L1362.02117,34.3971782 C1361.46164,34.3971782 1361.00605,34.1347602 1361.00605,33.814027 L1361.00605,26.7549807 C1361.00605,26.4303598 1361.46164,26.1718294 1362.02117,26.1718294 L1362.02117,26.1718294 C1362.57973,26.1718294 1363.03435,26.4342475 1363.03435,26.7549807 L1363.03435,33.814027 Z" id="Path" fill="#2BAF98" opacity="0.47" style="mix-blend-mode: multiply;"></path>
                <path d="M1369.48646,33.8441564 C1369.19624,34.2113347 1368.71395,34.3680962 1368.26346,34.2416712 L1368.26346,34.2416712 C1367.72141,34.1503109 1367.40667,33.8266619 1367.54656,33.5127321 L1370.71044,26.7238793 C1371.00541,26.3573528 1371.48961,26.2008332 1371.94316,26.3253926 L1371.94316,26.3253926 C1372.47647,26.4225845 1372.79218,26.7452615 1372.65132,27.0562755 L1369.48646,33.8441564 Z" id="Path" fill="#2BAF98" opacity="0.47" style="mix-blend-mode: multiply;"></path>
                <path d="M1429.75765,7.34284653 C1429.91599,7.64900095 1429.59057,7.97750951 1429.05824,8.0649822 L1429.05824,8.0649822 C1428.60634,8.19165702 1428.12232,8.03913161 1427.82455,7.67621468 L1424.64317,0.889305702 C1424.49455,0.574404011 1424.80054,0.246867375 1425.35133,0.146759739 L1425.35133,0.146759739 C1425.80293,0.0279138933 1426.28218,0.185463927 1426.57531,0.549134122 L1429.75765,7.34284653 Z" id="Path" fill="#2BAF98" opacity="0.47" style="mix-blend-mode: multiply;"></path>
                <path d="M1435.28692,7.63442217 C1435.28692,7.95709921 1434.8323,8.22826456 1434.2718,8.22826456 L1434.2718,8.22826456 C1433.71227,8.22826456 1433.25959,7.95709921 1433.25959,7.63442217 L1433.25959,0.58315128 C1433.25959,0.25950232 1433.71227,3.0510322e-14 1434.2718,3.0510322e-14 L1434.2718,3.0510322e-14 C1434.8323,3.0510322e-14 1435.28692,0.257558482 1435.28692,0.58315128 L1435.28692,7.63442217 Z" id="Path" fill="#2BAF98" opacity="0.47" style="mix-blend-mode: multiply;"></path>
                <path d="M1441.74389,7.67621468 C1441.44047,8.03584388 1440.95767,8.18930162 1440.50243,8.07081371 L1440.50243,8.07081371 C1439.9701,7.97362183 1439.64467,7.6460852 1439.80301,7.34479037 L1442.95913,0.549134122 C1443.25596,0.185249127 1443.73765,0.0280197586 1444.19185,0.146759739 L1444.19185,0.146759739 C1444.72515,0.243951619 1445.03989,0.574404011 1444.90001,0.881530351 L1441.74389,7.67621468 Z" id="Path" fill="#2BAF98" opacity="0.47" style="mix-blend-mode: multiply;"></path>
                <path d="M1469.44853,111.281787 C1469.59813,111.592801 1469.28242,111.91645 1468.74037,112.003922 L1468.74037,112.003922 C1468.28872,112.133362 1467.80347,111.980327 1467.50765,111.615155 L1464.32531,104.836993 C1464.17668,104.52112 1464.49142,104.192611 1465.02473,104.10611 L1465.02473,104.10611 C1465.48078,103.977233 1465.96966,104.133771 1466.26619,104.503625 L1469.44853,111.281787 Z" id="Path" fill="#2BAF98" opacity="0.47" style="mix-blend-mode: multiply;"></path>
                <path d="M1474.96517,111.580166 C1474.96517,111.897983 1474.5193,112.170121 1473.95879,112.170121 L1473.95879,112.170121 C1473.40023,112.170121 1472.94658,111.897983 1472.94658,111.580166 L1472.94658,104.528895 C1472.94658,104.197471 1473.40023,103.93894 1473.95879,103.93894 L1473.95879,103.93894 C1474.5193,103.93894 1474.96517,104.197471 1474.96517,104.528895 L1474.96517,111.580166 Z" id="Path" fill="#2BAF98" opacity="0.47" style="mix-blend-mode: multiply;"></path>
                <path d="M1481.42894,111.610295 C1481.13289,111.975304 1480.65028,112.132455 1480.19622,112.011698 L1480.19622,112.011698 C1479.65417,111.914506 1479.33944,111.592801 1479.48806,111.281787 L1482.64418,104.498766 C1482.93788,104.130188 1483.4209,103.969098 1483.8769,104.087644 L1483.8769,104.087644 C1484.41894,104.184836 1484.74242,104.512372 1484.5938,104.832134 L1481.42894,111.610295 Z" id="Path" fill="#2BAF98" opacity="0.47" style="mix-blend-mode: multiply;"></path>
                <path d="M1484.70454,246.265757 C1484.84442,246.572884 1484.53746,246.90528 1484.00609,246.99664 L1484.00609,246.99664 C1483.55339,247.130502 1483.06488,246.974511 1482.77337,246.603013 L1479.59006,239.815132 C1479.43269,239.508978 1479.74743,239.181441 1480.28948,239.084249 L1480.28948,239.084249 C1480.74479,238.962529 1481.22931,239.116533 1481.53094,239.478848 L1484.70454,246.265757 Z" id="Path" fill="#2BAF98" opacity="0.47" style="mix-blend-mode: multiply;"></path>
                <path d="M1490.22021,246.568024 C1490.22021,246.892645 1489.77433,247.158951 1489.2148,247.158951 L1489.2148,247.158951 C1488.65527,247.158951 1488.20162,246.892645 1488.20162,246.568024 L1488.20162,239.508978 C1488.20162,239.194076 1488.65527,238.925827 1489.2148,238.925827 L1489.2148,238.925827 C1489.77433,238.925827 1490.22021,239.192132 1490.22021,239.508978 L1490.22021,246.568024 Z" id="Path" fill="#2BAF98" opacity="0.47" style="mix-blend-mode: multiply;"></path>
                <path d="M1496.68009,246.603013 C1496.39186,246.973664 1495.90716,247.131465 1495.45611,247.0015 L1495.45611,247.0015 C1494.91407,246.909168 1494.60904,246.582603 1494.74796,246.265757 L1497.90407,239.478848 C1498.19979,239.113407 1498.68327,238.957119 1499.13679,239.080362 L1499.13679,239.080362 C1499.67884,239.177554 1499.9858,239.500231 1499.84592,239.815132 L1496.68009,246.603013 Z" id="Path" fill="#2BAF98" opacity="0.47" style="mix-blend-mode: multiply;"></path>
                <path d="M1577.81233,305.668463 C1577.96096,305.978505 1577.63748,306.302154 1577.10417,306.399345 L1577.10417,306.399345 C1576.64698,306.51473 1576.16412,306.357976 1575.86174,305.995999 L1572.68911,299.208118 C1572.54048,298.901964 1572.84551,298.574427 1573.39727,298.486955 L1573.39727,298.486955 C1573.8496,298.359046 1574.33454,298.514018 1574.62902,298.880582 L1577.81233,305.668463 Z" id="Path" fill="#2BAF98" opacity="0.47" style="mix-blend-mode: multiply;"></path>
                <path d="M1583.32994,305.964898 C1583.32994,306.289519 1582.88407,306.555824 1582.32453,306.555824 L1582.32453,306.555824 C1581.76597,306.555824 1581.31135,306.289519 1581.31135,305.964898 L1581.31135,298.910711 C1581.31135,298.587062 1581.76597,298.315897 1582.32453,298.315897 L1582.32453,298.315897 C1582.88407,298.315897 1583.32994,298.587062 1583.32994,298.910711 L1583.32994,305.964898 Z" id="Path" fill="#2BAF98" opacity="0.47" style="mix-blend-mode: multiply;"></path>
                <path d="M1589.7976,305.995999 C1589.49691,306.359853 1589.01311,306.517034 1588.55613,306.399345 L1588.55613,306.399345 C1588.02283,306.302154 1587.70809,305.978505 1587.84798,305.668463 L1591.01186,298.880582 C1591.30475,298.510348 1591.79068,298.351476 1592.24555,298.477235 L1592.24555,298.477235 C1592.77789,298.569568 1593.09359,298.894189 1592.95274,299.208118 L1589.7976,305.995999 Z" id="Path" fill="#2BAF98" opacity="0.47" style="mix-blend-mode: multiply;"></path>
                <path d="M1649.552,265.160831 C1649.69188,265.47962 1649.37811,265.803269 1648.83607,265.899489 L1648.83607,265.899489 C1648.38443,266.019896 1647.90433,265.862069 1647.61209,265.497115 L1644.40643,258.713121 C1644.26752,258.403079 1644.57254,258.069711 1645.1243,257.982239 L1645.1243,257.982239 C1645.57779,257.860556 1646.06043,258.016572 1646.35703,258.380725 L1649.552,265.160831 Z" id="Path" fill="#2BAF98" opacity="0.47" style="mix-blend-mode: multiply;"></path>
                <path d="M1655.06961,265.470873 C1655.06961,265.790634 1654.61499,266.054024 1654.05449,266.054024 L1654.05449,266.054024 C1653.48621,266.054024 1653.0413,265.791606 1653.0413,265.470873 L1653.0413,258.415714 C1653.0413,258.088178 1653.48621,257.82576 1654.05449,257.82576 L1654.05449,257.82576 C1654.61499,257.82576 1655.06961,258.088178 1655.06961,258.415714 L1655.06961,265.470873 Z" id="Path" fill="#2BAF98" opacity="0.47" style="mix-blend-mode: multiply;"></path>
                <path d="M1661.52172,265.497115 C1661.22709,265.864198 1660.74331,266.02211 1660.289,265.899489 L1660.289,265.899489 C1659.75472,265.802297 1659.43999,265.47962 1659.57113,265.168606 L1662.73696,258.380725 C1663.03524,258.013378 1663.52168,257.856098 1663.97842,257.979323 L1663.97842,257.979323 C1664.51075,258.069711 1664.83423,258.403079 1664.68561,258.709234 L1661.52172,265.497115 Z" id="Path" fill="#2BAF98" opacity="0.47" style="mix-blend-mode: multiply;"></path>
                <path d="M1709.07228,313.763574 C1709.2112,314.077504 1708.89743,314.406984 1708.36413,314.494457 L1708.36413,314.494457 C1707.91048,314.62333 1707.42393,314.466046 1707.13141,314.09597 L1703.95781,307.311977 C1703.80044,307.001935 1704.10643,306.669539 1704.65722,306.577207 L1704.65722,306.577207 C1705.11144,306.457701 1705.59354,306.615064 1705.88994,306.979581 L1709.07228,313.763574 Z" id="Path" fill="#2BAF98" opacity="0.47" style="mix-blend-mode: multiply;"></path>
                <path d="M1714.58796,314.064869 C1714.58796,314.388518 1714.14208,314.64802 1713.58254,314.64802 L1713.58254,314.64802 C1713.02301,314.64802 1712.55965,314.385602 1712.55965,314.064869 L1712.55965,307.01457 C1712.55965,306.682174 1713.02301,306.425587 1713.58254,306.425587 L1713.58254,306.425587 C1714.14208,306.425587 1714.58796,306.682174 1714.58796,307.01457 L1714.58796,314.064869 Z" id="Path" fill="#2BAF98" opacity="0.47" style="mix-blend-mode: multiply;"></path>
                <path d="M1721.05755,314.09597 C1720.75825,314.461826 1720.27278,314.618793 1719.81609,314.497373 L1719.81609,314.497373 C1719.27404,314.406984 1718.9593,314.077504 1719.09822,313.763574 L1722.27279,306.979581 C1722.56443,306.613762 1723.0451,306.455747 1723.49676,306.577207 L1723.49676,306.577207 C1724.03978,306.669539 1724.35355,306.998047 1724.21367,307.307118 L1721.05755,314.09597 Z" id="Path" fill="#2BAF98" opacity="0.47" style="mix-blend-mode: multiply;"></path>
                <path d="M1825.06749,280.01661 C1825.21611,280.326652 1824.90138,280.663908 1824.36807,280.747493 L1824.36807,280.747493 C1823.91189,280.87269 1823.42486,280.716363 1823.12661,280.349006 L1819.94329,273.565985 C1819.79467,273.251083 1820.11038,272.923546 1820.64271,272.831214 L1820.64271,272.831214 C1821.09886,272.707839 1821.5849,272.86385 1821.88417,273.229701 L1825.06749,280.01661 Z" id="Path" fill="#2BAF98" opacity="0.47" style="mix-blend-mode: multiply;"></path>
                <path d="M1830.58316,280.318876 C1830.58316,280.637666 1830.12854,280.908831 1829.57775,280.908831 L1829.57775,280.908831 C1829.01919,280.908831 1828.56359,280.637666 1828.56359,280.318876 L1828.56359,273.25983 C1828.56359,272.935209 1829.01919,272.676679 1829.57775,272.676679 L1829.57775,272.676679 C1830.12854,272.676679 1830.58316,272.939097 1830.58316,273.25983 L1830.58316,280.318876 Z" id="Path" fill="#2BAF98" opacity="0.47" style="mix-blend-mode: multiply;"></path>
                <path d="M1837.05275,280.349006 C1836.75719,280.714663 1836.27356,280.870998 1835.82003,280.747493 L1835.82003,280.747493 C1835.27799,280.663908 1834.95548,280.336371 1835.1041,280.021469 L1838.25925,273.229701 C1838.5589,272.864331 1839.04385,272.70715 1839.50071,272.827326 L1839.50071,272.827326 C1840.04373,272.924518 1840.35847,273.251083 1840.20887,273.565985 L1837.05275,280.349006 Z" id="Path" fill="#2BAF98" opacity="0.47" style="mix-blend-mode: multiply;"></path>
                <path d="M1895.27815,321.85577 C1895.42581,322.170672 1895.1033,322.507928 1894.56125,322.60026 L1894.56125,322.60026 C1894.10803,322.712997 1893.63014,322.558516 1893.32853,322.201773 L1890.15493,315.409033 C1890.00631,315.10385 1890.32104,314.770482 1890.86309,314.683981 L1890.86309,314.683981 C1891.31329,314.556197 1891.79612,314.711859 1892.08707,315.07858 L1895.27815,321.85577 Z" id="Path" fill="#2BAF98" opacity="0.47" style="mix-blend-mode: multiply;"></path>
                <path d="M1900.79382,322.160953 C1900.79382,322.484602 1900.34017,322.750907 1899.78064,322.750907 L1899.78064,322.750907 C1899.22111,322.750907 1898.76649,322.484602 1898.76649,322.160953 L1898.76649,315.109682 C1898.76649,314.786033 1899.22111,314.52653 1899.78064,314.52653 L1899.78064,314.52653 C1900.34017,314.52653 1900.79382,314.788949 1900.79382,315.109682 L1900.79382,322.160953 Z" id="Path" fill="#2BAF98" opacity="0.47" style="mix-blend-mode: multiply;"></path>
                <path d="M1907.26342,322.199829 C1906.95945,322.558094 1906.47853,322.712583 1906.02293,322.598316 L1906.02293,322.598316 C1905.48962,322.505984 1905.17489,322.168728 1905.31477,321.863546 L1908.47865,315.076637 C1908.76976,314.710025 1909.25075,314.55152 1909.70263,314.67329 L1909.70263,314.67329 C1910.23594,314.770482 1910.56039,315.097047 1910.41079,315.407089 L1907.26342,322.199829 Z" id="Path" fill="#2BAF98" opacity="0.47" style="mix-blend-mode: multiply;"></path>
                <path d="M1451.13355,332.656704 C1451.27343,332.976465 1450.96647,333.304974 1450.42539,333.386615 L1450.42539,333.386615 C1449.97372,333.517681 1449.48758,333.364363 1449.19267,332.997847 L1446.01907,326.214826 C1445.8617,325.903812 1446.17547,325.575303 1446.71849,325.483943 L1446.71849,325.483943 C1447.17181,325.36074 1447.65511,325.516588 1447.95121,325.881458 L1451.13355,332.656704 Z" id="Path" fill="#2BAF98" opacity="0.47" style="mix-blend-mode: multiply;"></path>
                <path d="M1456.64922,332.962858 C1456.64922,333.278732 1456.19557,333.553785 1455.63604,333.553785 L1455.63604,333.553785 C1455.07651,333.553785 1454.6384,333.278732 1454.6384,332.962858 L1454.6384,325.908672 C1454.6384,325.585023 1455.07651,325.32552 1455.63604,325.32552 L1455.63604,325.32552 C1456.19557,325.32552 1456.64922,325.583079 1456.64922,325.908672 L1456.64922,332.962858 Z" id="Path" fill="#2BAF98" opacity="0.47" style="mix-blend-mode: multiply;"></path>
                <path d="M1463.11882,332.99396 C1462.81981,333.360335 1462.33496,333.518997 1461.87735,333.400222 L1461.87735,333.400222 C1461.34405,333.307889 1461.02057,332.976465 1461.16142,332.661563 L1464.32531,325.87757 C1464.62007,325.510743 1465.10465,325.354478 1465.55803,325.480055 L1465.55803,325.480055 C1466.09133,325.567528 1466.41579,325.899924 1466.26619,326.206079 L1463.11882,332.99396 Z" id="Path" fill="#2BAF98" opacity="0.47" style="mix-blend-mode: multiply;"></path>
                <path d="M1899.85933,211.168798 C1900.00795,211.483699 1899.68447,211.812208 1899.15117,211.903568 L1899.15117,211.903568 C1898.697,212.026393 1898.21284,211.874778 1897.9097,211.514801 L1894.7361,204.730808 C1894.58651,204.414934 1894.89347,204.08351 1895.43552,203.991177 L1895.43552,203.991177 C1895.88806,203.867344 1896.37106,204.021573 1896.66824,204.384804 L1899.85933,211.168798 Z" id="Path" fill="#2BAF98" opacity="0.47" style="mix-blend-mode: multiply;"></path>
                <path d="M1905.375,211.474952 C1905.375,211.798601 1904.92135,212.058103 1904.37056,212.058103 L1904.37056,212.058103 C1903.80131,212.058103 1903.34766,211.800545 1903.34766,211.474952 L1903.34766,204.416878 C1903.34766,204.092257 1903.80131,203.833726 1904.37056,203.833726 L1904.37056,203.833726 C1904.92135,203.833726 1905.375,204.091285 1905.375,204.416878 L1905.375,211.474952 Z" id="Path" fill="#2BAF98" opacity="0.47" style="mix-blend-mode: multiply;"></path>
                <path d="M1911.83585,211.510913 C1911.53566,211.869611 1911.05464,212.021311 1910.60313,211.899681 L1910.60313,211.899681 C1910.06108,211.80832 1909.74635,211.479812 1909.89497,211.173657 L1913.05109,204.377029 C1913.34899,204.014867 1913.83129,203.860861 1914.28381,203.983402 L1914.28381,203.983402 C1914.82585,204.080594 1915.14156,204.403271 1914.99196,204.718173 L1911.83585,211.510913 Z" id="Path" fill="#2BAF98" opacity="0.47" style="mix-blend-mode: multiply;"></path>
                <path d="M1701.43894,215.227531 C1701.58756,215.529797 1701.26408,215.861222 1700.73078,215.953554 L1700.73078,215.953554 C1700.27423,216.073317 1699.78977,215.916174 1699.49029,215.55118 L1696.31669,208.767186 C1696.17583,208.462004 1696.48183,208.12572 1697.01513,208.037275 L1697.01513,208.037275 C1697.46874,207.910038 1697.9544,208.067031 1698.24785,208.435762 L1701.43894,215.227531 Z" id="Path" fill="#2BAF98" opacity="0.47" style="mix-blend-mode: multiply;"></path>
                <path d="M1706.95655,215.527853 C1706.95655,215.847615 1706.51067,216.111005 1705.95017,216.111005 L1705.95017,216.111005 C1705.39064,216.111005 1704.93602,215.848587 1704.93602,215.527853 L1704.93602,208.468807 C1704.93602,208.145158 1705.39064,207.885656 1705.95017,207.885656 L1705.95017,207.885656 C1706.51067,207.885656 1706.95655,208.144186 1706.95655,208.468807 L1706.95655,215.527853 Z" id="Path" fill="#2BAF98" opacity="0.47" style="mix-blend-mode: multiply;"></path>
                <path d="M1713.41643,215.55118 C1713.27752,215.870941 1712.72576,216.037139 1712.18371,215.953554 L1712.18371,215.953554 C1711.65138,215.861222 1711.32693,215.533685 1711.47555,215.227531 L1714.63264,208.435762 C1714.92998,208.0677 1715.41722,207.911183 1715.87313,208.037275 L1715.87313,208.037275 C1716.40644,208.12572 1716.7202,208.457144 1716.58129,208.767186 L1713.41643,215.55118 Z" id="Path" fill="#2BAF98" opacity="0.47" style="mix-blend-mode: multiply;"></path>
                <path d="M1884.58486,119.373983 C1884.7432,119.6918 1884.41972,120.015449 1883.88642,120.107781 L1883.88642,120.107781 C1883.43196,120.230267 1882.94771,120.07874 1882.64398,119.719014 L1879.46261,112.928217 C1879.32273,112.617203 1879.63844,112.283835 1880.17951,112.196362 L1880.17951,112.196362 C1880.6331,112.070472 1881.11802,112.227226 1881.41223,112.594849 L1884.58486,119.373983 Z" id="Path" fill="#2BAF98" opacity="0.47" style="mix-blend-mode: multiply;"></path>
                <path d="M1890.11122,119.679165 C1890.11122,120.002814 1889.6566,120.262317 1889.09706,120.262317 L1889.09706,120.262317 C1888.53753,120.262317 1888.09165,119.999898 1888.09165,119.679165 L1888.09165,112.628866 C1888.09165,112.300358 1888.53753,112.03794 1889.09706,112.03794 L1889.09706,112.03794 C1889.6566,112.03794 1890.11122,112.300358 1890.11122,112.628866 L1890.11122,119.679165 Z" id="Path" fill="#2BAF98" opacity="0.47" style="mix-blend-mode: multiply;"></path>
                <path d="M1896.57207,119.718042 C1896.2716,120.076322 1895.79085,120.227937 1895.33935,120.10681 L1895.33935,120.10681 C1894.80508,120.009618 1894.48257,119.690828 1894.63119,119.375927 L1897.79605,112.592905 C1898.08855,112.222748 1898.57437,112.064169 1899.02877,112.190531 L1899.02877,112.190531 C1899.5611,112.281891 1899.87681,112.615259 1899.74567,112.920442 L1896.57207,119.718042 Z" id="Path" fill="#2BAF98" opacity="0.47" style="mix-blend-mode: multiply;"></path>
                <path d="M1715.18246,80.2250935 C1715.32234,80.5399952 1714.99886,80.8733633 1714.46556,80.9559764 L1714.46556,80.9559764 C1714.01126,81.0871117 1713.5226,80.9340867 1713.22409,80.5672089 L1710.05924,73.7871034 C1709.90187,73.4731736 1710.21758,73.1398054 1710.75865,73.0542766 L1710.75865,73.0542766 C1711.21289,72.9260569 1711.69957,73.0845332 1711.99137,73.4556791 L1715.18246,80.2250935 Z" id="Path" fill="#2BAF98" opacity="0.47" style="mix-blend-mode: multiply;"></path>
                <path d="M1720.6991,80.5361075 C1720.6991,80.8587846 1720.24448,81.1192588 1719.68592,81.1192588 L1719.68592,81.1192588 C1719.12542,81.1192588 1718.66982,80.8597565 1718.66982,80.5361075 L1718.66982,73.4770613 C1718.66982,73.1582719 1719.12542,72.89391 1719.68592,72.89391 L1719.68592,72.89391 C1720.24448,72.89391 1720.6991,73.1563281 1720.6991,73.4770613 L1720.6991,80.5361075 Z" id="Path" fill="#2BAF98" opacity="0.47" style="mix-blend-mode: multiply;"></path>
                <path d="M1727.15121,80.5623493 C1726.86105,80.9309914 1726.37923,81.0911693 1725.92626,80.9695833 L1725.92626,80.9695833 C1725.37644,80.8723914 1725.07045,80.5487425 1725.21033,80.2348127 L1728.36645,73.4508195 C1728.66292,73.0806917 1729.14944,72.9199574 1729.60791,73.0406697 L1729.60791,73.0406697 C1730.14996,73.1378616 1730.46469,73.4605386 1730.30635,73.779328 L1727.15121,80.5623493 Z" id="Path" fill="#2BAF98" opacity="0.47" style="mix-blend-mode: multiply;"></path>
                <path d="M1907.48296,39.7310686 C1907.63061,40.0469422 1907.32462,40.3735069 1906.78257,40.4658392 L1906.78257,40.4658392 C1906.32867,40.5897642 1905.84421,40.4379328 1905.54208,40.0770717 L1902.35877,33.2833593 C1902.21985,32.9733172 1902.53459,32.6457806 1903.07664,32.5485887 L1903.07664,32.5485887 C1903.6012,32.4620879 1904.16073,32.6321737 1904.30062,32.951935 L1907.48296,39.7310686 Z" id="Path" fill="#2BAF98" opacity="0.47" style="mix-blend-mode: multiply;"></path>
                <path d="M1913.00737,40.0411107 C1913.00737,40.360872 1912.55275,40.6194024 1911.98448,40.6194024 L1911.98448,40.6194024 C1911.43466,40.6194024 1910.97907,40.360872 1910.97907,40.0411107 L1910.97907,32.9820645 C1910.97907,32.6584155 1911.43466,32.3989132 1911.98448,32.3989132 L1911.98448,32.3989132 C1912.55275,32.3989132 1913.00737,32.6603593 1913.00737,32.9820645 L1913.00737,40.0411107 Z" id="Path" fill="#2BAF98" opacity="0.47" style="mix-blend-mode: multiply;"></path>
                <path d="M1919.46823,40.0770717 C1919.1682,40.4360888 1918.68793,40.5894473 1918.23551,40.4706988 L1918.23551,40.4706988 C1917.69346,40.3735069 1917.36998,40.0469422 1917.52735,39.7398159 L1920.68346,32.951935 C1920.97695,32.5831884 1921.46164,32.4245986 1921.91618,32.5485887 L1921.91618,32.5485887 C1922.45823,32.6457806 1922.77297,32.9733172 1922.63308,33.2833593 L1919.46823,40.0770717 Z" id="Path" fill="#2BAF98" opacity="0.47" style="mix-blend-mode: multiply;"></path>
                <path d="M1562.55535,49.1771474 C1562.69621,49.4969087 1562.37273,49.8244454 1561.83845,49.911918 L1561.83845,49.911918 C1561.38272,50.0387621 1560.89523,49.8825472 1560.59796,49.5144033 L1557.4331,42.7362415 C1557.27573,42.4203679 1557.5895,42.0928313 1558.13252,42.0053586 L1558.13252,42.0053586 C1558.58596,41.876267 1559.07248,42.0331542 1559.36524,42.4028734 L1562.55535,49.1771474 Z" id="Path" fill="#2BAF98" opacity="0.47" style="mix-blend-mode: multiply;"></path>
                <path d="M1568.07296,49.4842738 C1568.07296,49.8118104 1567.61737,50.0742285 1567.05784,50.0742285 L1567.05784,50.0742285 C1566.49054,50.0742285 1566.0534,49.8118104 1566.0534,49.4842738 L1566.0534,42.4291152 C1566.0534,42.1044943 1566.49054,41.8343009 1567.05784,41.8343009 L1567.05784,41.8343009 C1567.61737,41.8343009 1568.07296,42.1044943 1568.07296,42.4291152 L1568.07296,49.4842738 Z" id="Path" fill="#2BAF98" opacity="0.47" style="mix-blend-mode: multiply;"></path>
                <path d="M1574.53382,49.5144033 C1574.23821,49.8801354 1573.75608,50.039026 1573.3011,49.9206653 L1573.3011,49.9206653 C1572.75808,49.8234734 1572.4346,49.4969087 1572.58323,49.1868666 L1575.74905,42.4028734 C1576.03805,42.0338163 1576.51983,41.873777 1576.97206,41.9966113 L1576.97206,41.9966113 C1577.51508,42.0879717 1577.82884,42.4203679 1577.68993,42.7362415 L1574.53382,49.5144033 Z" id="Path" fill="#2BAF98" opacity="0.47" style="mix-blend-mode: multiply;"></path>
            </g>
        </g>
    </g>
</svg>