<?xml version="1.0" encoding="UTF-8"?>
<svg width="1920px" height="1169px" viewBox="0 0 1920 1169" version="1.1" xmlns="http://www.w3.org/2000/svg" xmlns:xlink="http://www.w3.org/1999/xlink">
    <title>BFA9C281-E10B-434A-8E47-EF3C3EE69760</title>
    <defs>
        <linearGradient x1="50%" y1="0%" x2="50%" y2="100%" id="linearGradient-1">
            <stop stop-color="#75E0EC" offset="0%"></stop>
            <stop stop-color="#E6FDEE" offset="100%"></stop>
        </linearGradient>
        <linearGradient x1="103.3%" y1="49.1005443%" x2="3.2%" y2="75.2846978%" id="linearGradient-2">
            <stop stop-color="#FFFFFF" offset="0%"></stop>
            <stop stop-color="#E6FDEE" offset="100%"></stop>
        </linearGradient>
        <linearGradient x1="-24.7%" y1="33.3752443%" x2="99.6%" y2="116.198576%" id="linearGradient-3">
            <stop stop-color="#FFFFFF" offset="0%"></stop>
            <stop stop-color="#E6FDEE" offset="100%"></stop>
        </linearGradient>
        <linearGradient x1="1.222507%" y1="22.5%" x2="99.3949296%" y2="77.9%" id="linearGradient-4">
            <stop stop-color="#FFFFFF" offset="0%"></stop>
            <stop stop-color="#E6FDEE" offset="100%"></stop>
        </linearGradient>
        <linearGradient x1="22.9%" y1="26.8165882%" x2="106.3%" y2="98.1655366%" id="linearGradient-5">
            <stop stop-color="#FFFFFF" offset="0%"></stop>
            <stop stop-color="#E6FDEE" offset="100%"></stop>
        </linearGradient>
        <linearGradient x1="-23.9%" y1="32.0990575%" x2="100.1%" y2="114.803412%" id="linearGradient-6">
            <stop stop-color="#FFFFFF" offset="0%"></stop>
            <stop stop-color="#E6FDEE" offset="100%"></stop>
        </linearGradient>
        <linearGradient x1="5.55495651%" y1="22.5%" x2="95.007639%" y2="77.9%" id="linearGradient-7">
            <stop stop-color="#FFFFFF" offset="0%"></stop>
            <stop stop-color="#E6FDEE" offset="100%"></stop>
        </linearGradient>
        <linearGradient x1="12.6%" y1="-50.0835292%" x2="87.4%" y2="244.657873%" id="linearGradient-8">
            <stop stop-color="#FFFFFF" offset="0%"></stop>
            <stop stop-color="#E6FDEE" offset="100%"></stop>
        </linearGradient>
        <linearGradient x1="12.9%" y1="-39.7759308%" x2="87.1%" y2="240.196435%" id="linearGradient-9">
            <stop stop-color="#FFFFFF" offset="0%"></stop>
            <stop stop-color="#E6FDEE" offset="100%"></stop>
        </linearGradient>
        <linearGradient x1="12.9%" y1="-43.3111313%" x2="87.1%" y2="243.645681%" id="linearGradient-10">
            <stop stop-color="#FFFFFF" offset="0%"></stop>
            <stop stop-color="#E6FDEE" offset="100%"></stop>
        </linearGradient>
    </defs>
    <g id="LHRC-Staking" stroke="none" stroke-width="1" fill="none" fill-rule="evenodd">
        <g id="Landing" transform="translate(0.000000, 420.000000)" fill-rule="nonzero">
            <g id="Sky" transform="translate(0.000000, -420.000000)">
                <rect id="Rectangle" fill="url(#linearGradient-1)" x="0" y="0" width="1920" height="1169"></rect>
                <path d="M1920,519.665538 L1920,1169 L1496.10349,1169 C1495.99163,1167.34578 1495.9122,1165.68661 1495.86521,1164.02247 C1486.04575,1161.51541 1476.4876,1158.07862 1467.32037,1153.75872 C1469.31267,1158.72299 1470.97107,1163.81475 1472.28452,1169 L1061.93814,1169 C1079.45681,1150.25247 1104.89556,1141.02393 1130.36396,1144.17684 C1127.75692,1135.9934 1126.43302,1127.45578 1126.4393,1118.86735 C1126.4393,1073.50876 1162.69446,1036.73754 1207.41448,1036.73754 C1228.97344,1036.73628 1249.6236,1045.41889 1264.70074,1060.82424 C1264.6928,1060.47388 1264.68486,1060.12252 1264.68486,1059.77216 C1264.68486,1013.49151 1301.6747,975.974899 1347.30416,975.974899 C1356.7344,975.967227 1366.0943,977.597375 1374.96637,980.792636 C1386.24889,901.050852 1453.87547,839.754231 1535.61513,839.754231 C1541.61616,839.754833 1547.61252,840.08917 1553.57641,840.755693 C1556.7902,804.230618 1583.61446,774.610568 1618.46079,767.700579 C1618.1881,763.739726 1618.04877,759.742149 1618.04281,755.707848 C1618.04281,662.729694 1692.35511,587.358017 1784.02604,587.358017 C1798.05494,587.34895 1812.02711,589.138181 1825.60078,592.681944 C1839.46068,552.242332 1876.13083,522.61335 1920,519.665538 Z" id="Path" fill="url(#linearGradient-2)" opacity="0.43"></path>
                <path d="M745.237113,1147.22459 C745.237113,1154.56321 744.357518,1161.87534 742.599695,1169 L200.796785,1169 C200.638628,1167.03514 200.516867,1165.06266 200.431501,1163.08256 C198.665964,1165.09445 196.856421,1167.06692 195.002871,1169 L0,1169 L0,508.777307 C22.9280757,516.141232 38.4427983,537.526306 38.3398874,561.62397 C38.3407383,564.533304 38.1160634,567.438321 37.6678847,570.312875 C129.430497,575.087949 202.391923,652.145733 202.391923,746.502853 C202.411053,764.788996 199.623028,782.969561 194.125396,800.408436 C195.796304,800.283273 197.48177,800.219367 199.181795,800.216718 C222.326337,800.260011 243.855403,812.096196 256.305001,831.621741 C276.279475,819.792134 299.068262,813.562957 322.278393,813.588314 C389.890598,813.588314 445.555648,865.474399 452.784888,932.165496 C458.764986,929.940499 465.094874,928.805054 471.474901,928.812912 C501.464882,928.812912 525.776093,953.496873 525.776093,983.944299 C525.776093,984.197605 525.769145,984.450912 525.765174,984.708191 C529.785249,984.122152 533.842395,983.827682 537.904898,983.827083 C583.210981,983.827083 620.222745,1019.8552 622.680468,1065.23081 C633.620207,1060.45365 645.429667,1057.99449 657.365535,1058.0081 C705.898621,1058.01307 745.237113,1097.95402 745.237113,1147.22459 Z" id="Path" fill="url(#linearGradient-3)" opacity="0.43"></path>
                <ellipse id="Oval" fill="url(#linearGradient-4)" cx="1673.56701" cy="907.682472" rx="17.814433" ry="17.8171041"></ellipse>
                <path d="M1920,798.950998 L1920,1169 L1381.75813,1169 C1381.65887,1167.76961 1381.60825,1166.51937 1381.60825,1165.26218 C1381.60825,1140.09963 1401.71948,1119.70287 1426.52973,1119.70287 C1436.60976,1119.69471 1446.39148,1123.12153 1454.26122,1129.41802 C1462.08298,1093.23153 1493.86629,1066.14599 1531.89014,1066.14599 C1547.20889,1066.12958 1562.19596,1070.60554 1574.99515,1079.01948 C1574.23423,1074.43374 1573.85178,1069.79321 1573.85167,1065.1448 C1573.85167,1019.24316 1610.53649,982.036636 1655.79545,982.036636 C1671.20518,982.020657 1686.29742,986.414803 1699.28857,994.699774 C1699.2535,993.987336 1699.23563,993.270929 1699.23497,992.550553 C1699.13147,971.940774 1713.21757,953.964601 1733.2596,949.129544 C1726.44335,935.753048 1722.90218,920.949678 1722.92754,905.937745 C1722.92754,853.953589 1764.47813,811.813579 1815.73642,811.813579 C1834.30337,811.794138 1852.43612,817.42656 1867.7223,827.961511 C1877.16118,810.070787 1895.71164,798.852962 1915.94519,798.800169 C1917.30904,798.800169 1918.66064,798.849788 1920,798.950998 Z" id="Path" fill="url(#linearGradient-5)"></path>
                <path d="M473.072165,1156.91623 C473.077922,1161.10141 472.133357,1165.23335 470.309083,1169 L0,1169 L0,751.810379 C2.84116651,751.462713 5.70085269,751.287892 8.56321051,751.287892 C47.4835536,751.287892 79.0346287,783.299706 79.0346287,822.791241 C79.0492171,833.062685 76.8710539,843.218909 72.6457446,852.580992 C83.8050446,860.552012 91.2190968,872.740175 93.1662603,886.315228 C109.689445,873.288385 130.121315,866.211739 151.161872,866.228254 C203.540392,866.228254 246.002831,909.310651 246.002831,962.454415 C246.004967,969.055935 245.339381,975.640744 244.016238,982.1083 C247.439727,981.47925 250.913402,981.163392 254.394201,981.164643 C286.406166,981.164643 312.355048,1007.49266 312.355048,1039.96935 C312.35755,1045.18085 311.678333,1050.37029 310.334682,1055.40559 C323.047906,1048.36768 337.344159,1044.68387 351.875342,1044.70154 C399.105605,1044.70154 437.537246,1082.91467 438.78284,1130.53059 C441.149592,1129.85584 443.598678,1129.51351 446.059732,1129.51343 C453.275713,1129.56436 460.175821,1132.48024 465.241681,1137.61945 C470.307541,1142.75865 473.124053,1149.70007 473.072165,1156.91623 Z" id="Path" fill="url(#linearGradient-6)"></path>
                <ellipse id="Oval" fill="url(#linearGradient-7)" cx="340.948454" cy="970.042337" rx="10.3917526" ry="10.8882303"></ellipse>
                <path d="M933.017281,994.861698 L933.017281,994.861698 C933.017281,994.861698 931.399563,962.548324 951.61311,971.662429 C971.826657,980.776535 965.357766,1003.14679 965.357766,1003.14679 C965.357766,1003.14679 972.634524,984.123613 986.379181,986.594624 C1000.12384,989.065635 1004.97501,1008.94686 1004.97501,1008.94686 C1004.97501,1008.94686 1019.52853,975.013513 1039.74108,989.495158 C1059.95364,1003.9768 1055.10544,1008.94686 1055.10544,1008.94686 L1117.36082,1015.57494 L821.443299,1012.2609 L933.017281,994.861698 Z" id="Path" fill="url(#linearGradient-8)" opacity="0.43"></path>
                <path d="M1118.35052,813.647756 L1565.69072,813.647756 L1448.45412,799.591444 C1448.45412,799.591444 1440.27808,773.487574 1413.61535,773.487574 C1386.95261,773.487574 1381.02734,798.587564 1381.02734,798.587564 C1381.02734,798.587564 1373.12731,743.369179 1332.63927,743.369179 C1292.15123,743.369179 1284.2512,797.584678 1284.2512,797.584678 C1284.2512,797.584678 1274.3764,776.501204 1246.72679,776.501204 C1219.07717,776.501204 1213.1509,800.596319 1213.1509,800.596319 L1118.35052,813.647756 Z" id="Path" fill="url(#linearGradient-9)" opacity="0.43"></path>
                <path d="M463.228131,719.61304 L997.608247,719.61304 L860.721361,702.224297 C860.721361,702.224297 842.2947,662.095281 813.337667,662.095281 C784.380635,662.095281 778.387951,698.210898 778.387951,698.210898 C778.387951,698.210898 767.272007,650.057073 730.415708,650.057073 C693.559408,650.057073 686.981152,698.210898 686.981152,698.210898 C686.981152,698.210898 685.665103,620.629128 631.699184,620.629128 C577.733264,620.629128 581.677439,696.873761 581.677439,696.873761 C581.677439,696.873761 576.330869,672.085532 557.286876,672.085532 C538.242883,672.085532 532.977697,695.53563 532.977697,695.53563 L351.340206,719.61304 L463.228131,719.61304 Z" id="Path" fill="url(#linearGradient-10)" opacity="0.43"></path>
            </g>
        </g>
    </g>
</svg>